<svg width="474" height="655" viewBox="0 0 474 655" fill="none" xmlns="http://www.w3.org/2000/svg">
<g style="mix-blend-mode:multiply">
<path fill-rule="evenodd" clip-rule="evenodd" d="M474 264.163C474 82.7827 340.906 -64.7651 176.821 -64.7651L177.034 -65L167.481 -64.7651C134.579 -63.5903 102.527 -59.3612 71.3229 -52.7827C29.5056 -43.8546 0 -4.14831 0 42.8414V45.4258C0 75.4992 11.0381 101.579 32.0529 120.609C53.0676 139.64 78.1155 146.689 104.862 141.05C126.938 136.351 149.651 133.297 173 132.592L177.034 132.357C242.625 132.357 295.905 191.329 295.905 263.928C295.905 334.883 245.172 392.68 181.704 395.499C80.2382 399.963 0 492.298 0 604.604V655H178.095V630.213C178.095 610.007 191.893 593.091 209.936 590.976C358.525 572.885 474 433.561 474 264.163Z" fill="#6699FF"/>
</g>
</svg>
