<svg width="706" height="662" viewBox="0 0 706 662" fill="none" xmlns="http://www.w3.org/2000/svg">
<g style="mix-blend-mode:multiply">
<path fill-rule="evenodd" clip-rule="evenodd" d="M706 271.163C706 89.7827 572.906 -57.7651 408.821 -57.7651L409.034 -58L399.481 -57.7651C366.579 -56.5903 334.527 -52.3612 303.323 -45.7827C261.506 -36.8546 232 2.85169 232 49.8414V52.4258C232 82.4992 243.038 108.579 264.053 127.609C285.068 146.64 310.116 153.689 336.862 148.05C358.938 143.351 381.651 140.297 405 139.592L409.034 139.357C474.625 139.357 527.905 198.329 527.905 270.928C527.905 341.883 477.172 399.68 413.704 402.499C312.238 406.963 232 499.298 232 611.604V662H410.095V637.213C410.095 617.007 423.893 600.091 441.936 597.976C590.525 579.885 706 440.561 706 271.163Z" fill="#6699FF"/>
</g>
<g style="mix-blend-mode:soft-light">
<path fill-rule="evenodd" clip-rule="evenodd" d="M397.956 166H396.451L397.204 166.406H395.323C175.281 173.714 0 368.183 0 605.687V662H193.712V605.687C193.712 480.642 285.866 378.739 400.965 375.491C453.248 373.867 495 327.584 495 270.745C495 212.689 451.368 166 397.956 166Z" fill="url(#paint0_linear_458_135)"/>
</g>
<defs>
<linearGradient id="paint0_linear_458_135" x1="504.5" y1="189.5" x2="247.5" y2="662" gradientUnits="userSpaceOnUse">
<stop stop-color="white"/>
<stop offset="1" stop-color="white" stop-opacity="0"/>
</linearGradient>
</defs>
</svg>
