<svg width="925" height="172" viewBox="0 0 925 172" fill="none" xmlns="http://www.w3.org/2000/svg">
<path fill-rule="evenodd" clip-rule="evenodd" d="M207.385 137.012V91.4536H184.568C171.976 91.4536 161.75 101.662 161.75 114.233C161.75 126.803 171.976 137.012 184.568 137.012H207.385ZM57.2126 0C88.819 0 114.425 25.5631 114.425 57.1163C114.425 80.739 100.059 101.071 79.523 109.761L114.256 171.433H74.7905L42.5925 114.317H34.3952V171.433H0V114.317V79.9797H57.2126C69.8045 79.9797 80.03 69.7713 80.03 57.2007C80.03 44.63 69.8045 34.4217 57.2126 34.4217H0V0.0843688H57.2126V0ZM543.9 57.1163V171.349H509.505V57.1163C509.505 44.5457 499.279 34.3373 486.687 34.3373H463.87V171.349H429.475V34.3373V0H463.87H486.687C518.294 0 543.9 25.5631 543.9 57.1163ZM416.545 0V171.349H382.15V0H416.545ZM369.22 34.3373L296.88 137.012H312.007H369.22V171.349H312.007H254.795V137.012L326.881 34.3373H254.795V0H350.966H369.22V34.3373ZM241.865 91.4536V137.012V148.57V171.349H184.652C153.046 171.349 127.44 145.786 127.44 114.233C127.44 82.6795 153.046 57.1163 184.652 57.1163H207.47C207.47 44.5457 197.244 34.3373 184.652 34.3373H149.074V0H184.652C216.259 0 241.865 25.5631 241.865 57.1163V91.4536Z" fill="url(#paint0_linear_31_1377)"/>
<path fill-rule="evenodd" clip-rule="evenodd" d="M740.617 91.4986C728.037 91.4986 717.822 101.712 717.822 114.289C717.822 126.866 728.037 137.079 740.617 137.079H763.411V91.4986H740.617ZM613.389 0C644.964 0 670.544 25.5757 670.544 57.1444C670.544 88.7132 644.964 114.289 613.389 114.289H590.594V171.433H556.233V114.289V79.9347H613.389C625.968 79.9347 636.183 69.7213 636.183 57.1444C636.183 44.5676 625.968 34.3542 613.389 34.3542H556.233V0H613.389ZM810.689 137.079H867.845C880.424 137.079 890.639 126.866 890.639 114.289H867.845C836.27 114.289 810.689 88.7132 810.689 57.1444V0H845.05V57.1444C845.05 69.7213 855.265 79.9347 867.845 79.9347H890.639V0H925V79.9347V114.289C925 145.858 899.419 171.433 867.845 171.433H810.689V137.079ZM740.617 171.433C709.042 171.433 683.461 145.858 683.461 114.289C683.461 82.7202 709.042 57.1444 740.617 57.1444H763.411C763.411 44.5676 753.196 34.3542 740.617 34.3542H705.074V0H740.617C772.191 0 797.772 25.5757 797.772 57.1444V91.4986V137.079V148.643V171.433H740.617Z" fill="url(#paint1_linear_31_1377)"/>
<defs>
<linearGradient id="paint0_linear_31_1377" x1="271.95" y1="0" x2="271.95" y2="171.433" gradientUnits="userSpaceOnUse">
<stop stop-color="#6699FF" stop-opacity="0.35"/>
<stop offset="1" stop-color="#F7F8FC" stop-opacity="0"/>
</linearGradient>
<linearGradient id="paint1_linear_31_1377" x1="740.617" y1="0" x2="740.617" y2="171.433" gradientUnits="userSpaceOnUse">
<stop stop-color="#000066" stop-opacity="0.31"/>
<stop offset="1" stop-color="#F7F8FC" stop-opacity="0"/>
</linearGradient>
</defs>
</svg>
