<svg width="187" height="150" viewBox="0 0 187 150" fill="none" xmlns="http://www.w3.org/2000/svg">
<g clip-path="url(#clip0_22_1061)">
<path d="M134.6 79.7001C134.6 79.7001 120.3 82 116.4 85.2001C112.5 88.4001 93.0998 77.4001 103.6 72.2001C114 67.0001 128.9 64.8 128.9 64.8L134.6 79.7001Z" fill="#6699FF"/>
<path d="M50.2002 72.6C50.2002 72.6 63.3002 84.4 65.0002 87C66.7002 89.6 97.9002 115 100.9 102C100.9 102 107.5 102.2 107.7 96.3C107.7 96.3 112.8 95.5 113 89.6C113 89.6 118.1 88.8 118.3 83.8C118.3 83.8 98.5002 76.1 91.2002 58C91.2002 58 66.2002 55 63.9002 53.6L50.2002 72.6Z" fill="#000066"/>
<path d="M111.8 74.4C111.8 74.4 101.7 78.6 94.8 66.9C94.8 66.9 83.8 77.2 77.5 71.5L91.7 56.7C91.7 56.7 95.9 54.6 101.7 56.7C110.3 59.8 125.5 54.5 125.5 54.5L131 71L111.8 74.4Z" fill="#6699FF"/>
<path d="M73.3998 93.1001C72.4998 94.5001 70.2998 94.7001 68.5998 93.6001C66.8998 92.5001 66.1998 90.4001 67.0998 89.0001L70.6998 83.4001C71.5998 82.0001 73.7998 81.8001 75.4998 82.9001C77.1998 84.0001 77.8998 86.1001 76.9998 87.5001L73.3998 93.1001Z" fill="#6699FF"/>
<path d="M91.9999 105.5C91.0999 106.9 88.8999 107.1 87.1999 106C85.4999 104.9 84.7999 102.8 85.6999 101.4L89.2999 95.8C90.1999 94.4 92.3999 94.2 94.0999 95.3C95.7999 96.4 96.4999 98.5 95.5999 99.9L91.9999 105.5Z" fill="#6699FF"/>
<path d="M79.1999 97.9C78.0999 99.6 75.7999 100 74.0999 98.9C72.3999 97.8 71.7999 95.5 72.8999 93.8L77.1999 87.2C78.2999 85.5 80.5999 85.1 82.2999 86.2C83.9999 87.3 84.5999 89.6 83.4999 91.3L79.1999 97.9Z" fill="#6699FF"/>
<path d="M85.5002 102C84.4002 103.7 82.1002 104.1 80.4002 103C78.7002 101.9 78.1002 99.6001 79.2002 97.9001L83.5002 91.3001C84.6002 89.6001 86.9002 89.2001 88.6002 90.3001C90.3002 91.4001 90.9002 93.7001 89.8002 95.4001L85.5002 102Z" fill="#6699FF"/>
<path d="M124.425 51.4201L120.087 52.9496L130.561 82.6572L134.899 81.1277L124.425 51.4201Z" fill="#000066"/>
<path d="M133.89 45.7815L122.954 49.6489L134.923 83.4954L145.859 79.628L133.89 45.7815Z" fill="#000066"/>
<path d="M66.7495 51.498L50.4546 78.4557L54.3913 80.8353L70.6862 53.8776L66.7495 51.498Z" fill="#6699FF"/>
<path d="M40 74.7L49.9 80.7L68.6 50L58.6 44L40 74.7Z" fill="#6699FF"/>
</g>
<defs>
<clipPath id="clip0_22_1061">
<rect width="105.8" height="62.7" fill="white" transform="translate(40 44)"/>
</clipPath>
</defs>
</svg>
