<svg width="187" height="150" viewBox="0 0 187 150" fill="none" xmlns="http://www.w3.org/2000/svg">
<g clip-path="url(#clip0_22_1078)">
<path fill-rule="evenodd" clip-rule="evenodd" d="M93.6104 124.5C126.747 124.5 153.61 97.637 153.61 64.5C153.61 31.363 126.747 4.5 93.6104 4.5C60.4734 4.5 33.6104 31.363 33.6104 64.5C33.6104 97.637 60.4734 124.5 93.6104 124.5Z" stroke="#000066" stroke-width="3" stroke-linecap="square" stroke-dasharray="2 6"/>
<g clip-path="url(#clip1_22_1078)">
<path d="M125.774 86.1928C125.774 88.2494 124.089 89.8613 122.066 89.8613H55.7088C53.6299 89.8613 52.0005 88.1938 52.0005 86.1928V38.6685C52.0005 36.6675 53.6861 35 55.7088 35H122.01C124.089 35 125.718 36.6675 125.718 38.6685V86.1928H125.774Z" fill="#000066"/>
<path d="M122.684 38.5018H55.0347V83.1357H122.684V38.5018Z" fill="#3B9FFE"/>
<path d="M121.28 41.0586H56.4956V80.5787H121.28V41.0586Z" fill="#E6E6E6"/>
<path d="M90.3202 86.3595C90.3202 87.1377 89.6459 87.8047 88.8593 87.8047C88.0727 87.8047 87.3984 87.1377 87.3984 86.3595C87.3984 85.5813 88.0727 84.9143 88.8593 84.9143C89.7021 84.9143 90.3202 85.5813 90.3202 86.3595Z" fill="#6699FF"/>
<path d="M118.077 60.7909C118.077 66.9052 113.076 71.8521 106.896 71.8521C100.715 71.8521 95.7144 66.9052 95.7144 60.7909C95.7144 54.6767 100.715 49.7297 106.896 49.7297C113.076 49.7297 118.077 54.7323 118.077 60.7909Z" fill="white"/>
<path d="M103.187 62.9031C103.356 63.3478 103.131 63.7924 102.681 63.9592C102.232 64.1259 101.783 63.9036 101.614 63.4589L99.9283 58.6787C99.7598 58.2341 100.041 58.0117 100.434 57.845L101.108 58.4008C101.108 58.4008 101.614 58.4564 101.783 58.9011L103.187 62.9031Z" fill="#000066"/>
<path d="M111.503 58.4564C111.503 58.7899 111.222 59.0122 110.941 59.0122H100.434C100.097 59.0122 99.8721 58.7343 99.8721 58.4564C99.8721 58.1228 100.153 57.9005 100.434 57.9005H110.941C111.278 57.9005 111.503 58.1228 111.503 58.4564Z" fill="#000066"/>
<path d="M114.706 55.9551C114.706 56.2886 114.425 56.511 114.144 56.511H111.39C111.053 56.511 110.829 56.2331 110.829 55.9551C110.829 55.6216 111.11 55.3993 111.39 55.3993H114.144C114.425 55.3993 114.706 55.6216 114.706 55.9551Z" fill="#000066"/>
<path d="M110.435 60.8465C110.435 61.18 110.155 61.4023 109.874 61.4023H101.67C101.333 61.4023 101.108 61.1244 101.108 60.8465C101.108 60.513 101.389 60.2906 101.67 60.2906H109.874C110.211 60.2906 110.435 60.513 110.435 60.8465Z" fill="#000066"/>
<path d="M109.368 63.4589C109.368 63.7924 109.087 64.0148 108.806 64.0148H102.625C102.288 64.0148 102.063 63.7368 102.063 63.4589C102.063 63.1254 102.344 62.9031 102.625 62.9031H108.806C109.087 62.9031 109.368 63.1254 109.368 63.4589Z" fill="#000066"/>
<path d="M108.188 62.9031C108.019 63.3477 108.244 63.7924 108.693 63.9592C109.143 64.1259 109.592 63.9036 109.761 63.4589L112.289 56.4553C112.458 56.0107 112.233 55.566 111.784 55.3992C111.334 55.2325 110.885 55.4548 110.716 55.8995L108.188 62.9031Z" fill="#000066"/>
<path d="M104.198 65.8491C104.198 66.5161 103.636 67.0719 102.962 67.0719C102.288 67.0719 101.726 66.5161 101.726 65.8491C101.726 65.1821 102.288 64.6262 102.962 64.6262C103.636 64.6262 104.198 65.1821 104.198 65.8491Z" fill="#000066"/>
<path d="M109.986 65.8491C109.986 66.5161 109.424 67.0719 108.75 67.0719C108.076 67.0719 107.514 66.5161 107.514 65.8491C107.514 65.1821 108.076 64.6262 108.75 64.6262C109.48 64.6262 109.986 65.1821 109.986 65.8491Z" fill="#000066"/>
<path opacity="0.05" d="M106.896 49.7297C113.076 49.7297 118.077 54.6767 118.077 60.7909C118.077 66.9052 113.076 71.8521 106.896 71.8521V49.7297Z" fill="black"/>
<path d="M91.0505 43.282H59.2485V47.5619H91.0505V43.282Z" fill="#6699FF"/>
<path d="M117.627 43.282H94.8716V47.5619H117.627V43.282Z" fill="white"/>
<path d="M117.627 74.9092H94.8716V77.9107H117.627V74.9092Z" fill="white"/>
<path d="M75.9923 49.8965H59.2485V52.0643H75.9923V49.8965Z" fill="white"/>
<path d="M89.6459 54.2321H59.2485V56.3998H89.6459V54.2321Z" fill="white"/>
<path d="M86.2746 58.512H59.2485V60.6797H86.2746V58.512Z" fill="white"/>
<path d="M79.9816 62.8475H59.2485V65.0153H79.9816V62.8475Z" fill="white"/>
<path d="M86.2746 67.1274H59.2485V69.2952H86.2746V67.1274Z" fill="white"/>
<path d="M83.9148 75.7986H59.2485V77.9664H83.9148V75.7986Z" fill="white"/>
<path d="M79.9816 71.463H59.2485V73.6308H79.9816V71.463Z" fill="white"/>
<path opacity="0.1" d="M53.3491 85.2478V39.8358C53.3491 37.8903 54.9224 36.334 56.8889 36.334H120.324C122.291 36.334 123.864 37.8903 123.864 39.8358L53.3491 85.2478Z" fill="white"/>
<path d="M99.2394 99.9505C98.6838 101.456 97.0146 102.18 95.5342 101.634L94.7117 101.33C93.1901 100.769 92.448 99.1079 92.9886 97.6434L101.848 73.6409C102.403 72.1357 104.073 71.4113 105.553 71.9577L106.376 72.2613C107.897 72.8229 108.639 74.4836 108.099 75.9481L99.2394 99.9505Z" fill="#6699FF"/>
<path d="M104.626 102.447C104.115 103.83 102.543 104.544 101.145 104.028L100.364 103.74C98.9657 103.224 98.2346 101.66 98.7452 100.277L102.124 91.1231C102.634 89.7399 104.206 89.0258 105.604 89.5419L106.386 89.8303C107.784 90.3464 108.515 91.9105 108.004 93.2937L104.626 102.447Z" fill="#6699FF"/>
<path d="M95.6627 106.35C96.3337 108.077 95.5307 109.999 93.7793 110.693L93.6108 110.77C91.8744 111.423 89.9305 110.613 89.2185 108.871L83.6888 95.8749C83.0179 94.1481 83.8209 92.2257 85.5723 91.5316L85.7407 91.4551C87.4771 90.8017 89.421 91.6117 90.1331 93.3537L95.6627 106.35Z" fill="#6699FF"/>
<path d="M110.138 106.377C109.582 107.882 107.913 108.606 106.432 108.06L105.61 107.756C104.088 107.195 103.346 105.534 103.887 104.07L107.521 94.2246C108.076 92.7193 109.745 91.9949 111.226 92.5413L112.048 92.8449C113.57 93.4065 114.312 95.0672 113.771 96.5317L110.138 106.377Z" fill="#6699FF"/>
<path d="M115.876 108.68C115.351 110.104 113.779 110.818 112.339 110.286L111.558 109.998C110.119 109.467 109.388 107.903 109.913 106.479L113.352 97.1626C113.877 95.7387 115.449 95.0246 116.889 95.5559L117.67 95.8443C119.109 96.3755 119.84 97.9396 119.315 99.3635L115.876 108.68Z" fill="#6699FF"/>
<path d="M114.934 111.105C112.516 117.655 106.399 116.507 104.836 115.93L91.224 110.906C89.7024 110.344 88.8781 108.653 89.4487 107.107L92.9623 97.5875C93.5179 96.0823 95.2171 95.2765 96.7798 95.8533L114.915 102.547C116.437 103.109 117.261 104.8 116.691 106.346L114.934 111.105Z" fill="#6699FF"/>
</g>
</g>
<defs>
<clipPath id="clip0_22_1078">
<rect width="124" height="145" fill="white" transform="translate(31.6104 2.5)"/>
</clipPath>
<clipPath id="clip1_22_1078">
<rect width="84" height="109" fill="white" transform="translate(52.0005 28)"/>
</clipPath>
</defs>
</svg>
