<svg width="125" height="146" viewBox="0 0 125 146" fill="none" xmlns="http://www.w3.org/2000/svg">
<g clip-path="url(#clip0_31_1373)">
<path fill-rule="evenodd" clip-rule="evenodd" d="M62.8301 122C95.9671 122 122.83 95.137 122.83 62C122.83 28.863 95.9671 2 62.8301 2C29.6931 2 2.83008 28.863 2.83008 62C2.83008 95.137 29.6931 122 62.8301 122Z" stroke="#000066" stroke-width="3" stroke-linecap="square" stroke-dasharray="2 6"/>
<path d="M67.8301 120.045H58.8301C57.7255 120.045 56.8301 120.94 56.8301 122.045V125.989C56.8301 127.093 57.7255 127.989 58.8301 127.989H67.8301C68.9346 127.989 69.8301 127.093 69.8301 125.989V122.045C69.8301 120.94 68.9346 120.045 67.8301 120.045Z" stroke="white" stroke-width="2" stroke-linecap="round" stroke-linejoin="round"/>
<path d="M60.0161 119.344L59.7643 116.466C59.6852 115.574 59.9404 114.684 60.4804 113.97C61.0204 113.255 61.8068 112.767 62.6867 112.599C63.5666 112.432 64.4772 112.598 65.2418 113.064C66.0065 113.531 66.5704 114.265 66.8242 115.124" stroke="white" stroke-width="2" stroke-linecap="round" stroke-linejoin="round"/>
</g>
<path d="M72.1797 86.8158C73.0098 89.4248 71.5274 92.1523 68.9184 92.9825L68.6813 93.0418C66.0723 93.8719 63.3447 92.3895 62.5146 89.7805L55.9921 70.0946C55.162 67.4856 56.6444 64.758 59.2533 63.9279L59.4905 63.8686C62.0995 63.0384 64.8271 64.5208 65.6572 67.1298L72.1797 86.8158Z" fill="#000066"/>
<path d="M57.3557 66.8928C56.7627 67.0706 56.2884 67.4264 55.8733 67.7822C55.7547 68.553 55.7547 69.3239 55.9919 70.0947L57.1778 73.8303C57.8893 73.771 58.6602 73.4745 59.4903 73.178C61.6842 72.4072 63.4631 71.6957 62.6922 69.5017C61.9807 67.2485 59.5496 66.1219 57.3557 66.8928Z" fill="#000066"/>
<path d="M84.5724 70.7469C84.5724 73.3559 82.4377 75.4905 79.8288 75.4905H24.7436C22.1346 75.4905 20 73.3559 20 70.7469V40.7436C20 38.1346 22.1346 36 24.7436 36H79.8288C82.4377 36 84.5724 38.1346 84.5724 40.7436V70.7469Z" fill="#6699FF"/>
<path d="M84.5724 63.5723H20V70.2133H84.5724V63.5723Z" fill="#000066"/>
<path d="M76.5082 54.856C76.5082 56.5756 75.0851 57.9986 73.3655 57.9986H64.4713C62.7517 57.9986 61.3286 56.5756 61.3286 54.856V45.9617C61.3286 44.2422 62.7517 42.8191 64.4713 42.8191H73.3655C75.0851 42.8191 76.5082 44.2422 76.5082 45.9617V54.856Z" fill="white"/>
<path d="M54.5095 42.8782H26.5815V46.5545H54.5095V42.8782Z" fill="white"/>
<path d="M54.5095 48.6299H26.5815V52.3062H54.5095V48.6299Z" fill="white"/>
<path d="M54.5095 54.3816H26.5815V58.0579H54.5095V54.3816Z" fill="white"/>
<path d="M85.2245 81.183C84.1571 83.0804 81.726 83.7327 79.8286 82.6653L78.8206 82.0724C76.9231 81.0051 76.2709 78.574 77.3382 76.6765L84.3943 64.106C85.4616 62.2085 87.8927 61.5563 89.7902 62.6236L90.7982 63.2166C92.6956 64.2839 93.3479 66.715 92.2806 68.6124L85.2245 81.183Z" fill="#000066"/>
<path d="M90.0277 89.2471C88.7232 91.2038 86.0549 91.7375 84.0982 90.433L83.0308 89.7214C81.0741 88.4169 80.5405 85.7487 81.8449 83.7919L90.5613 70.9249C91.8658 68.9681 94.5341 68.4345 96.4908 69.739L97.5581 70.4505C99.5149 71.755 100.049 74.4233 98.744 76.38L90.0277 89.2471Z" fill="#000066"/>
<path d="M97.8545 94.4648C96.7279 96.3623 94.2968 97.0145 92.34 95.9472L91.2727 95.3543C89.3753 94.2276 88.723 91.7965 89.7903 89.8398L97.1429 77.1507C98.2696 75.2532 100.701 74.601 102.657 75.6683L103.725 76.2612C105.622 77.3878 106.274 79.8189 105.207 81.7757L97.8545 94.4648Z" fill="#000066"/>
<path d="M99.7517 95.8881C95.4232 105.257 86.6475 102.885 84.4536 101.877L65.1827 92.9826C62.9888 91.9746 62.0401 89.4249 63.0481 87.231L69.3334 73.6524C70.3414 71.4585 72.8911 70.5098 75.085 71.5178L101.353 79.8191C103.547 80.8271 106.393 79.3448 105.385 81.4794L99.7517 95.8881Z" fill="#000066"/>
<path d="M76.508 79.404C75.4407 81.4794 72.8317 82.3095 70.7564 81.2422L69.6298 80.6492C67.5545 79.5819 66.7243 76.9729 67.7916 74.8976L85.2244 41.3366C86.2917 39.2612 88.9007 38.4311 90.976 39.4984L92.1026 40.0914C94.178 41.1587 95.0081 43.7677 93.9408 45.843L76.508 79.404Z" fill="#000066"/>
<path d="M92.4583 46.021C91.5096 47.7998 90.0272 47.1476 88.2483 46.1988C86.4695 45.2501 85.0464 44.42 85.9951 42.6411C86.9439 40.8623 89.1378 40.1507 90.9166 41.0995C92.6955 42.0482 93.407 44.2421 92.4583 46.021Z" fill="#000066"/>
<defs>
<clipPath id="clip0_31_1373">
<rect width="124" height="146" fill="white" transform="translate(0.830078)"/>
</clipPath>
</defs>
</svg>
