<svg width="187" height="150" viewBox="0 0 187 150" fill="none" xmlns="http://www.w3.org/2000/svg">
<path d="M56.27 111.627L105.118 97.232V65.9255L56.27 80.3202V111.627Z" fill="#000066"/>
<path d="M82.6996 126.1L56.27 111.705V80.3989L82.6996 94.8723V126.1Z" fill="#3868CA"/>
<path d="M131.469 111.627L105.118 97.232V65.9255L131.469 80.3202V111.627Z" fill="#6699FF"/>
<path d="M82.6997 126.1L131.469 111.705V80.3989L82.6997 94.8723V126.1Z" fill="#000066"/>
<path d="M56.27 80.3202L105.118 65.9255L131.468 80.3989L82.6996 94.8722L56.27 80.3202Z" fill="#6699FF"/>
<path d="M77.0361 87.1635L91.7454 82.8373L99.6901 87.2422L84.9807 91.5685L77.0361 87.1635Z" fill="#000066"/>
<path d="M64.4509 41.6984H55.7197V60.8126H64.4509V41.6984Z" fill="#000066"/>
<path d="M60.0458 74.1061L51 56.4077H69.1703L60.0458 74.1061Z" fill="#000066"/>
<path d="M86.3967 28.4049H77.6655V47.5192H86.3967V28.4049Z" fill="#000066"/>
<path d="M82.0703 60.8125L73.0244 43.1141H91.1947L82.0703 60.8125Z" fill="#000066"/>
<path d="M110.309 24H101.578V43.1142H110.309V24Z" fill="#000066"/>
<path d="M105.904 56.4076L96.8584 38.7092H115.029L105.904 56.4076Z" fill="#000066"/>
<path d="M130.682 37.2935H121.951V56.4077H130.682V37.2935Z" fill="#000066"/>
<path d="M126.356 69.7011L117.231 52.0027H135.402L126.356 69.7011Z" fill="#000066"/>
</svg>
