<svg width="196" height="172" viewBox="0 0 196 172" fill="none" xmlns="http://www.w3.org/2000/svg">
<path fill-rule="evenodd" clip-rule="evenodd" d="M98 142C64.863 142 38 115.137 38 82C38 48.863 64.863 22 98 22C131.137 22 158 48.863 158 82C158 115.137 131.137 142 98 142Z" stroke="#000066" stroke-width="3" stroke-linecap="square" stroke-dasharray="2 6"/>
<path d="M97.79 149C103.313 149 107.79 144.523 107.79 139C107.79 133.477 103.313 129 97.79 129C92.2672 129 87.79 133.477 87.79 139C87.79 144.523 92.2672 149 97.79 149Z" fill="#000066" stroke="#000066" stroke-width="1.5" stroke-linecap="round" stroke-linejoin="round"/>
<path d="M94.79 138V137C94.79 135.34 95.29 134 97.79 134C100.29 134 100.79 135.34 100.79 137V138" fill="#000066"/>
<path d="M94.79 138V137C94.79 135.34 95.29 134 97.79 134C100.29 134 100.79 135.34 100.79 137V138" stroke="white" stroke-width="1.5" stroke-linecap="round" stroke-linejoin="round"/>
<path d="M100.29 144H95.29C93.29 144 92.79 143.5 92.79 141.5V140.5C92.79 138.5 93.29 138 95.29 138H100.29C102.29 138 102.79 138.5 102.79 140.5V141.5C102.79 143.5 102.29 144 100.29 144Z" fill="#000066" stroke="white" stroke-width="1.5" stroke-linecap="round" stroke-linejoin="round"/>
<path d="M97.7899 141.6C98.1213 141.6 98.3899 141.331 98.3899 141C98.3899 140.669 98.1213 140.4 97.7899 140.4C97.4585 140.4 97.1899 140.669 97.1899 141C97.1899 141.331 97.4585 141.6 97.7899 141.6Z" fill="#000066" stroke="white" stroke-width="1.5" stroke-linecap="round" stroke-linejoin="round"/>
<path d="M88.8604 106.816C88.0302 109.425 89.5126 112.152 92.1216 112.982L92.3588 113.042C94.9678 113.872 97.6953 112.39 98.5255 109.781L105.048 90.0946C105.878 87.4856 104.396 84.758 101.787 83.9279L101.55 83.8686C98.9405 83.0384 96.213 84.5208 95.3828 87.1298L88.8604 106.816Z" fill="#000066"/>
<path d="M103.684 86.8928C104.277 87.0706 104.752 87.4264 105.167 87.7822C105.285 88.553 105.285 89.3239 105.048 90.0947L103.862 93.8303C103.151 93.771 102.38 93.4745 101.55 93.178C99.3558 92.4072 97.577 91.6957 98.3478 89.5017C99.0593 87.2485 101.49 86.1219 103.684 86.8928Z" fill="#000066"/>
<path d="M76.4677 90.7469C76.4677 93.3559 78.6023 95.4905 81.2113 95.4905H136.296C138.905 95.4905 141.04 93.3559 141.04 90.7469V60.7436C141.04 58.1346 138.905 56 136.296 56H81.2113C78.6023 56 76.4677 58.1346 76.4677 60.7436V90.7469Z" fill="#6699FF"/>
<path d="M76.4677 83.5723H141.04V90.2133H76.4677V83.5723Z" fill="#000066"/>
<path d="M84.5319 74.856C84.5319 76.5756 85.955 77.9986 87.6745 77.9986H96.5688C98.2883 77.9986 99.7114 76.5756 99.7114 74.856V65.9617C99.7114 64.2422 98.2883 62.8191 96.5688 62.8191H87.6745C85.955 62.8191 84.5319 64.2422 84.5319 65.9617V74.856Z" fill="white"/>
<path d="M106.531 62.8782H134.458V66.5545H106.531V62.8782Z" fill="white"/>
<path d="M106.531 68.6299H134.458V72.3062H106.531V68.6299Z" fill="white"/>
<path d="M106.531 74.3816H134.458V78.0579H106.531V74.3816Z" fill="white"/>
<path d="M75.8156 101.183C76.8829 103.08 79.314 103.733 81.2114 102.665L82.2195 102.072C84.1169 101.005 84.7692 98.574 83.7018 96.6765L76.6457 84.106C75.5784 82.2085 73.1473 81.5563 71.2499 82.6236L70.2418 83.2166C68.3444 84.2839 67.6922 86.715 68.7595 88.6124L75.8156 101.183Z" fill="#000066"/>
<path d="M71.0124 109.247C72.3169 111.204 74.9851 111.737 76.9419 110.433L78.0092 109.721C79.9659 108.417 80.4996 105.749 79.1951 103.792L70.4787 90.9249C69.1742 88.9681 66.5059 88.4345 64.5492 89.739L63.4819 90.4505C61.5252 91.755 60.9915 94.4233 62.296 96.38L71.0124 109.247Z" fill="#000066"/>
<path d="M63.1856 114.465C64.3122 116.362 66.7433 117.015 68.7 115.947L69.7673 115.354C71.6648 114.228 72.317 111.797 71.2497 109.84L63.8971 97.1507C62.7705 95.2532 60.3394 94.601 58.3827 95.6683L57.3153 96.2612C55.4179 97.3878 54.7657 99.8189 55.833 101.776L63.1856 114.465Z" fill="#000066"/>
<path d="M61.2883 115.888C65.6168 125.257 74.3925 122.885 76.5864 121.877L95.8573 112.983C98.0513 111.975 99 109.425 97.992 107.231L91.7067 93.6524C90.6987 91.4585 88.149 90.5098 85.9551 91.5178L59.6873 99.8191C57.4934 100.827 54.6472 99.3448 55.6553 101.479L61.2883 115.888Z" fill="#000066"/>
<path d="M84.532 99.404C85.5993 101.479 88.2083 102.309 90.2836 101.242L91.4103 100.649C93.4856 99.5819 94.3157 96.9729 93.2484 94.8976L75.8156 61.3366C74.7483 59.2612 72.1393 58.4311 70.064 59.4984L68.9374 60.0914C66.8621 61.1587 66.032 63.7677 67.0993 65.843L84.532 99.404Z" fill="#000066"/>
<path d="M68.5817 66.021C69.5305 67.7998 71.0128 67.1476 72.7917 66.1988C74.5705 65.2501 75.9936 64.42 75.0449 62.6411C74.0962 60.8623 71.9023 60.1507 70.1234 61.0995C68.3446 62.0482 67.633 64.2421 68.5817 66.021Z" fill="#000066"/>
</svg>
