<svg width="187" height="150" viewBox="0 0 187 150" fill="none" xmlns="http://www.w3.org/2000/svg">
<g clip-path="url(#clip0_22_1127)">
<path d="M103.576 49.8257L98.4272 50.1046L93.2783 49.8257C93.2783 49.8257 93.1391 52.0572 91.7476 52.7546L94.1133 56.5202L98.288 58.4728L102.463 56.5202L104.828 52.7546C103.576 52.0572 103.576 49.8257 103.576 49.8257Z" fill="#000066"/>
<path d="M103.993 51.7782C103.993 51.7782 102.88 46.7573 103.993 45.781C105.246 44.8047 106.359 40.4812 106.359 40.4812C106.359 40.4812 107.472 39.6444 107.472 37.9707C107.472 36.2971 106.498 36.2971 106.498 36.2971C106.498 36.2971 108.307 27.371 101.628 25.8368C94.9481 24.4421 94.3915 25.6974 92.9999 25C92.9999 25 88.2685 29.1841 88.8251 36.576C88.8251 36.576 87.7118 36.7155 88.1293 38.6681C88.5468 40.4812 89.2426 41.0391 89.6601 41.1785C90.2167 41.318 90.7733 44.3863 92.0258 45.5021C93.2782 46.6179 93.4173 51.2204 92.7216 51.7782H103.993Z" fill="#000066"/>
<path d="M115.822 105.195L114.57 80.2301H98.0098V105.614L115.822 105.195Z" fill="#000066"/>
<path d="M80.7539 104.637L82.1455 80.2301H98.0096V105.614L80.7539 104.637Z" fill="#000066"/>
<path d="M91.7476 52.6151L91.1909 105.474L98.4272 105.614V56.2413L91.7476 52.6151Z" fill="white"/>
<path d="M104.968 52.6151L105.524 105.474L98.4272 105.614V56.2413L104.968 52.6151Z" fill="white"/>
<path d="M70.178 65.7252C76.5793 55.8229 79.6407 56.1018 79.6407 56.1018L91.7475 52.7545L91.4692 80.2301H82.1456C82.1456 80.2301 82.8414 68.3752 82.0064 69.0725C80.0582 70.8856 71.8479 78.9749 71.8479 78.9749C71.8479 78.9749 78.9449 83.4379 81.4498 84.2747C84.0938 85.1116 82.2848 85.3905 88.5469 83.8563C89.6602 83.5774 90.4951 83.4379 91.1909 83.4379C94.5307 83.159 92.4433 85.1116 91.1909 85.1116C89.6602 85.1116 88.1294 86.0879 88.1294 86.9247C88.1294 87.0641 88.2686 87.2036 88.4077 87.3431C89.521 88.3194 91.6084 89.8535 92.5825 89.7141C95.5048 89.4351 94.9482 90.5509 94.3915 91.2482C94.3915 91.2482 94.1132 91.6666 92.165 93.4798C91.8867 93.7587 91.6084 93.8982 91.3301 94.0376C88.6861 95.2929 85.3462 92.6429 83.6763 91.3877C81.7281 89.993 81.7281 91.2482 67.8123 87.7615C53.7572 84.2747 63.7767 75.7671 70.178 65.7252Z" fill="#000066"/>
<path d="M115.405 105.893C116.1 107.566 115.265 109.519 113.595 110.216L79.0841 124.721C77.4142 125.418 75.466 124.582 74.7702 122.908L50.2783 64.7489C49.5825 63.0753 50.4175 61.1227 52.0874 60.4253L86.4595 45.9205C88.1294 45.2231 90.0777 46.0599 90.7735 47.7336L115.405 105.893Z" fill="#6699FF"/>
<path d="M88.4164 51.7988L54.8262 66.0133L75.2883 114.584L108.879 100.369L88.4164 51.7988Z" fill="#000066"/>
<path d="M98.0096 111.053C98.8445 113.006 97.8704 115.377 95.9222 116.213C93.974 117.05 91.6083 116.074 90.7733 114.121C89.9384 112.169 90.9125 109.798 92.8607 108.961C94.8089 108.124 97.1746 109.1 98.0096 111.053Z" fill="white"/>
<path d="M76.301 53.3124C76.4402 53.5914 76.301 54.0098 76.0227 54.1492L65.3075 58.6123C65.0292 58.7517 64.6117 58.6123 64.4726 58.3333C64.3334 58.0544 64.4726 57.636 64.7509 57.4965L75.4661 53.0335C75.7444 52.894 76.1619 53.0335 76.301 53.3124Z" fill="white"/>
<path d="M126.52 65.9707C120.118 56.0683 117.057 56.3473 117.057 56.3473L104.95 53L105.228 80.4756H114.552C114.552 80.4756 113.995 68.6206 114.691 69.318C116.639 71.1311 124.85 79.2204 124.85 79.2204C124.85 79.2204 117.753 83.6834 115.248 84.5202C112.604 85.357 114.413 85.636 108.151 84.1018C107.038 83.8229 106.203 83.6834 105.507 83.6834C102.167 83.4045 104.254 85.357 105.507 85.357C107.038 85.357 108.568 86.3333 108.568 87.1702C108.568 87.3096 108.429 87.4491 108.429 87.5886C107.316 88.5649 105.228 90.099 104.254 89.9596C101.332 89.6806 101.889 90.7964 102.445 91.4937C102.445 91.4937 102.724 91.9121 104.672 93.7252C104.95 94.0042 105.228 94.1437 105.507 94.2831C108.151 95.5384 111.491 92.8884 113.161 91.6332C114.97 90.2385 114.97 91.4937 129.025 88.007C142.94 84.5202 132.921 76.0126 126.52 65.9707Z" fill="#000066"/>
<path d="M106.916 85.809L105.246 81.9038L102.324 83.159L103.298 86.7853L106.916 85.809Z" fill="#6699FF"/>
<path d="M61.6891 92.085C61.6891 92.085 60.5758 96.1297 64.8897 99.7559C64.8897 99.7559 68.3687 98.3612 67.6729 96.5481C66.9771 94.735 66.2813 88.0404 61.6891 92.085Z" fill="#000066"/>
<path d="M92.7218 82.8801C93.0001 82.6012 93.0001 82.1827 92.7218 81.9038L91.3302 80.5091C91.0519 80.2302 90.4952 80.2302 90.2169 80.5091L83.259 87.7616L73.657 78.4171C73.3787 78.1381 72.9613 78.2776 72.5438 78.5565L71.2914 79.9512C71.013 80.2302 70.8739 80.7881 71.1522 81.067L82.7024 92.3641C82.9807 92.643 83.3981 92.5035 83.8156 92.2246L84.5114 91.5272" fill="white"/>
</g>
<defs>
<clipPath id="clip0_22_1127">
<rect width="86" height="100" fill="white" transform="translate(50 25)"/>
</clipPath>
</defs>
</svg>
