<svg width="529" height="605" viewBox="0 0 529 605" fill="none" xmlns="http://www.w3.org/2000/svg">
<path fill-rule="evenodd" clip-rule="evenodd" d="M300.169 0.162984C426.118 0.162984 528.278 102.524 528.278 228.357C528.278 345.877 439.641 442.533 325.587 455.084C311.737 456.551 301.147 468.286 301.147 482.304V647.092C301.147 657.524 292.674 666 282.246 666H183.345C172.917 666 164.444 657.524 164.444 647.092V464.537C164.444 386.626 226.034 322.568 303.916 319.471C352.634 317.515 391.575 277.418 391.575 228.194C391.575 177.828 350.679 136.916 300.332 136.916L297.236 137.079C279.313 137.568 261.879 139.687 244.934 142.947C224.404 146.859 205.178 141.969 189.047 128.767C172.917 115.564 164.444 97.4713 164.444 76.6079V74.815C164.444 42.2159 187.092 14.6696 219.19 8.47576C243.142 3.91189 267.745 0.977962 293 0.162984L300.332 0L300.169 0.162984Z" fill="#6699FF" fill-opacity="0.1"/>
<path fill-rule="evenodd" clip-rule="evenodd" d="M298.616 155.537H299.757C339.996 155.537 372.741 188.286 372.741 228.53C372.741 268.122 341.136 300.383 301.874 301.523C215.206 303.967 145.805 375.005 145.805 462.01V647.1C145.805 657.528 137.334 666 126.908 666H18.8977C8.47138 666 0 657.528 0 647.1V462.01C0 296.31 131.958 160.751 297.476 155.537H298.779H298.616Z" fill="#000066" fill-opacity="0.1"/>
</svg>
