<svg width="181" height="208" viewBox="0 0 181 208" fill="none" xmlns="http://www.w3.org/2000/svg">
<path d="M116.06 9.67692L112.128 5.74501C112.758 5.11109 113.11 4.25287 113.108 3.35917C113.105 2.46547 112.747 1.60948 112.113 0.979514C111.479 0.34955 110.621 -0.00278498 109.727 1.65802e-05C108.834 0.00281814 107.978 0.360528 107.348 0.994454L80.5593 27.7948C77.7772 26.2282 74.52 25.7277 71.3959 26.3867C68.2718 27.0456 65.4943 28.819 63.5819 31.3757C61.6695 33.9325 60.753 37.0978 61.0034 40.2808C61.2538 43.4638 62.654 46.4469 64.9427 48.6732C67.2313 50.8994 70.252 52.2167 73.4407 52.379C76.6294 52.5414 79.7682 51.5377 82.2711 49.5554C84.774 47.5731 86.47 44.7476 87.0423 41.6065C87.6147 38.4654 87.0244 35.2233 85.3815 32.4856L99.6631 18.204L103.589 22.13C103.901 22.4439 104.272 22.6932 104.68 22.8639C105.088 23.0345 105.526 23.123 105.969 23.1244C106.411 23.1258 106.85 23.04 107.259 22.8719C107.668 22.7039 108.041 22.4568 108.355 22.1449C108.668 21.833 108.918 21.4623 109.088 21.054C109.259 20.6457 109.348 20.2078 109.349 19.7653C109.35 19.3227 109.265 18.8843 109.097 18.4749C108.928 18.0655 108.681 17.6933 108.369 17.3794L104.414 13.4535L107.372 10.4657L111.303 14.3976C111.937 15.0315 112.797 15.3877 113.694 15.3877C114.59 15.3877 115.45 15.0315 116.084 14.3976C116.718 13.7637 117.074 12.9039 117.074 12.0074C117.074 11.1109 116.718 10.2511 116.084 9.61717L116.06 9.67692ZM79.0534 44.1379C78.0835 45.106 76.8484 45.7649 75.5042 46.0314C74.1599 46.2978 72.7668 46.1598 71.501 45.6348C70.2351 45.1097 69.1533 44.2213 68.3922 43.0817C67.6311 41.942 67.2249 40.6024 67.2249 39.232C67.2249 37.8616 67.6311 36.5219 68.3922 35.3823C69.1533 34.2427 70.2351 33.3542 71.501 32.8292C72.7668 32.3042 74.1599 32.1662 75.5042 32.4326C76.8484 32.699 78.0835 33.3579 79.0534 34.3261C80.3532 35.6279 81.0833 37.3924 81.0833 39.232C81.0833 41.0716 80.3532 42.8361 79.0534 44.1379Z" fill="#5781FF"/>
<path d="M115.439 29.3962C113.412 27.377 110.782 26.0739 107.948 25.6846C105.114 25.2953 102.231 25.8411 99.7349 27.2391L73.5022 0.994453C73.1903 0.680565 72.8196 0.431188 72.4113 0.260562C72.003 0.0899366 71.5651 0.00140376 71.1225 1.65583e-05C70.68 -0.00137064 70.2416 0.0844167 69.8322 0.252479C69.4228 0.420542 69.0506 0.667587 68.7367 0.979514C68.4228 1.29144 68.1734 1.66213 68.0028 2.07044C67.8322 2.47874 67.7437 2.91665 67.7423 3.35917C67.7409 3.80169 67.8267 4.24014 67.9947 4.64951C68.1628 5.05887 68.4098 5.43112 68.7218 5.74501L64.7899 9.67692C64.476 9.99081 64.227 10.3634 64.0571 10.7736C63.8872 11.1837 63.7998 11.6232 63.7998 12.0671C63.7998 12.511 63.8872 12.9506 64.0571 13.3607C64.227 13.7708 64.476 14.1435 64.7899 14.4574C65.1037 14.7712 65.4764 15.0202 65.8865 15.1901C66.2966 15.36 66.7362 15.4474 67.1801 15.4474C67.624 15.4474 68.0635 15.36 68.4737 15.1901C68.8838 15.0202 69.2564 14.7712 69.5703 14.4574L73.4962 10.5255L76.4541 13.5132L72.5282 17.4451C71.8982 18.0791 71.5459 18.9373 71.5487 19.831C71.5515 20.7247 71.9092 21.5807 72.5431 22.2106C73.1771 22.8406 74.0353 23.1929 74.929 23.1901C75.8227 23.1873 76.6787 22.8296 77.3086 22.1957L81.2107 18.2339L94.9544 31.9478C93.6931 34.0538 93.0488 36.4718 93.0947 38.9262C93.1407 41.3806 93.8751 43.7727 95.2144 45.83C96.5536 47.8873 98.4438 49.5271 100.67 50.5625C102.895 51.5979 105.367 51.9873 107.804 51.6863C110.24 51.3853 112.543 50.4061 114.449 48.8601C116.356 47.3141 117.791 45.2636 118.589 42.9422C119.387 40.6208 119.517 38.1219 118.965 35.7301C118.412 33.3383 117.198 31.1499 115.463 29.4142L115.439 29.3962ZM111.088 43.5702C110.119 44.5421 108.883 45.2044 107.536 45.4734C106.19 45.7424 104.795 45.606 103.526 45.0813C102.257 44.5567 101.173 43.6675 100.41 42.5263C99.6468 41.3851 99.2395 40.0431 99.2395 38.6703C99.2395 37.2975 99.6468 35.9555 100.41 34.8143C101.173 33.673 102.257 32.7838 103.526 32.2592C104.795 31.7346 106.19 31.5982 107.536 31.8671C108.883 32.1361 110.119 32.7985 111.088 33.7703C112.385 35.0717 113.112 36.8336 113.112 38.6703C113.112 40.507 112.385 42.2689 111.088 43.5702Z" fill="#5781FF"/>
<path d="M122.442 65.6917C129.862 65.6476 137.27 65.1066 144.617 64.0723C144.823 64.0441 145.032 64.0603 145.23 64.1198C145.428 64.1793 145.612 64.2808 145.768 64.4174C145.924 64.5539 146.048 64.7224 146.133 64.9113C146.218 65.1002 146.262 65.3053 146.261 65.5124V119.221C146.261 129.224 140.685 144.706 130.921 158.994C121.157 173.281 107.204 186.356 90.4729 191.525H90.4072C73.6757 186.332 59.7287 173.258 49.9647 158.976C40.2006 144.694 34.6016 129.23 34.6016 119.221V65.5124C34.6013 65.305 34.6456 65.0999 34.7313 64.9109C34.8171 64.722 34.9423 64.5536 35.0986 64.4172C35.2548 64.2807 35.4385 64.1793 35.6373 64.1199C35.8361 64.0604 36.0453 64.0442 36.2508 64.0723C43.5961 65.1067 51.0025 65.6477 58.4201 65.6917C69.7079 65.5961 90.4132 55.2405 90.4132 55.2405C90.4132 55.2405 111.148 65.5961 122.442 65.6917Z" fill="#000066"/>
<path d="M90.4372 177.661C79.6812 173.192 69.2838 164.079 60.7626 151.614C51.7993 138.468 47.7061 125.626 47.7061 119.227V79.9494C47.7057 79.7517 47.7458 79.556 47.824 79.3744C47.9023 79.1929 48.0169 79.0293 48.1608 78.8938C48.3047 78.7583 48.4749 78.6537 48.6608 78.5865C48.8467 78.5194 49.0445 78.491 49.2418 78.5033C51.9607 78.6706 54.817 78.7782 57.6075 78.7782H58.5337C68.6563 78.6945 82.436 73.2806 90.4133 69.7013C98.4205 73.2866 112.176 78.6646 122.299 78.7782H123.225C126.04 78.7782 128.89 78.6706 131.591 78.5033C131.788 78.491 131.986 78.5194 132.172 78.5865C132.358 78.6537 132.528 78.7583 132.672 78.8938C132.816 79.0293 132.93 79.1929 133.009 79.3744C133.087 79.556 133.127 79.7517 133.127 79.9494V119.221C133.127 125.62 129.039 138.486 120.064 151.608C111.597 164.079 101.181 173.192 90.4372 177.661Z" fill="#6699FF"/>
<path d="M90.4372 177.661C79.6812 173.192 69.2838 164.079 60.7626 151.614C51.7993 138.468 47.7061 125.626 47.7061 119.227V79.9494C47.7057 79.7517 47.7458 79.556 47.824 79.3744C47.9023 79.1929 48.0169 79.0293 48.1608 78.8938C48.3047 78.7583 48.4749 78.6537 48.6608 78.5865C48.8467 78.5194 49.0445 78.491 49.2418 78.5033C51.9607 78.6706 54.817 78.7782 57.6075 78.7782H58.5337C68.6563 78.6945 82.436 73.2806 90.4133 69.7013C98.4205 73.2866 112.176 78.6646 122.299 78.7782H123.225C126.04 78.7782 128.89 78.6706 131.591 78.5033C131.788 78.491 131.986 78.5194 132.172 78.5865C132.358 78.6537 132.528 78.7583 132.672 78.8938C132.816 79.0293 132.93 79.1929 133.009 79.3744C133.087 79.556 133.127 79.7517 133.127 79.9494V119.221C133.127 125.62 129.039 138.486 120.064 151.608C111.597 164.079 101.181 173.192 90.4372 177.661Z" stroke="white" stroke-width="2.71" stroke-miterlimit="10"/>
<path d="M124.892 36.1068C125.656 36.4294 126.421 36.7641 127.18 37.1106" stroke="#000066" stroke-width="2.79" stroke-miterlimit="10" stroke-linecap="round"/>
<path d="M131.621 39.2977C149.206 48.5512 163.163 63.4575 171.24 81.6132C179.318 99.7688 181.045 120.116 176.144 139.373C171.244 158.631 160 175.677 144.226 187.763C128.453 199.848 109.068 206.27 89.1988 205.991C69.3293 205.713 50.1327 198.751 34.7039 186.228C19.2752 173.705 8.51364 156.35 4.15437 136.963C-0.204912 117.576 2.09218 97.285 10.6752 79.3628C19.2583 61.4406 33.6271 46.9313 51.465 38.1743" stroke="#000066" stroke-width="2.79" stroke-miterlimit="10" stroke-linecap="round" stroke-dasharray="8.29 8.29"/>
<path d="M53.7236 37.1106C54.4825 36.7641 55.2474 36.4294 56.0123 36.1068" stroke="#000066" stroke-width="2.79" stroke-miterlimit="10" stroke-linecap="round"/>
<path d="M87.4731 197.417C84.356 196.513 81.3134 195.371 78.3723 193.999C75.4406 192.597 72.597 191.019 69.8572 189.272C64.4257 185.667 59.4061 181.477 54.8885 176.777C45.8348 167.348 38.5737 156.349 33.4601 144.318C32.1965 141.305 31.0935 138.227 30.1557 135.098C29.2005 131.957 28.5129 128.74 28.1001 125.483L27.879 123.021C27.879 122.196 27.8252 121.36 27.8252 120.547V115.689C27.8252 112.456 27.873 109.218 27.9148 105.979L28.1419 86.5583C28.2734 80.0808 28.351 73.6093 28.5363 67.1318C28.7215 73.6093 28.7992 80.0808 28.9307 86.5583L29.1577 105.979C29.1976 109.218 29.2275 112.454 29.2474 115.689V120.547C29.2474 121.354 29.3071 122.131 29.331 122.937L29.57 125.328C30.4006 131.65 32.4323 137.805 34.9002 143.72C37.4133 149.639 40.4342 155.329 43.9293 160.727L45.2499 162.747L46.6362 164.719C47.5385 166.051 48.5364 167.312 49.4985 168.603C51.4884 171.124 53.532 173.616 55.731 175.964C60.0945 180.705 64.9592 184.959 70.2396 188.651C72.8939 190.482 75.6556 192.152 78.5098 193.652C81.4115 195.103 84.4057 196.36 87.4731 197.417Z" fill="#000066"/>
<path d="M152.32 67.1259C152.499 73.6033 152.576 80.0749 152.714 86.5524L152.935 105.973L153.025 115.683L153.055 120.541C153.055 121.354 153.013 122.191 152.995 123.015L152.78 125.477C152.364 128.734 151.676 131.95 150.724 135.092C149.786 138.223 148.682 141.303 147.42 144.318C142.315 156.347 135.067 167.347 126.027 176.783C121.508 181.479 116.488 185.667 111.058 189.272C108.318 191.021 105.472 192.6 102.537 193.999C99.5962 195.371 96.5536 196.513 93.4365 197.417C96.487 196.348 99.4633 195.078 102.346 193.616C105.202 192.119 107.964 190.448 110.616 188.615C115.899 184.924 120.764 180.668 125.125 175.923C127.33 173.58 129.367 171.088 131.363 168.567C132.319 167.276 133.323 166.015 134.226 164.683L135.606 162.711L136.927 160.691C140.424 155.295 143.445 149.605 145.956 143.685C148.429 137.769 150.461 131.614 151.292 125.292L151.531 122.902C151.531 122.107 151.602 121.33 151.614 120.511L151.644 115.653L151.728 105.943L151.955 86.5225C152.057 80.0749 152.134 73.6033 152.32 67.1259Z" fill="#000066"/>
<path d="M58.4082 61.2579C61.2203 60.9417 63.9907 60.3267 66.6724 59.4234C69.3674 58.5808 72.0145 57.5889 74.6438 56.5491C77.273 55.5094 79.8724 54.4039 82.412 53.2267C84.9516 52.0495 87.5151 50.8365 90.0487 49.5577L90.4073 49.3725L90.7718 49.5577C93.3054 50.8604 95.8211 52.0675 98.4085 53.2267C100.996 54.386 103.589 55.4855 106.213 56.5491C108.836 57.6128 111.483 58.5748 114.178 59.4174C116.87 60.3219 119.65 60.9389 122.472 61.2579C119.613 61.2703 116.764 60.9087 113.999 60.1823C111.224 59.5045 108.485 58.6848 105.794 57.7263C103.099 56.8001 100.452 55.7305 97.8229 54.625C95.1937 53.5195 92.6063 52.2766 90.0547 51.0038H90.7778C88.2501 52.2706 85.6448 53.5135 83.0095 54.625C80.3743 55.7365 77.7391 56.8001 75.0382 57.7323C72.3485 58.6869 69.6122 59.5046 66.8397 60.1823C64.0872 60.9019 61.2533 61.2634 58.4082 61.2579Z" fill="#6699FF"/>
<path d="M37.3501 169.517C34.6148 166.065 32.1495 162.407 29.9763 158.576C27.7818 154.745 25.857 150.765 24.2159 146.666C23.4092 144.611 22.6622 142.531 22.0109 140.422C21.7061 139.358 21.3596 138.307 21.1026 137.231C20.8457 136.155 20.5409 135.092 20.3437 134.004C19.3816 129.692 19.0157 125.269 19.2562 120.858C19.6501 125.206 20.426 129.511 21.5747 133.723C22.1424 135.821 22.7698 137.906 23.4689 139.962C24.1681 142.017 24.8971 144.067 25.7217 146.081C27.3112 150.132 29.1397 154.088 31.0997 157.99C33.0597 161.892 35.1571 165.704 37.3501 169.517Z" fill="#000066"/>
<path d="M161.624 120.846C161.86 125.257 161.492 129.68 160.531 133.992C159.604 138.315 158.311 142.551 156.665 146.654C156.27 147.688 155.81 148.692 155.374 149.708C154.938 150.724 154.472 151.722 153.994 152.696C153.516 153.67 153.014 154.674 152.5 155.648L151.723 157.141L150.898 158.576C148.727 162.408 146.262 166.066 143.524 169.517C145.711 165.704 147.827 161.88 149.787 157.978C150.283 157.01 150.755 156.024 151.227 155.044C151.699 154.064 152.171 153.078 152.601 152.056C153.031 151.034 153.51 150.078 153.916 149.069C154.322 148.059 154.776 147.067 155.153 146.045C156.782 142.013 158.167 137.886 159.3 133.687C160.449 129.483 161.227 125.186 161.624 120.846Z" fill="#000066"/>
<path d="M128.304 86.9169H52.5817C48.6247 86.9169 45.417 90.1246 45.417 94.0815V139.376C45.417 143.333 48.6247 146.541 52.5817 146.541H128.304C132.261 146.541 135.468 143.333 135.468 139.376V94.0815C135.468 90.1246 132.261 86.9169 128.304 86.9169Z" fill="white"/>
<path d="M135.468 99.842H45.417V112.773H135.468V99.842Z" fill="#6699FF"/>
<path d="M116.64 135.14C117.501 135.696 118.497 136.009 119.522 136.047C120.547 136.085 121.563 135.846 122.464 135.355C123.364 134.864 124.116 134.14 124.64 133.258C125.164 132.376 125.44 131.37 125.44 130.344C125.44 129.319 125.164 128.312 124.64 127.43C124.116 126.548 123.364 125.824 122.464 125.333C121.563 124.842 120.547 124.603 119.522 124.641C118.497 124.679 117.501 124.993 116.64 125.549" stroke="#6699FF" stroke-width="2.09" stroke-miterlimit="10"/>
<path d="M113.562 136.048C116.714 136.048 119.269 133.493 119.269 130.341C119.269 127.189 116.714 124.635 113.562 124.635C110.41 124.635 107.855 127.189 107.855 130.341C107.855 133.493 110.41 136.048 113.562 136.048Z" stroke="#6699FF" stroke-width="2.09" stroke-miterlimit="10"/>
<path d="M89.691 129.182H57.5724C57.2941 129.182 57.0185 129.127 56.7615 129.02C56.5045 128.914 56.271 128.757 56.0745 128.56C55.878 128.363 55.7223 128.129 55.6163 127.872C55.5104 127.615 55.4563 127.339 55.457 127.061C55.457 126.783 55.5118 126.508 55.6181 126.251C55.7244 125.994 55.8802 125.761 56.0766 125.565C56.273 125.368 56.5062 125.213 56.7629 125.106C57.0195 125 57.2946 124.945 57.5724 124.945H89.691C89.9687 124.945 90.2438 125 90.5005 125.106C90.7571 125.213 90.9903 125.368 91.1867 125.565C91.3832 125.761 91.539 125.994 91.6453 126.251C91.7516 126.508 91.8063 126.783 91.8063 127.061C91.8071 127.339 91.7529 127.615 91.647 127.872C91.541 128.129 91.3854 128.363 91.1889 128.56C90.9923 128.757 90.7589 128.914 90.5018 129.02C90.2448 129.127 89.9692 129.182 89.691 129.182Z" fill="#000066"/>
<path d="M69.6669 135.743H57.5724C57.2941 135.743 57.0185 135.688 56.7615 135.581C56.5045 135.475 56.271 135.318 56.0745 135.121C55.878 134.924 55.7223 134.69 55.6163 134.433C55.5104 134.176 55.4563 133.9 55.457 133.622C55.4563 133.344 55.5104 133.068 55.6165 132.811C55.7225 132.554 55.8783 132.321 56.0749 132.124C56.2714 131.928 56.5049 131.772 56.7619 131.666C57.0189 131.56 57.2944 131.506 57.5724 131.506H69.6669C69.9452 131.506 70.2209 131.56 70.4782 131.666C70.7356 131.772 70.9695 131.927 71.1665 132.124C71.3636 132.32 71.52 132.554 71.6266 132.811C71.7333 133.068 71.7882 133.343 71.7882 133.622C71.7882 133.9 71.7333 134.176 71.6267 134.434C71.5201 134.691 71.3639 134.925 71.1669 135.122C70.9699 135.319 70.7361 135.475 70.4787 135.582C70.2213 135.688 69.9455 135.743 69.6669 135.743Z" fill="#000066"/>
<path d="M128.304 86.9169H52.5817C48.6247 86.9169 45.417 90.1246 45.417 94.0815V139.376C45.417 143.333 48.6247 146.541 52.5817 146.541H128.304C132.261 146.541 135.468 143.333 135.468 139.376V94.0815C135.468 90.1246 132.261 86.9169 128.304 86.9169Z" stroke="#000066" stroke-width="2.71" stroke-miterlimit="10"/>
</svg>
