<svg width="218" height="191" viewBox="0 0 218 191" fill="none" xmlns="http://www.w3.org/2000/svg">
<path d="M129.876 108.089C129.876 108.089 114.646 105.029 112.096 105.261C109.547 105.493 100.738 109.457 100.645 110.198C100.553 110.917 100.993 111.496 102.523 111.566C104.076 111.635 109.129 110.847 108.805 111.473C108.503 112.099 93.9695 115.344 93.8768 118.288C93.784 121.232 101.943 126.494 108.712 126.679C115.481 126.865 128.577 118.659 129.713 118.543C139.356 117.431 129.876 108.089 129.876 108.089Z" fill="#ED975D"/>
<path d="M213.092 74.2228C207.135 81.6404 202.174 87.3891 199.555 89.4753C197.469 91.1443 194.849 92.8364 191.836 94.5286C170.116 106.791 128.345 119.215 128.345 119.215C128.345 119.215 128.322 119.192 128.253 119.146C127.72 118.775 124.845 116.55 123.037 112.887C121.438 109.665 121.785 107.672 122.249 106.629C122.527 106.003 122.875 105.701 122.875 105.701C122.875 105.701 172.944 73.7128 176.931 70.3749C179.203 68.4741 187.432 49.3505 194.131 33.1244C195.058 34.492 195.962 35.8597 196.843 37.2505C203.889 48.4233 209.314 60.871 213.092 74.2228Z" fill="#5781FF"/>
<path d="M213.439 130.875C213.115 131.779 212.79 132.66 212.443 133.541C210.82 137.69 208.85 141.7 206.601 145.525C205.257 147.797 203.797 150.022 202.243 152.178C198.743 157.022 194.756 161.519 190.306 165.599C190.329 165.274 190.352 164.927 190.375 164.602C190.422 164.092 190.445 163.582 190.491 163.072C190.561 161.936 190.653 160.847 190.723 159.757C190.746 159.34 190.792 158.923 190.816 158.506C191.001 155.817 191.187 153.267 191.349 150.879C191.395 150.184 191.441 149.512 191.488 148.863C191.511 148.677 191.511 148.469 191.534 148.283C191.557 147.889 191.581 147.518 191.627 147.124C191.65 146.777 191.673 146.452 191.696 146.104C191.696 146.058 191.696 146.035 191.696 146.012C191.72 145.664 191.743 145.339 191.766 144.992C191.812 144.435 191.836 143.879 191.882 143.323C191.905 142.975 191.928 142.651 191.951 142.326C191.998 141.816 192.021 141.329 192.067 140.842C192.067 140.727 192.091 140.611 192.091 140.495C192.114 140.263 192.114 140.031 192.137 139.799C192.137 139.683 192.16 139.568 192.16 139.452C192.16 139.428 192.16 139.428 192.16 139.405C192.183 138.965 192.23 138.548 192.253 138.13C192.253 138.107 192.253 138.084 192.253 138.061C192.276 137.76 192.299 137.458 192.322 137.18C192.322 137.087 192.346 136.995 192.346 136.902C192.369 136.74 192.369 136.577 192.369 136.415C192.369 136.276 192.392 136.16 192.392 136.021C192.461 135.117 192.508 134.306 192.554 133.587C192.554 133.471 192.577 133.378 192.577 133.286C192.577 133.17 192.6 133.077 192.6 132.984C192.624 132.799 192.624 132.614 192.647 132.428C192.74 131.13 192.809 130.18 192.832 129.646C192.832 129.6 192.832 129.531 192.855 129.484C192.855 129.461 192.855 129.461 192.855 129.438C192.855 129.391 192.855 129.345 192.855 129.299C192.879 129.136 192.879 129.067 192.879 129.067L213.439 130.875Z" fill="#6BB7BF"/>
<path d="M213.439 130.875C213.115 131.779 212.79 132.66 212.443 133.541C210.82 137.69 208.85 141.7 206.601 145.525C205.257 147.797 203.797 150.022 202.243 152.178C198.743 157.022 194.756 161.519 190.306 165.599C190.329 165.274 190.352 164.927 190.375 164.602C190.422 164.092 190.445 163.582 190.491 163.072C190.561 161.936 190.653 160.847 190.723 159.757C190.746 159.34 190.792 158.923 190.816 158.506C191.001 155.817 191.187 153.267 191.349 150.879C191.395 150.184 191.441 149.512 191.488 148.863C191.511 148.677 191.511 148.469 191.534 148.283C191.557 147.889 191.581 147.518 191.627 147.124C191.65 146.777 191.673 146.452 191.696 146.104C191.696 146.058 191.696 146.035 191.696 146.012C191.72 145.664 191.743 145.339 191.766 144.992C191.812 144.435 191.836 143.879 191.882 143.323C191.905 142.975 191.928 142.651 191.951 142.326C191.998 141.816 192.021 141.329 192.067 140.842C192.067 140.727 192.091 140.611 192.091 140.495C192.114 140.263 192.114 140.031 192.137 139.799C192.137 139.683 192.16 139.568 192.16 139.452C192.16 139.428 192.16 139.428 192.16 139.405C192.183 138.965 192.23 138.548 192.253 138.13C192.253 138.107 192.253 138.084 192.253 138.061C192.276 137.76 192.299 137.458 192.322 137.18C192.322 137.087 192.346 136.995 192.346 136.902C192.369 136.74 192.369 136.577 192.369 136.415C192.369 136.276 192.392 136.16 192.392 136.021C192.461 135.117 192.508 134.306 192.554 133.587C192.554 133.471 192.577 133.378 192.577 133.286C192.577 133.17 192.6 133.077 192.6 132.984C192.624 132.799 192.624 132.614 192.647 132.428C192.74 131.13 192.809 130.18 192.832 129.646C192.832 129.6 192.832 129.531 192.855 129.484C192.855 129.461 192.855 129.461 192.855 129.438C192.855 129.391 192.855 129.345 192.855 129.299C192.879 129.136 192.879 129.067 192.879 129.067L213.439 130.875Z" fill="#000066"/>
<path d="M216.732 90.1012C219.282 104.311 217.891 118.195 213.417 130.875C213.092 131.779 212.768 132.66 212.42 133.541C210.798 137.69 208.827 141.7 206.579 145.525C205.234 147.797 203.774 150.022 202.221 152.178C197.747 151.528 194.131 150.995 191.883 150.949C191.697 150.949 191.512 150.926 191.326 150.879C190.816 150.764 190.376 150.509 190.005 150.161C189.565 149.767 189.982 129.16 191.349 103.198C191.396 102.201 191.419 101.089 191.558 100.092V99.7209C191.651 98.0056 191.72 96.2671 191.836 94.5286C191.883 93.5318 191.952 92.5119 192.022 91.492C192.439 84.5611 192.972 77.4912 193.528 70.4212C193.575 69.749 193.644 69.0768 193.691 68.3814C194.595 57.5099 195.638 46.8239 196.866 37.2505C203.89 48.4001 209.314 60.8478 213.092 74.2228C214.553 79.3919 215.758 84.7002 216.732 90.1012Z" fill="#6699FF"/>
<path d="M29.8311 128.464C29.5762 121.186 29.2053 112.54 28.7185 103.175C28.6721 102.178 28.6258 101.065 28.5099 100.069L28.4867 99.6977C28.4403 98.8633 28.4172 98.0288 28.3708 97.1943C28.3476 96.7307 28.3244 96.2439 28.3013 95.7803C28.2317 94.3663 28.139 92.9291 28.0463 91.4688C27.629 84.5379 27.0959 77.468 26.5396 70.3981C26.47 69.7258 26.4237 69.0536 26.3773 68.3582C25.5428 58.2749 24.5924 48.3769 23.4798 39.3599C23.4798 39.3135 23.4566 39.2671 23.4566 39.1976C23.3175 38.0618 23.1784 36.9491 23.0162 35.8365C22.7148 33.6112 22.4135 31.4554 22.089 29.3692C21.6486 30.0878 21.2313 30.8064 20.8141 31.525C18.3338 35.7669 16.0158 40.2175 13.86 44.8767C9.47898 54.3342 5.74698 64.5798 2.64084 75.3354C2.61766 75.405 2.59448 75.4745 2.5713 75.544C1.55138 79.0674 0.855973 82.5444 0.438731 85.9519C0.36919 86.4387 0.32283 86.9255 0.27647 87.4123C-1.18388 102.966 3.22035 117.477 11.6116 130.435C11.8897 130.875 12.1911 131.339 12.4924 131.779C13.0719 132.66 13.6978 133.541 14.3236 134.398C14.7641 135.001 15.2277 135.627 15.6913 136.23C15.784 136.369 15.8767 136.485 15.9926 136.601C19.1915 140.75 22.8076 144.714 26.7482 148.469C27.3972 149.071 28.0231 149.674 28.6953 150.277C28.8576 150.416 29.0198 150.578 29.1821 150.717C29.5066 150.578 29.808 150.393 30.0629 150.138C30.3411 149.906 30.2716 141.376 29.8311 128.464Z" fill="#000066"/>
<path d="M29.8311 128.464C18.1484 116.225 8.4127 101.204 0.461914 86.0215C0.879156 82.5908 1.57456 79.1138 2.59449 75.6136C2.61767 75.544 2.64085 75.4745 2.66403 75.4049C5.77016 64.6262 9.50216 54.4038 13.8832 44.9463C21.0459 55.1919 26.076 64.6262 26.3773 68.4277C26.4237 69.1 26.4932 69.7722 26.5396 70.4676C27.0959 77.5375 27.629 84.6075 28.0463 91.5383C28.139 92.9755 28.2085 94.4127 28.3013 95.8498C28.3244 96.3134 28.3476 96.8002 28.3708 97.2638C28.4172 98.0983 28.4635 98.9328 28.4867 99.7673L28.5099 100.138C28.6258 101.135 28.6721 102.224 28.7185 103.244C29.2053 112.54 29.5762 121.209 29.8311 128.464Z" fill="black"/>
<path d="M82.8435 108.993C82.8435 108.993 98.3742 109.016 100.831 109.758C103.288 110.5 111.123 116.132 111.077 116.851C111.031 117.593 110.497 118.056 108.968 117.825C107.438 117.593 102.639 115.808 102.825 116.48C103.01 117.152 116.594 123.226 116.107 126.123C115.597 129.021 106.58 132.567 99.9041 131.408C93.2282 130.249 82.0322 119.609 80.9428 119.262C71.7171 116.272 82.8435 108.993 82.8435 108.993Z" fill="#FFB27D"/>
<path d="M85.6711 114.301C84.2571 116.735 82.3796 118.427 81.1742 119.378C80.4324 119.957 79.9456 120.235 79.9456 120.235C79.9456 120.235 50.0433 109.039 28.3699 97.2174C21.2072 93.3 14.9486 89.3362 10.9616 85.6506C9.15352 84.0048 6.23283 80.2959 2.66309 75.3818C5.76922 64.603 9.50122 54.3806 13.8823 44.9231C16.038 40.287 18.356 35.8133 20.8363 31.5713C21.694 34.1443 22.598 36.7868 23.4788 39.383C28.2308 53.2447 33.0986 66.5038 34.8371 68.1727C38.5923 71.7657 86.3434 107.139 86.3434 107.139C86.3434 107.139 86.9692 107.741 87.1315 109.016C87.2706 110.198 87.0388 111.937 85.6711 114.301Z" fill="#000066"/>
<path d="M144.456 4.42741H62.9316V78.372H144.456V4.42741Z" fill="#DDEBFD"/>
<path d="M144.456 0H62.9316V4.4274H144.456V0Z" fill="#000066"/>
<path d="M65.668 1.32126C65.1812 1.32126 64.7871 1.71532 64.7871 2.2021C64.7871 2.68889 65.1812 3.08295 65.668 3.08295C66.1547 3.08295 66.5488 2.68889 66.5488 2.2021C66.572 1.71532 66.1779 1.32126 65.668 1.32126Z" fill="#DDEBFD"/>
<path d="M69.1455 1.32126C68.6587 1.32126 68.2646 1.71532 68.2646 2.2021C68.2646 2.68889 68.6587 3.08295 69.1455 3.08295C69.6323 3.08295 70.0263 2.68889 70.0263 2.2021C70.0495 1.71532 69.6323 1.32126 69.1455 1.32126Z" fill="#DDEBFD"/>
<path d="M72.6445 1.32126C72.1577 1.32126 71.7637 1.71532 71.7637 2.2021C71.7637 2.68889 72.1577 3.08295 72.6445 3.08295C73.1313 3.08295 73.5254 2.68889 73.5254 2.2021C73.5485 1.71532 73.1313 1.32126 72.6445 1.32126Z" fill="#DDEBFD"/>
<path d="M87.4337 14.0703H118.588C119.399 14.0703 120.071 13.3981 120.071 12.5868C120.071 11.7755 119.399 11.1033 118.588 11.1033H87.4337C86.6224 11.1033 85.9502 11.7755 85.9502 12.5868C85.9502 13.3981 86.6224 14.0703 87.4337 14.0703Z" fill="#5781FF"/>
<path d="M80.3175 19.1468H125.658C126.469 19.1468 127.141 18.4746 127.141 17.6632C127.141 16.8519 126.469 16.1797 125.658 16.1797H80.3175C79.5062 16.1797 78.834 16.8519 78.834 17.6632C78.834 18.4746 79.5062 19.1468 80.3175 19.1468Z" fill="#5781FF"/>
<path d="M76.4928 32.4985H131.152C131.754 32.4985 132.241 32.0118 132.241 31.4091C132.241 30.8064 131.754 30.3196 131.152 30.3196H76.4928C75.8901 30.3196 75.4033 30.8064 75.4033 31.4091C75.4033 32.0118 75.8901 32.4985 76.4928 32.4985Z" fill="#5781FF"/>
<path d="M131.152 35.3265H76.4928C75.8901 35.3265 75.4033 35.8133 75.4033 36.4159C75.4033 37.0186 75.8901 37.5054 76.4928 37.5054H131.152C131.754 37.5054 132.241 37.0186 132.241 36.4159C132.218 35.8133 131.731 35.3265 131.152 35.3265Z" fill="#5781FF"/>
<path d="M131.152 40.3334H76.4928C75.8901 40.3334 75.4033 40.8202 75.4033 41.4229C75.4033 42.0256 75.8901 42.5123 76.4928 42.5123H131.152C131.754 42.5123 132.241 42.0256 132.241 41.4229C132.218 40.8202 131.731 40.3334 131.152 40.3334Z" fill="#5781FF"/>
<path d="M81.9865 58.5067H76.4928C75.8901 58.5067 75.4033 58.9934 75.4033 59.5961C75.4033 60.1988 75.8901 60.6856 76.4928 60.6856H81.9865C82.5892 60.6856 83.0759 60.1988 83.0759 59.5961C83.0759 58.9934 82.5892 58.5067 81.9865 58.5067Z" fill="#6699FF"/>
<path d="M91.1427 58.5067H85.649C85.0463 58.5067 84.5596 58.9934 84.5596 59.5961C84.5596 60.1988 85.0463 60.6856 85.649 60.6856H91.1427C91.7454 60.6856 92.2322 60.1988 92.2322 59.5961C92.2322 58.9934 91.7454 58.5067 91.1427 58.5067Z" fill="#6699FF"/>
<path d="M121.972 58.5067H116.478C115.875 58.5067 115.389 58.9934 115.389 59.5961C115.389 60.1988 115.875 60.6856 116.478 60.6856H121.972C122.575 60.6856 123.061 60.1988 123.061 59.5961C123.061 58.9934 122.575 58.5067 121.972 58.5067Z" fill="#6699FF"/>
<path d="M131.152 58.5067H125.658C125.055 58.5067 124.568 58.9934 124.568 59.5961C124.568 60.1988 125.055 60.6856 125.658 60.6856H131.152C131.754 60.6856 132.241 60.1988 132.241 59.5961C132.218 58.9934 131.731 58.5067 131.152 58.5067Z" fill="#6699FF"/>
<path d="M83.4935 62.0069C80.3179 62.0069 77.7217 64.603 77.7217 67.7787C77.7217 70.9544 80.3179 73.5506 83.4935 73.5506C86.6692 73.5506 89.2654 70.9544 89.2654 67.7787C89.2886 64.603 86.6924 62.0069 83.4935 62.0069ZM83.4935 73.2724C80.4569 73.2724 77.9998 70.8153 77.9998 67.7787C77.9998 64.7421 80.4569 62.285 83.4935 62.285C86.5301 62.285 88.9872 64.7421 88.9872 67.7787C88.9872 70.8153 86.5301 73.2724 83.4935 73.2724Z" fill="#5781FF"/>
<path d="M83.4942 63.1195C80.9212 63.1195 78.835 65.2057 78.835 67.7787C78.835 70.3517 80.9212 72.4379 83.4942 72.4379C86.0672 72.4379 88.1534 70.3517 88.1534 67.7787C88.1534 65.2057 86.0672 63.1195 83.4942 63.1195ZM83.4942 72.1366C81.0834 72.1366 79.1363 70.1894 79.1363 67.7787C79.1363 65.368 81.1066 63.4209 83.4942 63.4209C85.9049 63.4209 87.852 65.368 87.852 67.7787C87.8752 70.1894 85.9049 72.1366 83.4942 72.1366Z" fill="#5781FF"/>
<path d="M81.9174 69.6795C81.2915 69.6331 80.967 69.3318 80.967 68.8218C80.967 68.4278 81.1061 68.0801 81.4074 67.7787C81.5233 68.3814 81.8478 68.8914 82.1955 69.0073C82.4042 69.0768 82.5896 69.0073 82.7287 68.8218C82.8678 68.6364 83.03 68.4046 83.1459 68.1264C83.2155 68.196 83.285 68.2191 83.3777 68.2191C83.5864 68.2191 83.8181 68.0569 84.0036 67.7323C84.05 67.6396 84.0963 67.5469 84.1427 67.4542C84.1659 67.4774 84.1659 67.4774 84.189 67.5005C84.2122 67.5237 84.3049 67.5469 84.3977 67.4774C84.4904 67.3847 84.6295 67.176 84.7454 66.9442C84.7685 66.9906 84.7917 67.0369 84.8381 67.0601C84.8844 67.0833 84.9772 67.1065 85.0931 67.0138C85.1626 66.9442 85.1626 66.8979 85.1394 66.8515C85.1162 66.782 85.0003 66.7588 84.8613 66.7356C85.0235 66.3647 85.1394 65.9707 85.0699 65.8316C85.0467 65.762 85.0003 65.7389 84.9308 65.7389C84.8149 65.7389 84.7454 65.8548 84.699 66.0634C84.6526 66.2256 84.6526 66.4806 84.6758 66.6892C84.5599 66.6892 84.444 66.6892 84.3049 66.6892C84.3049 66.5965 84.2818 66.527 84.2586 66.4574C84.2122 66.3647 84.1427 66.3647 84.1195 66.3879C84.0268 66.4111 84.0036 66.5038 84.0036 66.5965C84.0036 66.6197 84.0036 66.6661 84.0036 66.7124C83.6327 66.7356 83.1923 66.8051 82.8214 66.921C82.3114 67.0601 81.8942 67.2456 81.5697 67.4774C81.5697 67.2919 81.5697 67.0601 81.7088 66.9906C81.871 66.8979 82.126 67.0138 82.2187 67.0601L82.3114 66.8979C82.2883 66.8979 81.8942 66.6429 81.616 66.8283C81.4538 66.9442 81.3611 67.1528 81.4074 67.5005C81.4074 67.5237 81.4074 67.5701 81.4074 67.5933C81.0134 67.941 80.8047 68.3582 80.8279 68.845C80.8511 69.4477 81.2452 69.8186 81.9406 69.8881C82.4042 69.9345 82.9837 69.8186 83.6095 69.6331C84.954 69.1927 86.2057 68.2655 86.4607 67.431C86.0434 68.4509 83.4241 69.8186 81.9174 69.6795ZM84.9076 65.9475C84.9076 65.9938 84.8844 66.0634 84.8613 66.1329C84.8844 66.0402 84.9076 65.9938 84.9076 65.9475ZM84.3049 66.8283C84.4208 66.8283 84.5136 66.8283 84.5831 66.8283C84.4672 67.0369 84.3513 67.2224 84.2586 67.3151C84.2586 67.3151 84.2354 67.2919 84.2122 67.2224C84.2586 67.0833 84.3049 66.9442 84.3049 66.8283ZM83.3314 66.921C83.5632 66.8747 83.7718 66.8515 83.9804 66.8283C83.9804 66.9442 84.0036 67.0833 84.0268 67.1992C83.9804 67.3383 83.9109 67.4774 83.8413 67.6164C83.7023 67.8714 83.5168 68.0337 83.3777 68.0105C83.3082 68.0105 83.2618 67.9642 83.2155 67.8946C83.3777 67.5469 83.4473 67.1528 83.3314 66.921ZM83.1459 66.9906C83.2387 67.1065 83.2155 67.3615 83.1227 67.6628C83.0764 67.3846 83.0996 67.0833 83.1459 66.9906ZM82.1028 67.3151C82.381 67.176 82.6591 67.0833 82.9605 67.0138C82.9141 67.2224 82.9141 67.5006 82.9605 67.7092C82.9837 67.8019 83.0068 67.8714 83.03 67.941C82.9141 68.196 82.775 68.4741 82.5896 68.6827C82.4969 68.8218 82.3578 68.845 82.2419 68.8218C81.9637 68.7291 81.6624 68.2655 81.5465 67.6396C81.7088 67.5237 81.8942 67.4078 82.1028 67.3151Z" fill="#5781FF"/>
<path d="M86.415 67.4078C86.4382 67.3615 86.4382 67.3383 86.4382 67.2919C86.4382 67.3383 86.415 67.3615 86.415 67.4078Z" fill="#5781FF"/>
<path d="M123.664 62.1459C120.395 62.1459 117.753 64.8117 117.753 68.0569C117.753 71.3253 120.419 73.9678 123.664 73.9678C126.932 73.9678 129.575 71.3021 129.575 68.0569C129.575 64.8117 126.932 62.1459 123.664 62.1459ZM123.664 73.6896C120.558 73.6896 118.031 71.163 118.031 68.08C118.031 64.9739 120.558 62.4705 123.664 62.4705C126.77 62.4705 129.273 64.9971 129.273 68.08C129.273 71.1862 126.747 73.6896 123.664 73.6896Z" fill="#6699FF"/>
<path d="M123.664 63.3049C121.044 63.3049 118.889 65.4375 118.889 68.08C118.889 70.6994 121.021 72.8551 123.664 72.8551C126.283 72.8551 128.439 70.7226 128.439 68.08C128.439 65.4375 126.283 63.3049 123.664 63.3049ZM123.664 72.5538C121.207 72.5538 119.19 70.5371 119.19 68.08C119.19 65.6229 121.207 63.6063 123.664 63.6063C126.121 63.6063 128.138 65.6229 128.138 68.08C128.138 70.5371 126.121 72.5538 123.664 72.5538Z" fill="#6699FF"/>
<path d="M122.042 70.0272C121.416 69.9808 121.068 69.6795 121.068 69.1464C121.068 68.7291 121.207 68.3814 121.508 68.0801C121.624 68.7059 121.949 69.2159 122.32 69.3318C122.528 69.4013 122.714 69.3318 122.876 69.1464C123.038 68.9609 123.177 68.7059 123.293 68.4509C123.363 68.5205 123.432 68.5437 123.525 68.5669C123.757 68.5669 123.966 68.4046 124.151 68.0569C124.197 67.9642 124.244 67.8714 124.29 67.7555C124.313 67.7787 124.313 67.7787 124.336 67.8019C124.36 67.8251 124.452 67.8483 124.545 67.7787C124.661 67.686 124.777 67.4774 124.916 67.2224C124.939 67.2688 124.985 67.3151 125.009 67.3383C125.055 67.3615 125.148 67.3847 125.287 67.2688C125.356 67.1992 125.356 67.1297 125.333 67.0833C125.31 67.0138 125.194 66.9906 125.032 66.9442C125.194 66.5734 125.31 66.1793 125.24 66.017C125.217 65.9475 125.148 65.9243 125.101 65.9243C124.985 65.9243 124.916 66.0402 124.87 66.2488C124.823 66.4111 124.823 66.6661 124.846 66.8979C124.73 66.8979 124.615 66.8979 124.475 66.8979C124.475 66.8052 124.452 66.7356 124.429 66.6661C124.383 66.5734 124.313 66.5734 124.29 66.5965C124.197 66.6197 124.174 66.7124 124.151 66.8052C124.151 66.8283 124.151 66.8747 124.151 66.9211C123.757 66.9442 123.316 67.0138 122.946 67.1297C122.412 67.2688 121.995 67.4774 121.648 67.7092C121.624 67.5237 121.647 67.2919 121.787 67.1992C121.949 67.1065 122.227 67.2224 122.32 67.2688L122.412 67.1065C122.389 67.1065 121.972 66.8515 121.694 67.037C121.508 67.1529 121.439 67.3847 121.462 67.7324C121.462 67.7555 121.462 67.8019 121.462 67.8251C121.045 68.1728 120.859 68.6132 120.859 69.1232C120.883 69.749 121.277 70.1431 122.018 70.1895C122.505 70.2358 123.108 70.1199 123.711 69.9345C125.078 69.4941 126.376 68.5437 126.631 67.6628C126.26 68.7755 123.595 70.1663 122.042 70.0272ZM124.475 67.1065C124.591 67.1065 124.684 67.1065 124.777 67.1065C124.661 67.3383 124.545 67.5237 124.452 67.6165C124.452 67.6165 124.429 67.5933 124.406 67.5006C124.429 67.3615 124.475 67.2224 124.475 67.1065ZM123.479 67.1992C123.711 67.1529 123.942 67.1297 124.151 67.1065C124.151 67.2224 124.174 67.3615 124.197 67.4774C124.151 67.6165 124.081 67.7787 124.012 67.9178C123.85 68.196 123.687 68.335 123.548 68.335C123.479 68.335 123.432 68.2887 123.386 68.2191C123.548 67.8483 123.618 67.431 123.479 67.1992ZM123.293 67.2688C123.386 67.3847 123.363 67.6628 123.27 67.9642C123.224 67.686 123.247 67.3615 123.293 67.2688ZM122.227 67.5933C122.505 67.4542 122.807 67.3615 123.108 67.2919C123.061 67.5006 123.061 67.7787 123.108 68.0105C123.131 68.1032 123.154 68.1728 123.177 68.2423C123.061 68.5205 122.899 68.7755 122.737 69.0073C122.621 69.1464 122.505 69.1927 122.389 69.1464C122.111 69.0536 121.787 68.59 121.694 67.9178C121.833 67.8019 122.018 67.686 122.227 67.5933Z" fill="#6699FF"/>
<path d="M151.643 136.137L144.55 145.71L143.855 146.661L143.507 147.124L142.626 148.307L142.163 148.956L141.282 150.138L140.355 151.389L139.497 152.548L139.474 152.572L138.662 153.661V153.684L138.547 153.847L138.523 153.87L138.361 154.078L137.48 155.168V155.261L136.669 156.373L135.626 157.787L134.838 158.853L133.957 160.036L132.497 162.006L132.357 162.191L131.871 162.864L130.712 164.417L129.182 166.387V166.48L128.394 167.546L128.301 167.662L127.211 169.145L126.192 170.536V170.559L123.665 173.99L119.887 179.09L113.558 187.62L112.77 188.686L112.307 189.312C112.538 189.359 112.793 189.382 113.025 189.405C113.86 189.521 114.694 189.613 115.529 189.706C115.76 189.729 115.992 189.753 116.224 189.776C116.363 189.799 116.525 189.799 116.665 189.822C117.012 189.868 117.383 189.892 117.731 189.915C117.87 189.938 118.032 189.938 118.171 189.961C118.241 189.961 118.31 189.984 118.38 189.984C118.612 190.008 118.843 190.031 119.075 190.031C119.122 190.031 119.168 190.031 119.214 190.031C119.724 190.077 120.257 190.1 120.767 190.123C120.999 190.147 121.231 190.147 121.463 190.17C121.648 190.193 121.834 190.193 122.019 190.193C122.065 190.193 122.089 190.193 122.135 190.193C122.436 190.216 122.738 190.216 123.039 190.239C123.271 190.239 123.503 190.263 123.734 190.263C123.989 190.263 124.268 190.286 124.523 190.286C124.754 190.286 124.986 190.286 125.218 190.309C125.473 190.309 125.705 190.309 125.96 190.309C126.192 190.309 126.423 190.309 126.655 190.309C126.794 190.309 126.91 190.309 127.049 190.309C127.188 190.309 127.327 190.309 127.466 190.309C127.559 190.309 127.652 190.309 127.745 190.309C127.837 190.309 127.93 190.309 128.023 190.309C128.162 190.309 128.278 190.309 128.417 190.309C128.44 190.309 128.486 190.309 128.51 190.309C128.579 190.309 128.649 190.309 128.718 190.309C128.811 190.309 128.904 190.309 128.996 190.309C130.828 190.263 132.636 190.17 134.444 190.008C136.507 189.845 138.57 189.59 140.586 189.289C142.789 188.964 144.944 188.57 147.077 188.084C147.123 188.084 147.146 188.06 147.193 188.06V188.084L149.209 187.597C149.488 187.527 149.766 187.458 150.044 187.388C152.686 186.716 155.283 185.951 157.809 185.047C158.226 184.908 158.667 184.746 159.084 184.607C159.2 184.56 159.293 184.537 159.409 184.491C160.197 184.213 160.985 183.911 161.75 183.587C161.958 183.494 162.167 183.424 162.376 183.332C162.422 183.308 162.468 183.308 162.515 183.285C162.77 183.193 163.002 183.077 163.257 182.984C163.442 182.914 163.627 182.822 163.813 182.752C164.022 182.659 164.253 182.567 164.462 182.474C164.601 182.404 164.74 182.358 164.879 182.289C165.111 182.173 165.366 182.08 165.598 181.964C167.962 180.898 170.257 179.739 172.505 178.51C172.737 178.371 172.969 178.255 173.224 178.116L185.579 161.45L151.643 136.137Z" fill="#A8D29F"/>
<path d="M132.961 170.467V171.44L133.679 170.467V170.444H132.961V170.467ZM131.616 171.788C131.338 171.904 131.106 172.02 130.874 172.159L129.298 174.291L128.093 175.914V178.047L129.53 176.123L132.961 171.487C132.52 171.487 132.08 171.579 131.616 171.788ZM125.798 178.997L125.612 179.229L124.917 180.156L121.811 184.352V186.484L124.013 183.517L125.775 181.153L126.702 179.901L127.397 178.974H125.798V178.997ZM152.038 143.578L144.643 153.545L144.574 153.638L144.133 154.241L143.554 155.006L143.253 155.4L141.885 157.254L141.305 157.926V158.019L140.958 158.529L140.448 159.201L138.408 161.96L138.361 162.006L138.269 162.145L137.62 163.026V163.119L135.673 165.645L134.931 166.665L134.815 166.827L132.729 169.632L132.103 170.467V170.49L130.874 172.136L129.298 174.268L128.093 175.891L127.212 177.073L125.775 178.997L125.589 179.229L124.894 180.156L121.788 184.352L120.907 185.534L119.423 187.527L117.708 189.822C117.847 189.845 118.009 189.845 118.148 189.868C118.218 189.868 118.288 189.892 118.357 189.892C118.589 189.915 118.821 189.938 119.052 189.938C119.099 189.938 119.145 189.938 119.192 189.938L120.976 187.504L121.741 186.484L123.943 183.517L125.705 181.153L126.632 179.901L127.328 178.974L128.046 178L129.484 176.076L132.914 171.44L133.633 170.467V170.444L134.745 169.03V168.96L135.626 167.778L136.322 166.827L137.573 165.158L138.454 163.976L139.428 162.655L139.799 162.145L139.938 161.96L140.401 161.357L141.282 160.175L142.209 158.923L143.137 157.671L143.229 157.555L144.11 156.373L144.782 155.469L145.107 155.052L145.918 153.962L145.988 153.87L146.173 153.638L149.534 149.095C151.064 147.032 153.985 146.591 156.025 148.121L173.224 160.87C175.496 162.562 175.983 165.761 174.291 168.033L163.906 182.034L163.303 182.868C163.489 182.799 163.674 182.706 163.86 182.636C164.068 182.544 164.3 182.451 164.509 182.358C164.648 182.289 164.787 182.242 164.926 182.173C165.158 182.057 165.413 181.964 165.645 181.848L179.135 163.652L152.038 143.578ZM125.798 178.997L125.612 179.229L124.917 180.156L121.811 184.352V186.484L124.013 183.517L125.775 181.153L126.702 179.901L127.397 178.974H125.798V178.997ZM131.616 171.788C131.338 171.904 131.106 172.02 130.874 172.159L129.298 174.291L128.093 175.914V178.047L129.53 176.123L132.961 171.487C132.52 171.487 132.08 171.579 131.616 171.788ZM132.961 170.467V171.44L133.679 170.467V170.444H132.961V170.467Z" fill="#82B378"/>
<path d="M147.263 187.968V187.945C147.217 187.945 147.193 187.968 147.147 187.968C145.014 188.431 142.836 188.849 140.657 189.173C138.64 189.474 136.577 189.706 134.514 189.892C132.706 190.054 130.898 190.147 129.067 190.193C128.974 190.193 128.881 190.193 128.788 190.193C128.719 190.193 128.649 190.193 128.58 190.193C128.557 190.193 128.51 190.193 128.487 190.193C128.464 189.938 128.464 189.66 128.464 189.405C128.464 188.779 128.533 188.153 128.649 187.55C128.927 186.044 129.553 184.607 130.527 183.285L130.55 183.262C131.014 182.636 131.524 182.08 132.103 181.593C132.381 181.361 132.683 181.13 132.984 180.921C133.818 180.341 134.723 179.901 135.65 179.576C135.928 179.484 136.229 179.391 136.531 179.322C137.203 179.159 137.898 179.067 138.617 179.043C138.918 179.02 139.196 179.043 139.498 179.043C140.147 179.067 140.796 179.159 141.445 179.322C141.746 179.391 142.024 179.484 142.326 179.576C142.65 179.692 142.998 179.808 143.299 179.971C143.6 180.11 143.879 180.249 144.18 180.411C144.505 180.596 144.806 180.782 145.107 180.99C145.154 181.037 145.223 181.06 145.269 181.106C145.501 181.269 145.733 181.454 145.942 181.64C145.965 181.64 145.965 181.663 145.988 181.663C146.15 181.802 146.313 181.964 146.475 182.103C146.799 182.428 147.078 182.729 147.356 183.077V183.1C147.472 183.239 147.587 183.401 147.703 183.563V183.587C148.028 184.05 148.329 184.56 148.584 185.093V185.117C148.7 185.372 148.793 185.603 148.886 185.858C149.094 186.391 149.233 186.948 149.349 187.504L147.263 187.968Z" fill="#82B378"/>
<path opacity="0.5" d="M138.385 154.032L137.504 155.121V155.191L136.692 156.304L135.649 157.718L134.861 158.784L133.98 159.966L132.52 161.936L132.381 162.122L131.894 162.794L130.735 164.347L129.205 166.317V166.387L128.417 167.453L128.324 167.569L127.235 169.053L126.215 170.443V170.467L123.688 173.897L119.91 178.997L113.582 187.527L112.794 188.594L112.33 189.219C112.562 189.266 112.817 189.289 113.049 189.312C113.883 189.428 114.718 189.521 115.552 189.613C115.784 189.637 116.016 189.66 116.248 189.683C116.387 189.706 116.549 189.706 116.688 189.729C117.036 189.776 117.407 189.799 117.754 189.822C117.893 189.845 118.056 189.845 118.195 189.868C118.264 189.868 118.334 189.892 118.403 189.892C118.635 189.915 118.867 189.938 119.099 189.938C119.145 189.938 119.191 189.938 119.238 189.938C119.748 189.984 120.281 190.008 120.791 190.031C121.023 190.054 121.254 190.054 121.486 190.077C121.672 190.1 121.857 190.1 122.043 190.1C122.089 190.1 122.112 190.1 122.158 190.1C122.344 189.243 122.553 188.385 122.784 187.504C123.132 186.183 123.549 184.838 124.013 183.517C124.361 182.497 124.731 181.454 125.126 180.434C125.288 180.017 125.45 179.623 125.612 179.229C125.635 179.159 125.682 179.066 125.705 178.997C126.192 177.792 126.702 176.609 127.212 175.45V175.381C127.49 174.732 127.791 174.175 128.093 173.55C128.579 172.507 129.066 171.487 129.576 170.49C129.576 170.49 129.576 170.49 129.576 170.467C130.248 169.122 130.921 167.801 131.593 166.549C131.685 166.387 131.778 166.271 131.848 166.132V166.062C132.149 165.506 132.427 164.973 132.729 164.44C133.146 163.652 133.563 162.887 133.98 162.168C134.027 162.099 134.05 162.029 134.096 161.96C134.351 161.496 134.606 161.125 134.838 160.708V160.638C135.417 159.595 135.974 158.645 136.437 157.787C136.716 157.277 136.994 156.79 137.226 156.373C137.318 156.211 137.411 156.049 137.481 155.886C137.875 155.191 138.153 154.611 138.361 154.194C138.431 154.055 138.477 153.939 138.524 153.823L138.385 154.032Z" fill="#82B378"/>
<path d="M148.814 180.875V185.696C148.814 185.742 148.814 185.789 148.814 185.835C148.79 186.16 148.674 186.461 148.489 186.716C148.28 187.017 147.979 187.272 147.608 187.411C147.515 187.435 147.446 187.481 147.353 187.481C147.33 187.481 147.307 187.504 147.26 187.504C147.214 187.504 147.145 187.527 147.098 187.527C147.052 187.527 146.982 187.527 146.936 187.527H146.403H144.131H142.277H141.419H139.472H138.591H136.505H135.624H132.958H132.078H128.647H127.534H126.653H122.759H120.905H119.421H113.51H112.096H111.076H110.659H108.248H104.725H103.01C102.036 187.319 101.039 187.087 100.043 186.855C99.8108 186.809 99.579 186.739 99.3472 186.693C98.6981 186.531 98.0259 186.368 97.3769 186.206C97.0987 186.136 96.7973 186.067 96.496 185.974C95.986 185.835 95.4993 185.719 94.9893 185.58C94.4562 185.441 93.8998 185.279 93.3667 185.14C93.1349 185.07 92.9031 185.001 92.6713 184.931C91.3268 184.56 90.0056 184.143 88.6611 183.726C88.6148 183.703 88.5684 183.703 88.4989 183.679C88.1048 183.563 87.6876 183.424 87.2935 183.285C87.0617 183.216 86.8299 183.146 86.5981 183.054C82.8197 181.825 79.0877 180.457 75.3789 178.974H76.4452L96.5192 178.997H97.4H102.801H104.006H106.649H109.94H112.768H113.023H117.404H118.424H119.305H119.885H124.266H125.726H127.395H128.114H132.124H132.958H133.839H135.67H139.263H141.929H142.022H142.787H144.873H145.754H146.959H147.029C147.121 178.997 147.191 179.02 147.284 179.02C147.4 179.043 147.515 179.067 147.631 179.113C147.979 179.252 148.28 179.507 148.512 179.808C148.698 180.133 148.814 180.481 148.814 180.875Z" fill="#FFB93E"/>
<path d="M111.123 187.527H110.706H108.295H104.772H103.891H103.057C102.083 187.319 101.086 187.087 100.089 186.855C99.8576 186.809 99.6258 186.739 99.394 186.693C98.745 186.531 98.0728 186.368 97.4237 186.206C97.1456 186.136 96.8442 186.067 96.5429 185.974C96.0329 185.835 95.5461 185.719 95.0362 185.58C94.503 185.441 93.9467 185.279 93.4136 185.14C93.1818 185.07 92.95 185.001 92.7182 184.931C91.3737 184.56 90.0524 184.143 88.708 183.726C88.6616 183.703 88.6153 183.703 88.5457 183.679C88.1517 183.563 87.7344 183.424 87.3404 183.285C87.1086 183.216 86.8768 183.146 86.645 183.053C82.8666 181.825 79.1346 180.457 75.4258 178.974H76.4921L96.5661 178.997H97.4469H102.848H104.03H104.053H106.093C106.371 180.202 106.812 181.64 107.577 183.077C108.295 184.444 109.246 185.835 110.59 187.04C110.66 187.11 110.752 187.18 110.845 187.272C110.868 187.295 110.868 187.295 110.891 187.319C110.961 187.388 111.054 187.458 111.123 187.527Z" fill="#FFA412"/>
<path d="M139.474 179.02H138.593V187.55H139.474V179.02Z" fill="#FFA412"/>
<path d="M136.529 179.02H135.648V187.55H136.529V179.02Z" fill="#FFA412"/>
<path d="M132.987 178.998L132.106 178.997L132.098 187.527L132.978 187.528L132.987 178.998Z" fill="#FFA412"/>
<path d="M127.559 178.997H126.678V187.527H127.559V178.997Z" fill="#FFA412"/>
<path d="M121.833 178.997H120.952V187.527H121.833V178.997Z" fill="#FFA412"/>
<path d="M113.023 178.997H112.143V187.527H113.023V178.997Z" fill="#FFA412"/>
<path d="M104.796 178.997H103.915V187.527H104.796V178.997Z" fill="#FFA412"/>
<path d="M97.4472 178.974V186.183C97.1691 186.113 96.8677 186.044 96.5664 185.951V178.974H97.4472Z" fill="#FFA412"/>
<path d="M142.301 179.02H141.42V187.55H142.301V179.02Z" fill="#FFA412"/>
<path d="M144.155 179.02H143.274V187.55H144.155V179.02Z" fill="#FFA412"/>
<path d="M145.945 179.021L145.064 179.02L145.056 187.55L145.936 187.551L145.945 179.021Z" fill="#FFA412"/>
<path d="M147.284 179.043V187.504C147.168 187.527 147.076 187.527 146.96 187.527H146.403V178.997H146.96C147.076 179.02 147.168 179.02 147.284 179.043Z" fill="#FFA412"/>
<path d="M148.49 179.831V186.716C148.282 187.017 147.98 187.272 147.609 187.411V179.136C147.98 179.275 148.282 179.53 148.49 179.831Z" fill="#FFA412"/>
<path d="M155.097 172.344V177.166C155.097 177.56 154.981 177.908 154.772 178.209C154.564 178.51 154.262 178.765 153.892 178.904C153.776 178.951 153.66 178.974 153.544 178.997C153.428 179.02 153.335 179.02 153.219 179.02L76.4931 178.974C75.4963 178.974 74.685 178.186 74.6387 177.212C74.6387 177.189 74.6387 177.143 74.6387 177.119V172.298C74.6387 172.275 74.6387 172.228 74.6387 172.205C74.685 171.301 75.3804 170.559 76.2845 170.467C76.354 170.467 76.4235 170.444 76.4931 170.444L153.219 170.49C153.335 170.49 153.451 170.49 153.544 170.513C153.66 170.536 153.776 170.559 153.892 170.606C154.239 170.745 154.541 171 154.772 171.301C154.981 171.603 155.097 171.973 155.097 172.344Z" fill="#FFB93E"/>
<path d="M117.405 178.997L76.3069 178.974C75.4261 178.974 74.7075 178.186 74.6611 177.212C74.6611 177.189 74.6611 177.143 74.6611 177.119V172.298C74.6611 172.275 74.6611 172.228 74.6611 172.205C74.7075 171.301 75.3334 170.559 76.1215 170.467C76.191 170.467 76.2606 170.444 76.3069 170.444L112.375 170.467C112.375 170.467 112.375 170.467 112.375 170.49C112.955 172.993 114.276 176.447 117.405 178.997Z" fill="#FFA412"/>
<path d="M145.757 170.49H144.876V179.02H145.757V170.49Z" fill="#FFA412"/>
<path d="M142.812 170.49H141.932V179.02H142.812V170.49Z" fill="#FFA412"/>
<path d="M139.266 170.49H138.385V179.02H139.266V170.49Z" fill="#FFA412"/>
<path d="M133.842 170.467H132.961V178.997H133.842V170.467Z" fill="#FFA412"/>
<path d="M128.116 170.467H127.235V178.997H128.116V170.467Z" fill="#FFA412"/>
<path d="M119.307 170.467H118.426V178.997H119.307V170.467Z" fill="#FFA412"/>
<path d="M111.079 170.467H110.198V178.997H111.079V170.467Z" fill="#FFA412"/>
<path d="M103.73 170.467H102.85V178.997H103.73V170.467Z" fill="#FFA412"/>
<path d="M148.562 170.49H147.681V179.02H148.562V170.49Z" fill="#FFA412"/>
<path d="M150.438 170.49H149.558V179.02H150.438V170.49Z" fill="#FFA412"/>
<path d="M152.224 170.49H151.343V179.02H152.224V170.49Z" fill="#FFA412"/>
<path d="M153.567 170.513V178.974C153.451 178.997 153.359 178.997 153.243 178.997H152.687V170.467H153.243C153.359 170.49 153.451 170.49 153.567 170.513Z" fill="#FFA412"/>
<path d="M154.773 171.301V178.186C154.565 178.487 154.263 178.742 153.893 178.881V170.606C154.263 170.745 154.565 171 154.773 171.301Z" fill="#FFA412"/>
<path d="M145.013 163.814V168.635C145.013 169.03 144.897 169.377 144.688 169.679C144.48 169.98 144.178 170.235 143.807 170.374C143.691 170.42 143.575 170.444 143.46 170.467C143.413 170.467 143.39 170.49 143.344 170.49C143.321 170.49 143.297 170.49 143.251 170.49C143.228 170.49 143.228 170.49 143.205 170.49C143.181 170.49 143.135 170.49 143.112 170.49L66.3857 170.444C65.3889 170.444 64.5776 169.655 64.5312 168.682C64.5312 168.659 64.5312 168.612 64.5312 168.589V163.768C64.5312 163.744 64.5312 163.698 64.5312 163.675C64.5776 162.701 65.3889 161.913 66.3857 161.913L143.112 161.96C143.135 161.96 143.181 161.96 143.205 161.96C143.274 161.96 143.367 161.983 143.436 161.983C143.552 162.006 143.668 162.029 143.784 162.075C143.83 162.099 143.9 162.122 143.946 162.145C143.97 162.168 144.016 162.168 144.039 162.191C144.062 162.215 144.109 162.238 144.132 162.261C144.132 162.261 144.132 162.261 144.155 162.261C144.178 162.284 144.201 162.307 144.248 162.33C144.317 162.377 144.364 162.423 144.433 162.493C144.456 162.516 144.48 162.539 144.48 162.539C144.48 162.539 144.503 162.562 144.503 162.585C144.526 162.609 144.549 162.632 144.549 162.655C144.572 162.678 144.595 162.725 144.619 162.748C144.897 163.095 145.013 163.443 145.013 163.814Z" fill="#FFB93E"/>
<path d="M107.345 170.467L66.2464 170.444C65.3655 170.444 64.6469 169.655 64.6006 168.682C64.6006 168.659 64.6006 168.612 64.6006 168.589V163.768C64.6006 163.744 64.6006 163.698 64.6006 163.675C64.6469 162.701 65.3655 161.913 66.2464 161.913L102.315 161.936C102.338 162.006 102.338 162.075 102.361 162.122C102.941 164.625 104.285 167.986 107.345 170.467Z" fill="#FFA412"/>
<path d="M135.693 161.96H134.812V170.49H135.693V161.96Z" fill="#FFA412"/>
<path d="M132.75 161.96H131.869V170.49H132.75V161.96Z" fill="#FFA412"/>
<path d="M129.203 161.96H128.322V170.49H129.203V161.96Z" fill="#FFA412"/>
<path d="M123.779 161.96H122.898V170.49H123.779V161.96Z" fill="#FFA412"/>
<path d="M118.03 161.96H117.149V170.49H118.03V161.96Z" fill="#FFA412"/>
<path d="M109.245 161.936H108.364V170.467H109.245V161.936Z" fill="#FFA412"/>
<path d="M100.993 161.936H100.112V170.467H100.993V161.936Z" fill="#FFA412"/>
<path d="M93.6494 161.937L92.7686 161.936L92.7597 170.466L93.6406 170.467L93.6494 161.937Z" fill="#FFA412"/>
<path d="M138.498 161.96H137.617V170.49H138.498V161.96Z" fill="#FFA412"/>
<path d="M140.353 161.96H139.472V170.49H140.353V161.96Z" fill="#FFA412"/>
<path d="M142.162 161.96H141.281V170.49H142.162V161.96Z" fill="#FFA412"/>
<path d="M143.482 162.006V170.467C143.367 170.49 143.274 170.49 143.158 170.49H142.602V161.96H143.158C143.274 161.96 143.39 161.983 143.482 162.006Z" fill="#FFA412"/>
<path d="M144.711 162.794V169.679C144.502 169.98 144.201 170.235 143.83 170.374V162.099C144.178 162.238 144.502 162.47 144.711 162.794Z" fill="#FFA412"/>
<path d="M150.669 155.492V160.314C150.669 160.708 150.553 161.056 150.345 161.357C150.136 161.658 149.835 161.913 149.464 162.052C149.348 162.099 149.232 162.122 149.116 162.145C149 162.168 148.907 162.168 148.792 162.168L72.0653 162.122C71.764 162.122 71.4859 162.052 71.2309 161.913C70.6745 161.635 70.2805 161.079 70.2109 160.43C70.2109 160.407 70.2109 160.383 70.2109 160.36C70.2109 160.337 70.2109 160.291 70.2109 160.267V155.446C70.2109 155.423 70.2109 155.376 70.2109 155.353C70.2573 154.449 70.9527 153.708 71.8567 153.615C71.9263 153.615 71.9958 153.592 72.0653 153.592L148.792 153.638C148.907 153.638 149.023 153.638 149.116 153.661C149.232 153.684 149.348 153.708 149.464 153.754C149.812 153.893 150.113 154.148 150.345 154.449C150.553 154.751 150.669 155.122 150.669 155.492Z" fill="#FFB93E"/>
<path d="M112.978 162.145L71.8792 162.122C71.6242 162.122 71.3692 162.052 71.1374 161.913C70.6275 161.635 70.2798 161.079 70.2334 160.43C70.2334 160.407 70.2334 160.383 70.2334 160.36C70.2334 160.337 70.2334 160.291 70.2334 160.267V155.446C70.2334 155.423 70.2334 155.376 70.2334 155.353C70.2798 154.449 70.9056 153.707 71.6938 153.615C71.7633 153.615 71.8328 153.592 71.8792 153.592L107.947 153.615C107.947 153.615 107.947 153.615 107.947 153.638C108.504 156.095 109.802 159.433 112.746 161.96C112.838 162.006 112.908 162.076 112.978 162.145Z" fill="#FFA412"/>
<path d="M141.35 153.638H140.469V162.168H141.35V153.638Z" fill="#FFA412"/>
<path d="M138.383 153.638H137.502V162.168H138.383V153.638Z" fill="#FFA412"/>
<path d="M134.836 153.638H133.955V162.168H134.836V153.638Z" fill="#FFA412"/>
<path d="M129.412 153.615H128.531V162.145H129.412V153.615Z" fill="#FFA412"/>
<path d="M123.687 153.615H122.806V162.145H123.687V153.615Z" fill="#FFA412"/>
<path d="M114.877 153.615H113.996V162.145H114.877V153.615Z" fill="#FFA412"/>
<path d="M106.649 153.615H105.769V162.145H106.649V153.615Z" fill="#FFA412"/>
<path d="M99.3008 153.615H98.4199V162.145H99.3008V153.615Z" fill="#FFA412"/>
<path d="M144.154 153.638H143.273V162.168H144.154V153.638Z" fill="#FFA412"/>
<path d="M146.009 153.638H145.128V162.168H146.009V153.638Z" fill="#FFA412"/>
<path d="M147.794 153.638H146.913V162.168H147.794V153.638Z" fill="#FFA412"/>
<path d="M149.138 153.661V162.122C149.022 162.145 148.929 162.145 148.813 162.145H148.257V153.615H148.813C148.929 153.638 149.022 153.638 149.138 153.661Z" fill="#FFA412"/>
<path d="M150.344 154.449V161.334C150.135 161.635 149.834 161.89 149.463 162.029V153.754C149.834 153.893 150.135 154.148 150.344 154.449Z" fill="#FFA412"/>
<path d="M145.035 146.985V151.807C145.035 152.201 144.919 152.548 144.711 152.85C144.502 153.151 144.201 153.406 143.83 153.545C143.714 153.592 143.598 153.615 143.482 153.638C143.436 153.638 143.413 153.661 143.366 153.661C143.343 153.661 143.32 153.661 143.297 153.661C143.273 153.661 143.25 153.661 143.227 153.661C143.204 153.661 143.158 153.661 143.134 153.661L66.4081 153.615C65.4114 153.615 64.6001 152.827 64.5537 151.853C64.5537 151.83 64.5537 151.783 64.5537 151.76V146.939C64.5537 146.916 64.5537 146.869 64.5537 146.846C64.6001 145.873 65.4114 145.084 66.4081 145.084L143.134 145.131C143.25 145.131 143.366 145.131 143.459 145.154C143.575 145.177 143.691 145.2 143.807 145.247C144.154 145.386 144.456 145.641 144.687 145.942C144.919 146.243 145.035 146.591 145.035 146.985Z" fill="#FFB93E"/>
<path d="M107.345 153.615L66.2464 153.592C65.3655 153.592 64.6469 152.803 64.6006 151.83C64.6006 151.807 64.6006 151.76 64.6006 151.737V146.916C64.6006 146.893 64.6006 146.846 64.6006 146.823C64.6469 145.849 65.3655 145.061 66.2464 145.061L102.315 145.084C102.871 147.588 104.215 151.065 107.345 153.615Z" fill="#FFA412"/>
<path d="M135.698 145.108L134.817 145.107L134.809 153.638L135.689 153.638L135.698 145.108Z" fill="#FFA412"/>
<path d="M132.751 145.108H131.87V153.638H132.751V145.108Z" fill="#FFA412"/>
<path d="M129.204 145.108H128.323V153.638H129.204V145.108Z" fill="#FFA412"/>
<path d="M123.78 145.108H122.899V153.638H123.78V145.108Z" fill="#FFA412"/>
<path d="M118.055 145.108H117.174V153.638H118.055V145.108Z" fill="#FFA412"/>
<path d="M109.245 145.084H108.364V153.615H109.245V145.084Z" fill="#FFA412"/>
<path d="M101.018 145.084H100.137V153.615H101.018V145.084Z" fill="#FFA412"/>
<path d="M93.6689 145.084H92.7881V153.615H93.6689V145.084Z" fill="#FFA412"/>
<path d="M138.522 145.108H137.642V153.638H138.522V145.108Z" fill="#FFA412"/>
<path d="M140.377 145.108H139.496V153.638H140.377V145.108Z" fill="#FFA412"/>
<path d="M142.162 145.108H141.281V153.638H142.162V145.108Z" fill="#FFA412"/>
<path d="M143.506 145.154V153.615C143.39 153.638 143.297 153.638 143.181 153.638H142.625V145.108H143.181C143.297 145.108 143.39 145.131 143.506 145.154Z" fill="#FFA412"/>
<path d="M144.712 145.942V152.827C144.503 153.128 144.202 153.383 143.831 153.522V145.247C144.202 145.386 144.503 145.618 144.712 145.942Z" fill="#FFA412"/>
<path d="M155.397 185.766C153.659 186.322 151.897 186.832 150.112 187.272C149.834 187.342 149.556 187.411 149.278 187.481C148.605 187.643 147.956 187.805 147.284 187.944C147.238 187.944 147.215 187.968 147.168 187.968C145.036 188.431 142.857 188.848 140.678 189.173C138.661 189.474 136.598 189.706 134.535 189.892C132.727 190.054 130.919 190.147 129.088 190.193C128.995 190.193 128.902 190.193 128.809 190.193C128.74 190.193 128.67 190.193 128.601 190.193C128.578 190.193 128.531 190.193 128.508 190.193C128.369 190.193 128.253 190.193 128.114 190.193C128.021 190.193 127.929 190.193 127.836 190.193C127.743 190.193 127.65 190.193 127.558 190.193C127.419 190.193 127.28 190.193 127.141 190.193C127.001 190.193 126.886 190.193 126.746 190.193C126.515 190.193 126.283 190.193 126.051 190.193C125.796 190.193 125.564 190.193 125.309 190.193C125.077 190.193 124.846 190.193 124.614 190.17C124.359 190.17 124.081 190.17 123.826 190.147C123.594 190.147 123.362 190.123 123.13 190.123C122.829 190.123 122.528 190.1 122.226 190.077C122.18 190.077 122.157 190.077 122.11 190.077C121.925 190.077 121.74 190.054 121.554 190.054C121.322 190.054 121.09 190.031 120.859 190.007C120.349 189.984 119.816 189.938 119.306 189.915C119.259 189.915 119.213 189.915 119.167 189.915C118.935 189.892 118.703 189.892 118.471 189.868C118.402 189.868 118.332 189.845 118.263 189.845C118.123 189.845 117.961 189.822 117.822 189.799C117.474 189.776 117.104 189.729 116.756 189.706C116.617 189.683 116.454 189.683 116.315 189.66C116.084 189.637 115.852 189.613 115.62 189.59C114.786 189.498 113.951 189.405 113.117 189.289C112.885 189.266 112.63 189.219 112.398 189.196C112.328 189.196 112.236 189.173 112.166 189.15C112.097 189.15 112.027 189.127 111.958 189.127C111.795 189.103 111.633 189.08 111.448 189.057C111.401 189.057 111.355 189.034 111.308 189.034H111.285C111.262 189.034 111.262 189.034 111.239 189.034C110.613 188.941 109.987 188.848 109.361 188.733C109.153 188.686 108.921 188.663 108.712 188.617C108.504 188.57 108.272 188.547 108.063 188.501C107.808 188.454 107.576 188.408 107.322 188.362C107.09 188.315 106.858 188.269 106.626 188.223C105.467 187.991 104.331 187.759 103.172 187.504C102.199 187.295 101.202 187.064 100.205 186.832C99.9734 186.785 99.7416 186.716 99.5098 186.67C99.3939 186.646 99.278 186.623 99.1621 186.577C98.2581 176.169 103.427 165.738 113.163 160.383C113.511 160.198 113.858 160.012 114.206 159.827C114.554 159.618 114.878 159.433 115.226 159.224C128.415 151.969 144.966 156.767 152.221 169.957C154.91 174.964 155.93 180.48 155.397 185.766Z" fill="#E2810E"/>
<path d="M160.66 166.48C158.226 162.052 154.726 158.575 150.669 156.165C150.553 156.095 150.46 156.049 150.344 155.979C150.066 155.817 149.765 155.655 149.464 155.492C149.348 155.423 149.232 155.376 149.116 155.307C148.838 155.168 148.536 155.029 148.235 154.89C148.073 154.82 147.911 154.751 147.771 154.681C147.493 154.542 147.192 154.426 146.891 154.31C146.589 154.194 146.288 154.078 145.963 153.962C145.94 153.962 145.917 153.939 145.894 153.939C145.639 153.847 145.361 153.754 145.083 153.661C145.013 153.638 144.967 153.615 144.897 153.615H144.828C144.758 153.592 144.712 153.545 144.619 153.522C144.434 153.476 144.248 153.406 144.086 153.36C143.993 153.337 143.9 153.313 143.808 153.29C143.692 153.267 143.576 153.221 143.46 153.197C143.182 153.128 142.88 153.058 142.579 152.989C142.417 152.943 142.255 152.919 142.116 152.896C141.837 152.827 141.536 152.78 141.235 152.734C140.933 152.688 140.632 152.641 140.307 152.595C140.029 152.548 139.728 152.525 139.45 152.502C139.45 152.502 139.45 152.502 139.427 152.502C139.102 152.479 138.778 152.433 138.453 152.433C138.175 152.409 137.874 152.409 137.572 152.386C136.923 152.363 136.274 152.363 135.625 152.386C135.347 152.409 135.046 152.409 134.744 152.433C134.049 152.479 133.353 152.548 132.658 152.664C132.38 152.711 132.079 152.757 131.777 152.803C130.873 152.966 129.992 153.174 129.111 153.429C128.926 153.476 128.764 153.545 128.578 153.592C128.555 153.592 128.555 153.592 128.532 153.615C128.509 153.615 128.486 153.638 128.462 153.638C126.817 154.171 125.171 154.866 123.595 155.724C123.595 155.724 123.571 155.724 123.571 155.747C123.293 155.91 122.992 156.072 122.714 156.234C122.667 156.257 122.621 156.304 122.552 156.327C120.002 157.857 117.8 159.757 115.968 161.913C115.922 161.983 115.852 162.052 115.806 162.122C113.72 164.602 112.12 167.43 111.054 170.444C111.054 170.444 111.054 170.444 111.054 170.467C111.031 170.536 111.008 170.606 110.985 170.675C110.637 171.695 110.336 172.715 110.104 173.758V173.828C109.733 175.543 109.501 177.212 109.478 178.974C109.408 181.663 109.733 184.375 110.498 187.017C110.544 187.18 110.591 187.342 110.637 187.504C110.799 188.014 110.961 188.524 111.147 189.034C111.193 189.034 111.24 189.057 111.286 189.057C111.448 189.08 111.61 189.104 111.796 189.127C111.865 189.127 111.935 189.15 112.005 189.15C112.074 189.173 112.167 189.173 112.236 189.196C112.468 189.243 112.723 189.266 112.955 189.289C113.789 189.405 114.624 189.498 115.458 189.59C115.69 189.613 115.922 189.637 116.154 189.66C116.293 189.683 116.455 189.683 116.594 189.706C116.942 189.753 117.313 189.776 117.661 189.799C117.8 189.822 117.962 189.822 118.101 189.845C118.17 189.845 118.24 189.868 118.31 189.868C118.541 189.892 118.773 189.915 119.005 189.915C119.051 189.915 119.098 189.915 119.144 189.915C119.654 189.961 120.187 189.984 120.697 190.008C120.929 190.031 121.161 190.031 121.393 190.054C121.578 190.077 121.763 190.077 121.949 190.077C121.995 190.077 122.018 190.077 122.065 190.077C122.366 190.1 122.667 190.1 122.969 190.123C123.201 190.123 123.432 190.147 123.664 190.147C123.919 190.147 124.197 190.17 124.452 190.17C124.684 190.17 124.916 190.17 125.148 190.193C125.403 190.193 125.634 190.193 125.889 190.193C126.121 190.193 126.353 190.193 126.585 190.193C126.724 190.193 126.84 190.193 126.979 190.193C127.118 190.193 127.257 190.193 127.396 190.193C127.489 190.193 127.582 190.193 127.674 190.193C127.767 190.193 127.86 190.193 127.952 190.193C128.092 190.193 128.207 190.193 128.347 190.193C128.37 190.193 128.416 190.193 128.439 190.193C128.509 190.193 128.578 190.193 128.648 190.193C128.741 190.193 128.833 190.193 128.926 190.193C130.757 190.147 132.565 190.054 134.373 189.892C136.436 189.729 138.499 189.474 140.516 189.173C142.718 188.849 144.874 188.454 147.007 187.968C147.053 187.968 147.076 187.945 147.122 187.945V187.968L149.139 187.481C149.417 187.411 149.695 187.342 149.974 187.272C152.616 186.6 155.212 185.835 157.739 184.931C158.156 184.792 158.597 184.63 159.014 184.491C159.13 184.444 159.222 184.421 159.338 184.375C160.126 184.097 160.915 183.795 161.68 183.471C161.888 183.378 162.097 183.308 162.305 183.216C162.352 183.193 162.398 183.193 162.445 183.169C162.7 183.077 162.931 182.961 163.186 182.868C163.372 182.799 163.557 182.706 163.743 182.636C163.766 182.428 163.789 182.242 163.812 182.034C164.392 176.818 163.372 171.417 160.66 166.48Z" fill="#E2810E"/>
<path d="M158.573 167.639C156.557 163.976 153.844 160.986 150.669 158.691C150.553 158.622 150.46 158.529 150.344 158.459C150.066 158.251 149.765 158.065 149.487 157.88C149.371 157.81 149.255 157.741 149.139 157.671C148.861 157.486 148.559 157.324 148.258 157.161C148.096 157.069 147.934 156.976 147.794 156.906C147.516 156.744 147.215 156.605 146.914 156.443C146.612 156.28 146.311 156.141 145.986 156.002C145.708 155.863 145.407 155.747 145.106 155.631C145.013 155.585 144.897 155.539 144.781 155.492C144.549 155.4 144.341 155.33 144.109 155.237C143.923 155.168 143.738 155.098 143.529 155.029C143.437 155.006 143.321 154.959 143.228 154.936C142.579 154.727 141.953 154.542 141.281 154.38C141.003 154.31 140.701 154.241 140.4 154.171C139.774 154.032 139.125 153.916 138.476 153.823C138.43 153.823 138.36 153.8 138.314 153.8C138.036 153.754 137.734 153.731 137.433 153.684C137.317 153.661 137.201 153.661 137.085 153.661H136.993C136.969 153.661 136.969 153.661 136.923 153.638C136.552 153.592 136.135 153.568 135.764 153.568C135.463 153.545 135.184 153.545 134.883 153.545C134.188 153.545 133.492 153.568 132.797 153.615C132.681 153.615 132.588 153.638 132.472 153.638H132.426C132.403 153.638 132.403 153.638 132.38 153.661H132.148C131.221 153.754 130.34 153.893 129.413 154.078C129.111 154.125 128.833 154.194 128.532 154.264C126.886 154.658 125.263 155.191 123.664 155.886C123.363 156.025 123.084 156.141 122.783 156.304C122.737 156.327 122.69 156.35 122.621 156.373C122.25 156.559 121.902 156.744 121.555 156.929C119.051 158.297 116.872 160.012 114.995 161.96C114.948 162.006 114.902 162.052 114.856 162.099C114.832 162.122 114.832 162.122 114.809 162.145C112.514 164.602 110.729 167.43 109.478 170.467C109.478 170.467 109.478 170.467 109.478 170.49C108.365 173.202 107.716 176.076 107.507 178.997C107.415 180.341 107.438 181.709 107.554 183.077C107.67 184.56 107.925 186.044 108.296 187.527C108.388 187.898 108.481 188.269 108.597 188.64C108.829 188.686 109.037 188.709 109.246 188.756C109.872 188.872 110.498 188.964 111.124 189.057C111.147 189.057 111.147 189.057 111.17 189.057H111.193C111.239 189.057 111.286 189.08 111.332 189.08C111.494 189.104 111.657 189.127 111.842 189.15C111.912 189.15 111.981 189.173 112.051 189.173C112.12 189.196 112.213 189.196 112.283 189.219C112.514 189.266 112.769 189.289 113.001 189.312C113.836 189.428 114.67 189.521 115.505 189.613C115.736 189.637 115.968 189.66 116.2 189.683C116.339 189.706 116.501 189.706 116.64 189.729C116.988 189.776 117.359 189.799 117.707 189.822C117.846 189.845 118.008 189.845 118.147 189.868C118.217 189.868 118.286 189.892 118.356 189.892C118.588 189.915 118.819 189.938 119.051 189.938C119.097 189.938 119.144 189.938 119.19 189.938C119.7 189.984 120.233 190.008 120.743 190.031C120.975 190.054 121.207 190.054 121.439 190.077C121.624 190.1 121.81 190.1 121.995 190.1C122.041 190.1 122.065 190.1 122.111 190.1C122.412 190.123 122.714 190.123 123.015 190.147C123.247 190.147 123.479 190.17 123.71 190.17C123.965 190.17 124.243 190.193 124.498 190.193C124.73 190.193 124.962 190.193 125.194 190.216C125.449 190.216 125.681 190.216 125.936 190.216C126.167 190.216 126.399 190.216 126.631 190.216C126.77 190.216 126.886 190.216 127.025 190.216C127.164 190.216 127.303 190.216 127.442 190.216C127.535 190.216 127.628 190.216 127.72 190.216C127.813 190.216 127.906 190.216 127.999 190.216C128.138 190.216 128.254 190.216 128.393 190.216C128.416 190.216 128.462 190.216 128.485 190.216C128.555 190.216 128.625 190.216 128.694 190.216C128.787 190.216 128.879 190.216 128.972 190.216C130.803 190.17 132.611 190.077 134.42 189.915C136.483 189.753 138.546 189.498 140.562 189.196C142.764 188.872 144.92 188.478 147.053 187.991C147.099 187.991 147.122 187.968 147.169 187.968V187.991L149.185 187.504C149.463 187.435 149.742 187.365 150.02 187.295C152.662 186.623 155.258 185.858 157.785 184.954C158.202 184.815 158.643 184.653 159.06 184.514C159.176 184.467 159.269 184.444 159.385 184.398C160.173 184.12 160.961 183.818 161.726 183.494C162.352 178.162 161.332 172.669 158.573 167.639Z" fill="#FFB93E"/>
<path d="M156.603 169.076C154.934 166.062 152.732 163.536 150.182 161.519C149.95 161.334 149.695 161.148 149.463 160.963C149.347 160.87 149.232 160.801 149.116 160.731C148.837 160.522 148.536 160.337 148.235 160.152C148.073 160.059 147.91 159.943 147.771 159.85C147.493 159.665 147.192 159.502 146.89 159.34C146.589 159.178 146.288 159.016 145.963 158.853C145.685 158.714 145.384 158.575 145.082 158.436C144.758 158.297 144.433 158.158 144.109 158.019C143.831 157.903 143.529 157.787 143.228 157.694C143.205 157.671 143.158 157.671 143.135 157.671C142.718 157.532 142.277 157.393 141.86 157.254C141.675 157.208 141.489 157.138 141.304 157.092C141.026 157.022 140.724 156.929 140.423 156.883C139.728 156.721 139.032 156.605 138.337 156.489C138.059 156.443 137.757 156.42 137.456 156.373C137.363 156.373 137.271 156.35 137.201 156.35C137.016 156.327 136.83 156.327 136.645 156.304C136.019 156.257 135.416 156.234 134.79 156.234C134.489 156.234 134.211 156.234 133.909 156.257C132.38 156.304 130.873 156.512 129.366 156.837C129.065 156.906 128.787 156.976 128.485 157.045C126.84 157.486 125.194 158.088 123.617 158.9C123.363 159.039 123.108 159.178 122.853 159.317C122.829 159.34 122.783 159.363 122.76 159.363C121.415 160.105 120.14 160.986 118.981 161.936C118.912 162.006 118.819 162.075 118.75 162.122C118.495 162.33 118.24 162.562 118.008 162.794C117.707 163.072 117.428 163.35 117.127 163.629C115.18 165.599 113.58 167.894 112.398 170.444C112.398 170.444 112.398 170.443 112.398 170.467C112.375 170.49 112.375 170.513 112.375 170.536C111.842 171.649 111.402 172.831 111.054 174.036V174.083C111.031 174.106 111.031 174.106 111.007 174.152C110.613 175.45 110.312 176.864 110.173 178.186C110.15 178.394 110.127 178.603 110.103 178.812C110.034 179.507 110.011 180.226 110.011 180.921C110.011 183.007 110.266 185.07 110.799 187.087C110.822 187.18 110.845 187.249 110.868 187.342C111.007 187.875 111.17 188.385 111.332 188.895C111.494 188.918 111.657 188.941 111.842 188.964C111.912 188.964 111.981 188.988 112.051 188.988C112.12 189.011 112.213 189.011 112.282 189.034C112.514 189.08 112.769 189.104 113.001 189.127C112.908 188.895 112.816 188.64 112.746 188.408C112.63 188.06 112.514 187.713 112.398 187.342C112.306 186.994 112.213 186.716 112.12 186.368V186.276C111.541 183.842 111.355 181.338 111.587 178.812C111.726 177.328 112.004 175.844 112.421 174.384C112.607 173.781 112.792 173.179 113.024 172.576C113.326 171.788 113.65 171.023 114.044 170.281C114.044 170.281 114.044 170.281 114.044 170.258C114.879 168.589 115.922 167.036 117.127 165.645C117.405 165.321 117.707 164.996 118.008 164.695C118.958 163.698 120.025 162.771 121.16 161.96C121.253 161.89 121.346 161.82 121.439 161.774H121.462C121.902 161.473 122.319 161.171 122.783 160.916C123.038 160.754 123.316 160.592 123.594 160.453C123.617 160.43 123.641 160.43 123.664 160.43C125.24 159.572 126.863 158.9 128.532 158.436C128.81 158.343 129.111 158.274 129.413 158.204C130.919 157.833 132.449 157.648 133.979 157.579C134.257 157.579 134.558 157.555 134.837 157.555C135.092 157.555 135.37 157.555 135.625 157.579C135.903 157.579 136.158 157.602 136.436 157.625C136.784 157.648 137.155 157.671 137.502 157.718C137.804 157.741 138.082 157.787 138.36 157.834C139.055 157.949 139.751 158.088 140.446 158.251C140.609 158.297 140.771 158.343 140.956 158.39C141.072 158.413 141.211 158.459 141.327 158.506C141.628 158.598 141.953 158.691 142.254 158.784C142.602 158.9 142.927 159.016 143.274 159.155C143.576 159.271 143.854 159.387 144.155 159.502C144.48 159.642 144.804 159.804 145.129 159.966C145.43 160.105 145.708 160.267 146.009 160.406C146.311 160.569 146.635 160.754 146.937 160.94C147.238 161.125 147.516 161.311 147.818 161.496C147.98 161.612 148.142 161.705 148.281 161.82C148.374 161.89 148.49 161.96 148.582 162.029C151.295 163.976 153.613 166.549 155.328 169.655C157.901 174.338 158.782 179.623 157.901 184.792C158.318 184.653 158.759 184.491 159.176 184.352C159.292 184.305 159.384 184.282 159.5 184.236C160.196 179.136 159.222 173.805 156.603 169.076Z" fill="#FFA412"/>
<path d="M134.165 189.544C133.701 189.08 133.307 188.408 132.959 187.574L128.486 189.382C128.486 189.637 128.486 189.915 128.509 190.17C128.532 190.17 128.578 190.17 128.602 190.17C128.671 190.17 128.741 190.17 128.81 190.17C128.903 190.17 128.996 190.17 129.088 190.17C130.92 190.123 132.728 190.031 134.536 189.868C134.397 189.776 134.281 189.66 134.165 189.544ZM134.165 189.544C133.701 189.08 133.307 188.408 132.959 187.574L128.486 189.382C128.486 189.637 128.486 189.915 128.509 190.17C128.532 190.17 128.578 190.17 128.602 190.17C128.671 190.17 128.741 190.17 128.81 190.17C128.903 190.17 128.996 190.17 129.088 190.17C130.92 190.123 132.728 190.031 134.536 189.868C134.397 189.776 134.281 189.66 134.165 189.544ZM134.165 189.544C133.701 189.08 133.307 188.408 132.959 187.574L128.486 189.382C128.486 189.637 128.486 189.915 128.509 190.17C128.532 190.17 128.578 190.17 128.602 190.17C128.671 190.17 128.741 190.17 128.81 190.17C128.903 190.17 128.996 190.17 129.088 190.17C130.92 190.123 132.728 190.031 134.536 189.868C134.397 189.776 134.281 189.66 134.165 189.544ZM134.165 189.544C133.701 189.08 133.307 188.408 132.959 187.574L128.486 189.382C128.486 189.637 128.486 189.915 128.509 190.17C128.532 190.17 128.578 190.17 128.602 190.17C128.671 190.17 128.741 190.17 128.81 190.17C128.903 190.17 128.996 190.17 129.088 190.17C130.92 190.123 132.728 190.031 134.536 189.868C134.397 189.776 134.281 189.66 134.165 189.544ZM134.165 189.544C133.701 189.08 133.307 188.408 132.959 187.574L128.486 189.382C128.486 189.637 128.486 189.915 128.509 190.17C128.532 190.17 128.578 190.17 128.602 190.17C128.671 190.17 128.741 190.17 128.81 190.17C128.903 190.17 128.996 190.17 129.088 190.17C130.92 190.123 132.728 190.031 134.536 189.868C134.397 189.776 134.281 189.66 134.165 189.544ZM134.165 189.544C133.701 189.08 133.307 188.408 132.959 187.574L128.486 189.382C128.486 189.637 128.486 189.915 128.509 190.17C128.532 190.17 128.578 190.17 128.602 190.17C128.671 190.17 128.741 190.17 128.81 190.17C128.903 190.17 128.996 190.17 129.088 190.17C130.92 190.123 132.728 190.031 134.536 189.868C134.397 189.776 134.281 189.66 134.165 189.544ZM147.285 184.722C147.192 184.305 147.053 183.865 146.868 183.448C146.728 183.1 146.566 182.775 146.404 182.474C146.265 182.196 146.103 181.941 145.917 181.709C145.894 181.686 145.894 181.663 145.871 181.663C145.616 181.315 145.338 180.99 145.036 180.712C144.758 180.457 144.457 180.226 144.132 179.994C143.854 179.808 143.576 179.646 143.251 179.507C142.996 179.391 142.718 179.275 142.44 179.182C142.394 179.159 142.324 179.136 142.278 179.136C142.185 179.113 142.116 179.09 142.023 179.043C142 179.043 141.953 179.02 141.93 179.02C141.119 178.788 140.215 178.626 139.264 178.58C139.218 178.58 139.195 178.58 139.149 178.58C138.894 178.557 138.639 178.557 138.384 178.533C137.387 178.487 136.321 178.487 135.185 178.51C134.698 178.533 134.258 178.533 133.84 178.51C133.516 178.51 133.238 178.487 132.959 178.464C132.936 178.464 132.936 178.464 132.913 178.464C132.287 178.417 131.754 178.302 131.314 178.116C130.873 177.931 130.526 177.699 130.247 177.398C129.969 177.096 129.737 176.725 129.575 176.285C129.552 176.239 129.529 176.192 129.529 176.146C129.39 175.752 129.297 175.358 129.274 174.964C129.251 174.732 129.274 174.523 129.32 174.291C129.343 174.106 129.413 173.921 129.482 173.735C129.645 173.341 129.9 172.993 130.247 172.669C130.433 172.483 130.665 172.321 130.896 172.182C131.105 172.043 131.36 171.927 131.638 171.811C132.102 171.626 132.542 171.51 132.983 171.51C133.284 171.487 133.562 171.51 133.863 171.579C134.118 171.626 134.373 171.718 134.605 171.834C135.532 172.275 136.274 173.225 136.854 174.662L138.407 174.036L139.288 173.689L141.953 172.599L142.417 172.414C142.278 172.066 142.116 171.718 141.953 171.417V171.278C141.791 170.977 141.629 170.768 141.443 170.49C141.443 170.49 141.443 170.49 141.443 170.467C141.397 170.397 141.351 170.304 141.281 170.235C141.072 169.91 140.841 169.609 140.586 169.331C140.516 169.238 140.447 169.169 140.354 169.099C140.076 168.821 139.798 168.543 139.473 168.311C139.149 168.056 138.824 167.847 138.499 167.662C138.384 167.592 138.245 167.523 138.129 167.453C137.966 167.384 137.804 167.291 137.642 167.245C137.248 167.082 136.831 166.966 136.39 166.851C136.158 166.804 135.926 166.758 135.695 166.735C135.509 166.712 135.324 166.688 135.138 166.688C135.069 166.688 134.999 166.688 134.93 166.688C134.883 166.688 134.837 166.688 134.814 166.688C134.142 166.665 133.446 166.712 132.728 166.827C132.449 166.874 132.148 166.943 131.847 167.013C131.824 167.013 131.8 167.036 131.777 167.036L131.592 166.572L130.711 164.393L130.201 163.165L129.181 163.582L128.3 163.93L127.118 164.417L128.3 167.314L128.393 167.523L128.671 168.241C128.555 168.311 128.416 168.38 128.3 168.45C127.906 168.659 127.535 168.89 127.211 169.122C126.724 169.47 126.26 169.841 125.866 170.235C125.774 170.328 125.704 170.397 125.611 170.49C125.611 170.49 125.611 170.49 125.588 170.513C124.939 171.208 124.429 171.927 124.081 172.715C123.896 173.109 123.757 173.526 123.641 173.944C123.502 174.454 123.432 174.987 123.432 175.52C123.409 176.494 123.618 177.49 124.012 178.51C124.081 178.696 124.174 178.858 124.244 179.043C124.452 179.461 124.661 179.855 124.916 180.202C124.985 180.295 125.055 180.388 125.125 180.481C125.333 180.735 125.542 180.967 125.75 181.199L125.82 181.269C126.075 181.5 126.376 181.732 126.654 181.918C126.933 182.103 127.211 182.265 127.535 182.428C127.813 182.567 128.115 182.683 128.416 182.799C129.065 183.03 129.784 183.193 130.526 183.285C130.896 183.332 131.314 183.378 131.708 183.401C131.824 183.401 131.94 183.424 132.079 183.424C132.357 183.448 132.658 183.448 132.959 183.448C133.794 183.471 134.698 183.448 135.625 183.401C135.648 183.401 135.672 183.401 135.695 183.401C135.973 183.378 136.228 183.378 136.483 183.378C136.993 183.378 137.433 183.378 137.85 183.424C138.105 183.448 138.337 183.471 138.569 183.517C138.894 183.587 139.172 183.656 139.45 183.772C139.89 183.958 140.261 184.213 140.563 184.537C140.864 184.862 141.096 185.279 141.304 185.766C141.327 185.812 141.351 185.835 141.374 185.881V185.974C141.513 186.345 141.559 186.716 141.559 187.087C141.559 187.249 141.536 187.435 141.513 187.597C141.467 187.852 141.374 188.107 141.258 188.339C141.096 188.64 140.887 188.941 140.609 189.219C142.811 188.895 144.967 188.501 147.099 188.014C147.146 188.014 147.169 187.991 147.215 187.991C147.262 187.852 147.285 187.69 147.308 187.55C147.377 187.226 147.401 186.878 147.424 186.531C147.493 185.905 147.424 185.302 147.285 184.722ZM134.165 189.544C133.701 189.08 133.307 188.408 132.959 187.574L128.486 189.382C128.486 189.637 128.486 189.915 128.509 190.17C128.532 190.17 128.578 190.17 128.602 190.17C128.671 190.17 128.741 190.17 128.81 190.17C128.903 190.17 128.996 190.17 129.088 190.17C130.92 190.123 132.728 190.031 134.536 189.868C134.397 189.776 134.281 189.66 134.165 189.544ZM134.165 189.544C133.701 189.08 133.307 188.408 132.959 187.574L128.486 189.382C128.486 189.637 128.486 189.915 128.509 190.17C128.532 190.17 128.578 190.17 128.602 190.17C128.671 190.17 128.741 190.17 128.81 190.17C128.903 190.17 128.996 190.17 129.088 190.17C130.92 190.123 132.728 190.031 134.536 189.868C134.397 189.776 134.281 189.66 134.165 189.544ZM134.165 189.544C133.701 189.08 133.307 188.408 132.959 187.574L128.486 189.382C128.486 189.637 128.486 189.915 128.509 190.17C128.532 190.17 128.578 190.17 128.602 190.17C128.671 190.17 128.741 190.17 128.81 190.17C128.903 190.17 128.996 190.17 129.088 190.17C130.92 190.123 132.728 190.031 134.536 189.868C134.397 189.776 134.281 189.66 134.165 189.544ZM134.165 189.544C133.701 189.08 133.307 188.408 132.959 187.574L128.486 189.382C128.486 189.637 128.486 189.915 128.509 190.17C128.532 190.17 128.578 190.17 128.602 190.17C128.671 190.17 128.741 190.17 128.81 190.17C128.903 190.17 128.996 190.17 129.088 190.17C130.92 190.123 132.728 190.031 134.536 189.868C134.397 189.776 134.281 189.66 134.165 189.544ZM134.165 189.544C133.701 189.08 133.307 188.408 132.959 187.574L128.486 189.382C128.486 189.637 128.486 189.915 128.509 190.17C128.532 190.17 128.578 190.17 128.602 190.17C128.671 190.17 128.741 190.17 128.81 190.17C128.903 190.17 128.996 190.17 129.088 190.17C130.92 190.123 132.728 190.031 134.536 189.868C134.397 189.776 134.281 189.66 134.165 189.544ZM134.165 189.544C133.701 189.08 133.307 188.408 132.959 187.574L128.486 189.382C128.486 189.637 128.486 189.915 128.509 190.17C128.532 190.17 128.578 190.17 128.602 190.17C128.671 190.17 128.741 190.17 128.81 190.17C128.903 190.17 128.996 190.17 129.088 190.17C130.92 190.123 132.728 190.031 134.536 189.868C134.397 189.776 134.281 189.66 134.165 189.544ZM134.165 189.544C133.701 189.08 133.307 188.408 132.959 187.574L128.486 189.382L127.396 189.822C127.443 189.938 127.489 190.077 127.558 190.193C127.651 190.193 127.744 190.193 127.837 190.193C127.929 190.193 128.022 190.193 128.115 190.193C128.254 190.193 128.37 190.193 128.509 190.193C128.532 190.193 128.578 190.193 128.602 190.193C128.671 190.193 128.741 190.193 128.81 190.193C128.903 190.193 128.996 190.193 129.088 190.193C130.92 190.147 132.728 190.054 134.536 189.892C134.397 189.776 134.281 189.66 134.165 189.544Z" fill="#FFA412"/>
</svg>
