<svg width="268" height="268" viewBox="0 0 268 268" fill="none" xmlns="http://www.w3.org/2000/svg">
<path d="M233.8 180H231.4C231.209 180 231.026 179.915 230.891 179.763C230.756 179.611 230.68 179.405 230.68 179.191C230.68 178.976 230.756 178.77 230.891 178.619C231.026 178.467 231.209 178.382 231.4 178.382H233.8C233.991 178.382 234.174 178.467 234.309 178.619C234.444 178.77 234.52 178.976 234.52 179.191C234.52 179.405 234.444 179.611 234.309 179.763C234.174 179.915 233.991 180 233.8 180ZM229 180H226.6C226.409 180 226.226 179.915 226.091 179.763C225.956 179.611 225.88 179.405 225.88 179.191C225.88 178.976 225.956 178.77 226.091 178.619C226.226 178.467 226.409 178.382 226.6 178.382H229C229.191 178.382 229.374 178.467 229.509 178.619C229.644 178.77 229.72 178.976 229.72 179.191C229.72 179.405 229.644 179.611 229.509 179.763C229.374 179.915 229.191 180 229 180ZM224.201 180H221.801C221.61 180 221.427 179.915 221.292 179.763C221.157 179.611 221.081 179.405 221.081 179.191C221.081 178.976 221.157 178.77 221.292 178.619C221.427 178.467 221.61 178.382 221.801 178.382H224.201C224.392 178.382 224.575 178.467 224.71 178.619C224.845 178.77 224.921 178.976 224.921 179.191C224.921 179.405 224.845 179.611 224.71 179.763C224.575 179.915 224.392 180 224.201 180ZM219.401 180H217.001C216.81 180 216.627 179.915 216.492 179.763C216.357 179.611 216.281 179.405 216.281 179.191C216.281 178.976 216.357 178.77 216.492 178.619C216.627 178.467 216.81 178.382 217.001 178.382H219.401C219.592 178.382 219.775 178.467 219.91 178.619C220.045 178.77 220.121 178.976 220.121 179.191C220.121 179.405 220.045 179.611 219.91 179.763C219.775 179.915 219.592 180 219.401 180ZM214.601 180H212.202C212.011 180 211.828 179.915 211.692 179.763C211.557 179.611 211.482 179.405 211.482 179.191C211.482 178.976 211.557 178.77 211.692 178.619C211.828 178.467 212.011 178.382 212.202 178.382H214.601C214.792 178.382 214.975 178.467 215.11 178.619C215.245 178.77 215.321 178.976 215.321 179.191C215.321 179.405 215.245 179.611 215.11 179.763C214.975 179.915 214.792 180 214.601 180ZM209.802 180H207.402C207.211 180 207.028 179.915 206.893 179.763C206.758 179.611 206.682 179.405 206.682 179.191C206.682 178.976 206.758 178.77 206.893 178.619C207.028 178.467 207.211 178.382 207.402 178.382H209.802C209.993 178.382 210.176 178.467 210.311 178.619C210.446 178.77 210.522 178.976 210.522 179.191C210.522 179.405 210.446 179.611 210.311 179.763C210.176 179.915 209.993 180 209.802 180ZM205.002 180H202.602C202.411 180 202.228 179.915 202.093 179.763C201.958 179.611 201.882 179.405 201.882 179.191C201.882 178.976 201.958 178.77 202.093 178.619C202.228 178.467 202.411 178.382 202.602 178.382H205.002C205.193 178.382 205.376 178.467 205.511 178.619C205.646 178.77 205.722 178.976 205.722 179.191C205.722 179.405 205.646 179.611 205.511 179.763C205.376 179.915 205.193 180 205.002 180ZM200.203 180H197.803C197.612 180 197.429 179.915 197.294 179.763C197.159 179.611 197.083 179.405 197.083 179.191C197.083 178.976 197.159 178.77 197.294 178.619C197.429 178.467 197.612 178.382 197.803 178.382H200.203C200.393 178.382 200.577 178.467 200.712 178.619C200.847 178.77 200.922 178.976 200.922 179.191C200.922 179.405 200.847 179.611 200.712 179.763C200.577 179.915 200.393 180 200.203 180ZM195.403 180H193.003C192.812 180 192.629 179.915 192.494 179.763C192.359 179.611 192.283 179.405 192.283 179.191C192.283 178.976 192.359 178.77 192.494 178.619C192.629 178.467 192.812 178.382 193.003 178.382H195.403C195.594 178.382 195.777 178.467 195.912 178.619C196.047 178.77 196.123 178.976 196.123 179.191C196.123 179.405 196.047 179.611 195.912 179.763C195.777 179.915 195.594 180 195.403 180ZM234.28 177.842C234.089 177.842 233.906 177.757 233.771 177.605C233.636 177.453 233.56 177.248 233.56 177.033V174.336C233.56 174.121 233.636 173.915 233.771 173.764C233.906 173.612 234.089 173.527 234.28 173.527C234.471 173.527 234.654 173.612 234.789 173.764C234.924 173.915 235 174.121 235 174.336V177.033C235.002 177.139 234.986 177.245 234.952 177.344C234.919 177.444 234.868 177.534 234.803 177.612C234.737 177.689 234.659 177.751 234.573 177.794C234.487 177.837 234.394 177.861 234.299 177.864L234.28 177.842ZM192.744 177.551C192.553 177.551 192.37 177.466 192.235 177.314C192.1 177.162 192.024 176.956 192.024 176.742V174.045C192.024 173.83 192.1 173.624 192.235 173.472C192.37 173.321 192.553 173.235 192.744 173.235C192.935 173.235 193.118 173.321 193.253 173.472C193.388 173.624 193.464 173.83 193.464 174.045V176.742C193.466 176.848 193.45 176.954 193.416 177.053C193.383 177.152 193.332 177.243 193.267 177.32C193.202 177.397 193.124 177.459 193.037 177.503C192.951 177.546 192.858 177.57 192.763 177.572L192.744 177.551ZM234.28 172.448C234.089 172.448 233.906 172.362 233.771 172.211C233.636 172.059 233.56 171.853 233.56 171.639V168.941C233.56 168.727 233.636 168.521 233.771 168.369C233.906 168.217 234.089 168.132 234.28 168.132C234.471 168.132 234.654 168.217 234.789 168.369C234.924 168.521 235 168.727 235 168.941V171.639C235.002 171.745 234.986 171.851 234.952 171.95C234.919 172.049 234.868 172.14 234.803 172.217C234.737 172.294 234.659 172.356 234.573 172.4C234.487 172.443 234.394 172.467 234.299 172.469L234.28 172.448ZM192.744 172.156C192.553 172.156 192.37 172.071 192.235 171.919C192.1 171.768 192.024 171.562 192.024 171.347V168.65C192.024 168.435 192.1 168.23 192.235 168.078C192.37 167.926 192.553 167.841 192.744 167.841C192.935 167.841 193.118 167.926 193.253 168.078C193.388 168.23 193.464 168.435 193.464 168.65V171.347C193.466 171.454 193.45 171.559 193.416 171.659C193.383 171.758 193.332 171.849 193.267 171.926C193.202 172.003 193.124 172.065 193.037 172.108C192.951 172.152 192.858 172.175 192.763 172.178L192.744 172.156ZM192.744 166.762C192.553 166.762 192.37 166.677 192.235 166.525C192.1 166.373 192.024 166.167 192.024 165.953V163.256C192.024 163.041 192.1 162.835 192.235 162.683C192.37 162.532 192.553 162.446 192.744 162.446C192.935 162.446 193.118 162.532 193.253 162.683C193.388 162.835 193.464 163.041 193.464 163.256V165.953C193.466 166.059 193.45 166.165 193.416 166.264C193.383 166.363 193.332 166.454 193.267 166.531C193.202 166.609 193.124 166.671 193.037 166.714C192.951 166.757 192.858 166.781 192.763 166.784L192.744 166.762ZM192.744 161.368C192.553 161.368 192.37 161.282 192.235 161.131C192.1 160.979 192.024 160.773 192.024 160.558V157.861C192.024 157.647 192.1 157.441 192.235 157.289C192.37 157.137 192.553 157.052 192.744 157.052C192.935 157.052 193.118 157.137 193.253 157.289C193.388 157.441 193.464 157.647 193.464 157.861V160.558C193.466 160.665 193.45 160.77 193.416 160.87C193.383 160.969 193.332 161.06 193.267 161.137C193.202 161.214 193.124 161.276 193.037 161.319C192.951 161.363 192.858 161.386 192.763 161.389L192.744 161.368ZM192.744 155.973C192.553 155.973 192.37 155.888 192.235 155.736C192.1 155.584 192.024 155.378 192.024 155.164V152.467C192.024 152.252 192.1 152.046 192.235 151.894C192.37 151.743 192.553 151.657 192.744 151.657C192.935 151.657 193.118 151.743 193.253 151.894C193.388 152.046 193.464 152.252 193.464 152.467V155.164C193.466 155.27 193.45 155.376 193.416 155.475C193.383 155.574 193.332 155.665 193.267 155.742C193.202 155.82 193.124 155.882 193.037 155.925C192.951 155.968 192.858 155.992 192.763 155.995L192.744 155.973ZM192.744 150.579C192.553 150.579 192.37 150.493 192.235 150.342C192.1 150.19 192.024 149.984 192.024 149.769V149.618H191.198C191.008 149.618 190.824 149.533 190.689 149.381C190.554 149.23 190.479 149.024 190.479 148.809C190.479 148.595 190.554 148.389 190.689 148.237C190.824 148.085 191.008 148 191.198 148H192.744C192.935 148 193.118 148.085 193.253 148.237C193.388 148.389 193.464 148.595 193.464 148.809V149.769C193.466 149.876 193.45 149.981 193.416 150.081C193.383 150.18 193.332 150.271 193.267 150.348C193.202 150.425 193.124 150.487 193.037 150.53C192.951 150.574 192.858 150.597 192.763 150.6L192.744 150.579ZM188.799 149.618H186.399C186.208 149.618 186.025 149.533 185.89 149.381C185.755 149.23 185.679 149.024 185.679 148.809C185.679 148.595 185.755 148.389 185.89 148.237C186.025 148.085 186.208 148 186.399 148H188.799C188.99 148 189.173 148.085 189.308 148.237C189.443 148.389 189.519 148.595 189.519 148.809C189.519 149.024 189.443 149.23 189.308 149.381C189.173 149.533 188.99 149.618 188.799 149.618ZM183.999 149.618H181.599C181.408 149.618 181.225 149.533 181.09 149.381C180.955 149.23 180.879 149.024 180.879 148.809C180.879 148.595 180.955 148.389 181.09 148.237C181.225 148.085 181.408 148 181.599 148H183.999C184.19 148 184.373 148.085 184.508 148.237C184.643 148.389 184.719 148.595 184.719 148.809C184.719 149.024 184.643 149.23 184.508 149.381C184.373 149.533 184.19 149.618 183.999 149.618ZM179.199 149.618H176.8C176.609 149.618 176.426 149.533 176.291 149.381C176.156 149.23 176.08 149.024 176.08 148.809C176.08 148.595 176.156 148.389 176.291 148.237C176.426 148.085 176.609 148 176.8 148H179.199C179.39 148 179.573 148.085 179.709 148.237C179.844 148.389 179.919 148.595 179.919 148.809C179.919 149.024 179.844 149.23 179.709 149.381C179.573 149.533 179.39 149.618 179.199 149.618ZM174.4 149.618H172.72C172.529 149.618 172.346 149.533 172.211 149.381C172.076 149.23 172 149.024 172 148.809C172 148.595 172.076 148.389 172.211 148.237C172.346 148.085 172.529 148 172.72 148H174.4C174.591 148 174.774 148.085 174.909 148.237C175.044 148.389 175.12 148.595 175.12 148.809C175.12 149.024 175.044 149.23 174.909 149.381C174.774 149.533 174.591 149.618 174.4 149.618Z" fill="#6699FF"/>
<path d="M76.33 180H73.854C73.657 180 73.4681 179.915 73.3288 179.763C73.1895 179.611 73.1112 179.405 73.1112 179.191C73.1112 178.976 73.1895 178.77 73.3288 178.619C73.4681 178.467 73.657 178.382 73.854 178.382H76.33C76.527 178.382 76.716 178.467 76.8553 178.619C76.9946 178.77 77.0728 178.976 77.0728 179.191C77.0728 179.405 76.9946 179.611 76.8553 179.763C76.716 179.915 76.527 180 76.33 180ZM71.378 180H68.902C68.705 180 68.5161 179.915 68.3768 179.763C68.2375 179.611 68.1592 179.405 68.1592 179.191C68.1592 178.976 68.2375 178.77 68.3768 178.619C68.5161 178.467 68.705 178.382 68.902 178.382H71.378C71.575 178.382 71.764 178.467 71.9033 178.619C72.0426 178.77 72.1208 178.976 72.1208 179.191C72.1208 179.405 72.0426 179.611 71.9033 179.763C71.764 179.915 71.575 180 71.378 180ZM66.426 180H63.95C63.753 180 63.5641 179.915 63.4248 179.763C63.2855 179.611 63.2072 179.405 63.2072 179.191C63.2072 178.976 63.2855 178.77 63.4248 178.619C63.5641 178.467 63.753 178.382 63.95 178.382H66.426C66.623 178.382 66.812 178.467 66.9513 178.619C67.0906 178.77 67.1688 178.976 67.1688 179.191C67.1688 179.405 67.0906 179.611 66.9513 179.763C66.812 179.915 66.623 180 66.426 180ZM61.474 180H58.998C58.801 180 58.6121 179.915 58.4728 179.763C58.3335 179.611 58.2552 179.405 58.2552 179.191C58.2552 178.976 58.3335 178.77 58.4728 178.619C58.6121 178.467 58.801 178.382 58.998 178.382H61.474C61.671 178.382 61.86 178.467 61.9993 178.619C62.1386 178.77 62.2168 178.976 62.2168 179.191C62.2168 179.405 62.1386 179.611 61.9993 179.763C61.86 179.915 61.671 180 61.474 180ZM56.522 180H54.046C53.849 180 53.6601 179.915 53.5208 179.763C53.3815 179.611 53.3032 179.405 53.3032 179.191C53.3032 178.976 53.3815 178.77 53.5208 178.619C53.6601 178.467 53.849 178.382 54.046 178.382H56.522C56.719 178.382 56.908 178.467 57.0473 178.619C57.1866 178.77 57.2648 178.976 57.2648 179.191C57.2648 179.405 57.1866 179.611 57.0473 179.763C56.908 179.915 56.719 180 56.522 180ZM51.57 180H49.094C48.897 180 48.7081 179.915 48.5688 179.763C48.4295 179.611 48.3512 179.405 48.3512 179.191C48.3512 178.976 48.4295 178.77 48.5688 178.619C48.7081 178.467 48.897 178.382 49.094 178.382H51.57C51.767 178.382 51.9559 178.467 52.0953 178.619C52.2346 178.77 52.3128 178.976 52.3128 179.191C52.3128 179.405 52.2346 179.611 52.0953 179.763C51.9559 179.915 51.767 180 51.57 180ZM46.618 180H44.142C43.945 180 43.7561 179.915 43.6168 179.763C43.4775 179.611 43.3992 179.405 43.3992 179.191C43.3992 178.976 43.4775 178.77 43.6168 178.619C43.7561 178.467 43.945 178.382 44.142 178.382H46.618C46.815 178.382 47.0039 178.467 47.1432 178.619C47.2826 178.77 47.3608 178.976 47.3608 179.191C47.3608 179.405 47.2826 179.611 47.1432 179.763C47.0039 179.915 46.815 180 46.618 180ZM41.666 180H39.19C38.993 180 38.8041 179.915 38.6648 179.763C38.5255 179.611 38.4472 179.405 38.4472 179.191C38.4472 178.976 38.5255 178.77 38.6648 178.619C38.8041 178.467 38.993 178.382 39.19 178.382H41.666C41.863 178.382 42.0519 178.467 42.1912 178.619C42.3305 178.77 42.4088 178.976 42.4088 179.191C42.4088 179.405 42.3305 179.611 42.1912 179.763C42.0519 179.915 41.863 180 41.666 180ZM36.714 180H34.238C34.041 180 33.8521 179.915 33.7128 179.763C33.5735 179.611 33.4952 179.405 33.4952 179.191C33.4952 178.976 33.5735 178.77 33.7128 178.619C33.8521 178.467 34.041 178.382 34.238 178.382H36.714C36.911 178.382 37.0999 178.467 37.2392 178.619C37.3785 178.77 37.4568 178.976 37.4568 179.191C37.4568 179.405 37.3785 179.611 37.2392 179.763C37.0999 179.915 36.911 180 36.714 180ZM33.7428 177.842C33.5458 177.842 33.3569 177.757 33.2176 177.605C33.0783 177.453 33 177.248 33 177.033V174.336C33 174.121 33.0783 173.915 33.2176 173.764C33.3569 173.612 33.5458 173.527 33.7428 173.527C33.9398 173.527 34.1287 173.612 34.268 173.764C34.4073 173.915 34.4856 174.121 34.4856 174.336V177.033C34.4883 177.143 34.4705 177.252 34.4331 177.354C34.3957 177.457 34.3397 177.549 34.2683 177.627C34.1969 177.705 34.1118 177.766 34.018 177.807C33.9243 177.847 33.8239 177.867 33.723 177.864L33.7428 177.842ZM76.5974 177.551C76.4004 177.551 76.2115 177.466 76.0722 177.314C75.9329 177.162 75.8546 176.956 75.8546 176.742V174.045C75.8546 173.83 75.9329 173.624 76.0722 173.472C76.2115 173.321 76.4004 173.235 76.5974 173.235C76.7944 173.235 76.9834 173.321 77.1227 173.472C77.262 173.624 77.3402 173.83 77.3402 174.045V176.742C77.343 176.852 77.3251 176.961 77.2877 177.063C77.2504 177.165 77.1943 177.258 77.1229 177.336C77.0516 177.414 76.9664 177.475 76.8727 177.515C76.7789 177.556 76.6785 177.575 76.5776 177.572L76.5974 177.551ZM33.7428 172.448C33.5458 172.448 33.3569 172.362 33.2176 172.211C33.0783 172.059 33 171.853 33 171.639V168.941C33 168.727 33.0783 168.521 33.2176 168.369C33.3569 168.217 33.5458 168.132 33.7428 168.132C33.9398 168.132 34.1287 168.217 34.268 168.369C34.4073 168.521 34.4856 168.727 34.4856 168.941V171.639C34.4883 171.748 34.4705 171.858 34.4331 171.96C34.3957 172.062 34.3397 172.155 34.2683 172.233C34.1969 172.31 34.1118 172.371 34.018 172.412C33.9243 172.453 33.8239 172.472 33.723 172.469L33.7428 172.448ZM76.5974 172.156C76.4004 172.156 76.2115 172.071 76.0722 171.919C75.9329 171.768 75.8546 171.562 75.8546 171.347V168.65C75.8546 168.435 75.9329 168.23 76.0722 168.078C76.2115 167.926 76.4004 167.841 76.5974 167.841C76.7944 167.841 76.9834 167.926 77.1227 168.078C77.262 168.23 77.3402 168.435 77.3402 168.65V171.347C77.343 171.457 77.3251 171.567 77.2877 171.669C77.2504 171.771 77.1943 171.864 77.1229 171.941C77.0516 172.019 76.9664 172.08 76.8727 172.121C76.7789 172.162 76.6785 172.181 76.5776 172.178L76.5974 172.156ZM76.5974 166.762C76.4004 166.762 76.2115 166.677 76.0722 166.525C75.9329 166.373 75.8546 166.167 75.8546 165.953V163.256C75.8546 163.041 75.9329 162.835 76.0722 162.683C76.2115 162.532 76.4004 162.446 76.5974 162.446C76.7944 162.446 76.9834 162.532 77.1227 162.683C77.262 162.835 77.3402 163.041 77.3402 163.256V165.953C77.343 166.063 77.3251 166.172 77.2877 166.274C77.2504 166.376 77.1943 166.469 77.1229 166.547C77.0516 166.625 76.9664 166.686 76.8727 166.726C76.7789 166.767 76.6785 166.787 76.5776 166.784L76.5974 166.762ZM76.5974 161.368C76.4004 161.368 76.2115 161.282 76.0722 161.131C75.9329 160.979 75.8546 160.773 75.8546 160.558V157.861C75.8546 157.647 75.9329 157.441 76.0722 157.289C76.2115 157.137 76.4004 157.052 76.5974 157.052C76.7944 157.052 76.9834 157.137 77.1227 157.289C77.262 157.441 77.3402 157.647 77.3402 157.861V160.558C77.343 160.668 77.3251 160.778 77.2877 160.88C77.2504 160.982 77.1943 161.075 77.1229 161.152C77.0516 161.23 76.9664 161.291 76.8727 161.332C76.7789 161.373 76.6785 161.392 76.5776 161.389L76.5974 161.368ZM76.5974 155.973C76.4004 155.973 76.2115 155.888 76.0722 155.736C75.9329 155.584 75.8546 155.378 75.8546 155.164V152.467C75.8546 152.252 75.9329 152.046 76.0722 151.894C76.2115 151.743 76.4004 151.657 76.5974 151.657C76.7944 151.657 76.9834 151.743 77.1227 151.894C77.262 152.046 77.3402 152.252 77.3402 152.467V155.164C77.343 155.274 77.3251 155.383 77.2877 155.485C77.2504 155.587 77.1943 155.68 77.1229 155.758C77.0516 155.836 76.9664 155.897 76.8727 155.937C76.7789 155.978 76.6785 155.998 76.5776 155.995L76.5974 155.973ZM76.5974 150.579C76.4004 150.579 76.2115 150.493 76.0722 150.342C75.9329 150.19 75.8546 149.984 75.8546 149.769V148.831C75.8546 148.616 75.9329 148.41 76.0722 148.259C76.2115 148.107 76.4004 148.022 76.5974 148.022H78.192C78.389 148.022 78.5779 148.107 78.7172 148.259C78.8565 148.41 78.9348 148.616 78.9348 148.831C78.9348 149.045 78.8565 149.251 78.7172 149.403C78.5779 149.555 78.389 149.64 78.192 149.64H77.3204V149.791C77.3204 149.897 77.3012 150.002 77.2639 150.101C77.2266 150.199 77.1718 150.288 77.1029 150.363C77.0339 150.438 76.952 150.498 76.8619 150.539C76.7718 150.579 76.6752 150.6 76.5776 150.6L76.5974 150.579ZM97.2572 149.618H95.524C95.327 149.618 95.1381 149.533 94.9988 149.381C94.8595 149.23 94.7812 149.024 94.7812 148.809C94.7812 148.595 94.8595 148.389 94.9988 148.237C95.1381 148.085 95.327 148 95.524 148H97.2572C97.4542 148 97.6431 148.085 97.7824 148.237C97.9217 148.389 98 148.595 98 148.809C98 149.024 97.9217 149.23 97.7824 149.381C97.6431 149.533 97.4542 149.618 97.2572 149.618ZM93.048 149.618H90.572C90.375 149.618 90.1861 149.533 90.0467 149.381C89.9074 149.23 89.8292 149.024 89.8292 148.809C89.8292 148.595 89.9074 148.389 90.0467 148.237C90.1861 148.085 90.375 148 90.572 148H93.048C93.245 148 93.4339 148.085 93.5732 148.237C93.7125 148.389 93.7908 148.595 93.7908 148.809C93.7908 149.024 93.7125 149.23 93.5732 149.381C93.4339 149.533 93.245 149.618 93.048 149.618ZM88.096 149.618H85.62C85.423 149.618 85.234 149.533 85.0947 149.381C84.9554 149.23 84.8772 149.024 84.8772 148.809C84.8772 148.595 84.9554 148.389 85.0947 148.237C85.234 148.085 85.423 148 85.62 148H88.096C88.293 148 88.4819 148.085 88.6212 148.237C88.7605 148.389 88.8388 148.595 88.8388 148.809C88.8388 149.024 88.7605 149.23 88.6212 149.381C88.4819 149.533 88.293 149.618 88.096 149.618ZM83.144 149.618H80.668C80.471 149.618 80.282 149.533 80.1427 149.381C80.0034 149.23 79.9252 149.024 79.9252 148.809C79.9252 148.595 80.0034 148.389 80.1427 148.237C80.282 148.085 80.471 148 80.668 148H83.144C83.341 148 83.5299 148.085 83.6692 148.237C83.8085 148.389 83.8868 148.595 83.8868 148.809C83.8868 149.024 83.8085 149.23 83.6692 149.381C83.5299 149.533 83.341 149.618 83.144 149.618Z" fill="#6699FF"/>
<path d="M212.664 250.762H211.769C211.556 250.762 211.351 250.678 211.2 250.527C211.05 250.376 210.965 250.171 210.965 249.958C210.965 249.745 211.05 249.54 211.2 249.39C211.351 249.239 211.556 249.154 211.769 249.154H211.86V248.168C211.86 247.955 211.945 247.75 212.096 247.599C212.246 247.449 212.451 247.364 212.664 247.364C212.877 247.364 213.082 247.449 213.233 247.599C213.383 247.75 213.468 247.955 213.468 248.168V249.958C213.468 250.171 213.383 250.376 213.233 250.527C213.082 250.678 212.877 250.762 212.664 250.762ZM209.089 250.762H206.409C206.196 250.762 205.991 250.678 205.84 250.527C205.69 250.376 205.605 250.171 205.605 249.958C205.605 249.745 205.69 249.54 205.84 249.39C205.991 249.239 206.196 249.154 206.409 249.154H209.089C209.302 249.154 209.507 249.239 209.657 249.39C209.808 249.54 209.893 249.745 209.893 249.958C209.893 250.171 209.808 250.376 209.657 250.527C209.507 250.678 209.302 250.762 209.089 250.762ZM203.729 250.762H201.049C200.836 250.762 200.631 250.678 200.48 250.527C200.33 250.376 200.245 250.171 200.245 249.958C200.245 249.745 200.33 249.54 200.48 249.39C200.631 249.239 200.836 249.154 201.049 249.154H203.729C203.942 249.154 204.147 249.239 204.297 249.39C204.448 249.54 204.533 249.745 204.533 249.958C204.533 250.171 204.448 250.376 204.297 250.527C204.147 250.678 203.942 250.762 203.729 250.762ZM198.369 250.762H195.689C195.476 250.762 195.271 250.678 195.12 250.527C194.97 250.376 194.885 250.171 194.885 249.958C194.885 249.745 194.97 249.54 195.12 249.39C195.271 249.239 195.476 249.154 195.689 249.154H198.369C198.582 249.154 198.787 249.239 198.937 249.39C199.088 249.54 199.173 249.745 199.173 249.958C199.173 250.171 199.088 250.376 198.937 250.527C198.787 250.678 198.582 250.762 198.369 250.762ZM193.009 250.762H190.329C190.116 250.762 189.911 250.678 189.76 250.527C189.61 250.376 189.525 250.171 189.525 249.958C189.525 249.745 189.61 249.54 189.76 249.39C189.911 249.239 190.116 249.154 190.329 249.154H193.009C193.222 249.154 193.427 249.239 193.577 249.39C193.728 249.54 193.813 249.745 193.813 249.958C193.813 250.171 193.728 250.376 193.577 250.527C193.427 250.678 193.222 250.762 193.009 250.762ZM187.649 250.762H184.969C184.756 250.762 184.551 250.678 184.4 250.527C184.25 250.376 184.165 250.171 184.165 249.958C184.165 249.745 184.25 249.54 184.4 249.39C184.551 249.239 184.756 249.154 184.969 249.154H187.649C187.862 249.154 188.067 249.239 188.217 249.39C188.368 249.54 188.453 249.745 188.453 249.958C188.453 250.171 188.368 250.376 188.217 250.527C188.067 250.678 187.862 250.762 187.649 250.762ZM182.289 250.762H179.609C179.396 250.762 179.191 250.678 179.04 250.527C178.89 250.376 178.805 250.171 178.805 249.958C178.805 249.745 178.89 249.54 179.04 249.39C179.191 249.239 179.396 249.154 179.609 249.154H182.289C182.502 249.154 182.707 249.239 182.857 249.39C183.008 249.54 183.093 249.745 183.093 249.958C183.093 250.171 183.008 250.376 182.857 250.527C182.707 250.678 182.502 250.762 182.289 250.762ZM176.929 250.762H174.249C174.036 250.762 173.831 250.678 173.68 250.527C173.53 250.376 173.445 250.171 173.445 249.958C173.445 249.745 173.53 249.54 173.68 249.39C173.831 249.239 174.036 249.154 174.249 249.154H176.929C177.142 249.154 177.347 249.239 177.497 249.39C177.648 249.54 177.733 249.745 177.733 249.958C177.733 250.171 177.648 250.376 177.497 250.527C177.347 250.678 177.142 250.762 176.929 250.762ZM171.569 250.762H170.985C170.771 250.762 170.567 250.678 170.416 250.527C170.265 250.376 170.181 250.171 170.181 249.958V247.862C170.181 247.649 170.265 247.445 170.416 247.294C170.567 247.143 170.771 247.058 170.985 247.058C171.198 247.058 171.402 247.143 171.553 247.294C171.704 247.445 171.789 247.649 171.789 247.862V249.181C171.979 249.231 172.144 249.349 172.253 249.513C172.362 249.677 172.407 249.874 172.38 250.069C172.353 250.264 172.255 250.442 172.106 250.569C171.956 250.697 171.765 250.766 171.569 250.762ZM212.664 246.292C212.451 246.292 212.246 246.207 212.096 246.056C211.945 245.906 211.86 245.701 211.86 245.488V242.808C211.86 242.595 211.945 242.39 212.096 242.239C212.246 242.089 212.451 242.004 212.664 242.004C212.877 242.004 213.082 242.089 213.233 242.239C213.383 242.39 213.468 242.595 213.468 242.808V245.488C213.468 245.701 213.383 245.906 213.233 246.056C213.082 246.207 212.877 246.292 212.664 246.292ZM170.985 245.986C170.771 245.986 170.567 245.902 170.416 245.751C170.265 245.6 170.181 245.396 170.181 245.182V242.502C170.181 242.289 170.265 242.085 170.416 241.934C170.567 241.783 170.771 241.698 170.985 241.698C171.198 241.698 171.402 241.783 171.553 241.934C171.704 242.085 171.789 242.289 171.789 242.502V245.182C171.789 245.396 171.704 245.6 171.553 245.751C171.402 245.902 171.198 245.986 170.985 245.986ZM212.664 240.932C212.451 240.932 212.246 240.847 212.096 240.696C211.945 240.546 211.86 240.341 211.86 240.128V237.448C211.86 237.235 211.945 237.03 212.096 236.879C212.246 236.729 212.451 236.644 212.664 236.644C212.877 236.644 213.082 236.729 213.233 236.879C213.383 237.03 213.468 237.235 213.468 237.448V240.128C213.468 240.341 213.383 240.546 213.233 240.696C213.082 240.847 212.877 240.932 212.664 240.932ZM170.985 240.626C170.771 240.626 170.567 240.542 170.416 240.391C170.265 240.24 170.181 240.036 170.181 239.822V237.142C170.181 236.929 170.265 236.725 170.416 236.574C170.567 236.423 170.771 236.338 170.985 236.338C171.198 236.338 171.402 236.423 171.553 236.574C171.704 236.725 171.789 236.929 171.789 237.142V239.822C171.789 240.036 171.704 240.24 171.553 240.391C171.402 240.542 171.198 240.626 170.985 240.626ZM170.985 235.266C170.771 235.266 170.567 235.182 170.416 235.031C170.265 234.88 170.181 234.676 170.181 234.462V231.782C170.181 231.569 170.265 231.365 170.416 231.214C170.567 231.063 170.771 230.978 170.985 230.978C171.198 230.978 171.402 231.063 171.553 231.214C171.704 231.365 171.789 231.569 171.789 231.782V234.462C171.789 234.676 171.704 234.88 171.553 235.031C171.402 235.182 171.198 235.266 170.985 235.266ZM170.985 229.906C170.771 229.906 170.567 229.822 170.416 229.671C170.265 229.52 170.181 229.316 170.181 229.102V226.422C170.181 226.209 170.265 226.005 170.416 225.854C170.567 225.703 170.771 225.618 170.985 225.618C171.198 225.618 171.402 225.703 171.553 225.854C171.704 226.005 171.789 226.209 171.789 226.422V229.102C171.789 229.316 171.704 229.52 171.553 229.671C171.402 229.822 171.198 229.906 170.985 229.906ZM170.985 224.546C170.771 224.546 170.567 224.462 170.416 224.311C170.265 224.16 170.181 223.956 170.181 223.742V221.062C170.181 220.849 170.265 220.645 170.416 220.494C170.567 220.343 170.771 220.258 170.985 220.258C171.198 220.258 171.402 220.343 171.553 220.494C171.704 220.645 171.789 220.849 171.789 221.062V223.742C171.789 223.956 171.704 224.16 171.553 224.311C171.402 224.462 171.198 224.546 170.985 224.546ZM170.985 219.186C170.771 219.186 170.567 219.102 170.416 218.951C170.265 218.8 170.181 218.596 170.181 218.382V215.702C170.181 215.489 170.265 215.285 170.416 215.134C170.567 214.983 170.771 214.898 170.985 214.898C171.198 214.898 171.402 214.983 171.553 215.134C171.704 215.285 171.789 215.489 171.789 215.702V218.382C171.789 218.596 171.704 218.8 171.553 218.951C171.402 219.102 171.198 219.186 170.985 219.186ZM170.985 213.826C170.771 213.826 170.567 213.742 170.416 213.591C170.265 213.44 170.181 213.236 170.181 213.022V210.342C170.181 210.129 170.265 209.925 170.416 209.774C170.567 209.623 170.771 209.538 170.985 209.538C171.198 209.538 171.402 209.623 171.553 209.774C171.704 209.925 171.789 210.129 171.789 210.342V213.022C171.789 213.236 171.704 213.44 171.553 213.591C171.402 213.742 171.198 213.826 170.985 213.826ZM170.985 208.466C170.771 208.466 170.567 208.382 170.416 208.231C170.265 208.08 170.181 207.876 170.181 207.662V205.358C170.181 205.144 170.265 204.94 170.416 204.789C170.567 204.638 170.771 204.554 170.985 204.554C171.198 204.554 171.402 204.638 171.553 204.789C171.704 204.94 171.789 205.144 171.789 205.358V207.662C171.789 207.876 171.704 208.08 171.553 208.231C171.402 208.382 171.198 208.466 170.985 208.466Z" fill="#6699FF"/>
<path d="M97.0166 250.762H96.4323C96.2358 250.766 96.0448 250.697 95.8954 250.569C95.7461 250.442 95.6486 250.264 95.6216 250.069C95.5945 249.874 95.6397 249.677 95.7486 249.513C95.8575 249.349 96.0225 249.231 96.2126 249.181V247.862C96.2126 247.649 96.2973 247.445 96.4481 247.294C96.5988 247.143 96.8033 247.058 97.0166 247.058C97.2298 247.058 97.4343 247.143 97.5851 247.294C97.7359 247.445 97.8206 247.649 97.8206 247.862V249.958C97.8206 250.171 97.7359 250.376 97.5851 250.527C97.4343 250.678 97.2298 250.762 97.0166 250.762ZM93.7523 250.762H91.0723C90.8591 250.762 90.6546 250.678 90.5038 250.527C90.353 250.376 90.2683 250.171 90.2683 249.958C90.2683 249.745 90.353 249.54 90.5038 249.39C90.6546 249.239 90.8591 249.154 91.0723 249.154H93.7523C93.9656 249.154 94.1701 249.239 94.3208 249.39C94.4716 249.54 94.5563 249.745 94.5563 249.958C94.5563 250.171 94.4716 250.376 94.3208 250.527C94.1701 250.678 93.9656 250.762 93.7523 250.762ZM88.3923 250.762H85.7123C85.4991 250.762 85.2946 250.678 85.1438 250.527C84.993 250.376 84.9083 250.171 84.9083 249.958C84.9083 249.745 84.993 249.54 85.1438 249.39C85.2946 249.239 85.4991 249.154 85.7123 249.154H88.3923C88.6056 249.154 88.8101 249.239 88.9608 249.39C89.1116 249.54 89.1963 249.745 89.1963 249.958C89.1963 250.171 89.1116 250.376 88.9608 250.527C88.8101 250.678 88.6056 250.762 88.3923 250.762ZM83.0323 250.762H80.3523C80.1391 250.762 79.9346 250.678 79.7838 250.527C79.633 250.376 79.5483 250.171 79.5483 249.958C79.5483 249.745 79.633 249.54 79.7838 249.39C79.9346 249.239 80.1391 249.154 80.3523 249.154H83.0323C83.2456 249.154 83.4501 249.239 83.6008 249.39C83.7516 249.54 83.8363 249.745 83.8363 249.958C83.8363 250.171 83.7516 250.376 83.6008 250.527C83.4501 250.678 83.2456 250.762 83.0323 250.762ZM77.6723 250.762H74.9923C74.7791 250.762 74.5746 250.678 74.4238 250.527C74.273 250.376 74.1883 250.171 74.1883 249.958C74.1883 249.745 74.273 249.54 74.4238 249.39C74.5746 249.239 74.7791 249.154 74.9923 249.154H77.6723C77.8856 249.154 78.0901 249.239 78.2408 249.39C78.3916 249.54 78.4763 249.745 78.4763 249.958C78.4763 250.171 78.3916 250.376 78.2408 250.527C78.0901 250.678 77.8856 250.762 77.6723 250.762ZM72.3123 250.762H69.6323C69.4191 250.762 69.2146 250.678 69.0638 250.527C68.913 250.376 68.8283 250.171 68.8283 249.958C68.8283 249.745 68.913 249.54 69.0638 249.39C69.2146 249.239 69.4191 249.154 69.6323 249.154H72.3123C72.5256 249.154 72.7301 249.239 72.8808 249.39C73.0316 249.54 73.1163 249.745 73.1163 249.958C73.1163 250.171 73.0316 250.376 72.8808 250.527C72.7301 250.678 72.5256 250.762 72.3123 250.762ZM66.9523 250.762H64.2723C64.0591 250.762 63.8546 250.678 63.7038 250.527C63.553 250.376 63.4683 250.171 63.4683 249.958C63.4683 249.745 63.553 249.54 63.7038 249.39C63.8546 249.239 64.0591 249.154 64.2723 249.154H66.9523C67.1656 249.154 67.3701 249.239 67.5208 249.39C67.6716 249.54 67.7563 249.745 67.7563 249.958C67.7563 250.171 67.6716 250.376 67.5208 250.527C67.3701 250.678 67.1656 250.762 66.9523 250.762ZM61.5923 250.762H58.9123C58.6991 250.762 58.4946 250.678 58.3438 250.527C58.193 250.376 58.1083 250.171 58.1083 249.958C58.1083 249.745 58.193 249.54 58.3438 249.39C58.4946 249.239 58.6991 249.154 58.9123 249.154H61.5923C61.8056 249.154 62.0101 249.239 62.1608 249.39C62.3116 249.54 62.3963 249.745 62.3963 249.958C62.3963 250.171 62.3116 250.376 62.1608 250.527C62.0101 250.678 61.8056 250.762 61.5923 250.762ZM56.2323 250.762H55.3372C55.124 250.762 54.9195 250.678 54.7687 250.527C54.6179 250.376 54.5332 250.171 54.5332 249.958V248.168C54.5332 247.955 54.6179 247.75 54.7687 247.599C54.9195 247.449 55.124 247.364 55.3372 247.364C55.5504 247.364 55.7549 247.449 55.9057 247.599C56.0565 247.75 56.1412 247.955 56.1412 248.168V249.154H56.2323C56.4456 249.154 56.6501 249.239 56.8008 249.39C56.9516 249.54 57.0363 249.745 57.0363 249.958C57.0363 250.171 56.9516 250.376 56.8008 250.527C56.6501 250.678 56.4456 250.762 56.2323 250.762ZM55.3372 246.292C55.124 246.292 54.9195 246.207 54.7687 246.056C54.6179 245.906 54.5332 245.701 54.5332 245.488V242.808C54.5332 242.595 54.6179 242.39 54.7687 242.239C54.9195 242.089 55.124 242.004 55.3372 242.004C55.5504 242.004 55.7549 242.089 55.9057 242.239C56.0565 242.39 56.1412 242.595 56.1412 242.808V245.488C56.1412 245.701 56.0565 245.906 55.9057 246.056C55.7549 246.207 55.5504 246.292 55.3372 246.292ZM97.0166 245.986C96.8033 245.986 96.5988 245.902 96.4481 245.751C96.2973 245.6 96.2126 245.396 96.2126 245.182V242.502C96.2126 242.289 96.2973 242.085 96.4481 241.934C96.5988 241.783 96.8033 241.698 97.0166 241.698C97.2298 241.698 97.4343 241.783 97.5851 241.934C97.7359 242.085 97.8206 242.289 97.8206 242.502V245.182C97.8206 245.396 97.7359 245.6 97.5851 245.751C97.4343 245.902 97.2298 245.986 97.0166 245.986ZM55.3372 240.932C55.124 240.932 54.9195 240.847 54.7687 240.696C54.6179 240.546 54.5332 240.341 54.5332 240.128V237.448C54.5332 237.235 54.6179 237.03 54.7687 236.879C54.9195 236.729 55.124 236.644 55.3372 236.644C55.5504 236.644 55.7549 236.729 55.9057 236.879C56.0565 237.03 56.1412 237.235 56.1412 237.448V240.128C56.1412 240.341 56.0565 240.546 55.9057 240.696C55.7549 240.847 55.5504 240.932 55.3372 240.932ZM97.0166 240.626C96.8033 240.626 96.5988 240.542 96.4481 240.391C96.2973 240.24 96.2126 240.036 96.2126 239.822V237.142C96.2126 236.929 96.2973 236.725 96.4481 236.574C96.5988 236.423 96.8033 236.338 97.0166 236.338C97.2298 236.338 97.4343 236.423 97.5851 236.574C97.7359 236.725 97.8206 236.929 97.8206 237.142V239.822C97.8206 240.036 97.7359 240.24 97.5851 240.391C97.4343 240.542 97.2298 240.626 97.0166 240.626ZM97.0166 235.266C96.8033 235.266 96.5988 235.182 96.4481 235.031C96.2973 234.88 96.2126 234.676 96.2126 234.462V231.782C96.2126 231.569 96.2973 231.365 96.4481 231.214C96.5988 231.063 96.8033 230.978 97.0166 230.978C97.2298 230.978 97.4343 231.063 97.5851 231.214C97.7359 231.365 97.8206 231.569 97.8206 231.782V234.462C97.8206 234.676 97.7359 234.88 97.5851 235.031C97.4343 235.182 97.2298 235.266 97.0166 235.266ZM97.0166 229.906C96.8033 229.906 96.5988 229.822 96.4481 229.671C96.2973 229.52 96.2126 229.316 96.2126 229.102V226.422C96.2126 226.209 96.2973 226.005 96.4481 225.854C96.5988 225.703 96.8033 225.618 97.0166 225.618C97.2298 225.618 97.4343 225.703 97.5851 225.854C97.7359 226.005 97.8206 226.209 97.8206 226.422V229.102C97.8206 229.316 97.7359 229.52 97.5851 229.671C97.4343 229.822 97.2298 229.906 97.0166 229.906ZM97.0166 224.546C96.8033 224.546 96.5988 224.462 96.4481 224.311C96.2973 224.16 96.2126 223.956 96.2126 223.742V221.062C96.2126 220.849 96.2973 220.645 96.4481 220.494C96.5988 220.343 96.8033 220.258 97.0166 220.258C97.2298 220.258 97.4343 220.343 97.5851 220.494C97.7359 220.645 97.8206 220.849 97.8206 221.062V223.742C97.8206 223.956 97.7359 224.16 97.5851 224.311C97.4343 224.462 97.2298 224.546 97.0166 224.546ZM97.0166 219.186C96.8033 219.186 96.5988 219.102 96.4481 218.951C96.2973 218.8 96.2126 218.596 96.2126 218.382V215.702C96.2126 215.489 96.2973 215.285 96.4481 215.134C96.5988 214.983 96.8033 214.898 97.0166 214.898C97.2298 214.898 97.4343 214.983 97.5851 215.134C97.7359 215.285 97.8206 215.489 97.8206 215.702V218.382C97.8206 218.596 97.7359 218.8 97.5851 218.951C97.4343 219.102 97.2298 219.186 97.0166 219.186ZM97.0166 213.826C96.8033 213.826 96.5988 213.742 96.4481 213.591C96.2973 213.44 96.2126 213.236 96.2126 213.022V210.342C96.2126 210.129 96.2973 209.925 96.4481 209.774C96.5988 209.623 96.8033 209.538 97.0166 209.538C97.2298 209.538 97.4343 209.623 97.5851 209.774C97.7359 209.925 97.8206 210.129 97.8206 210.342V213.022C97.8206 213.236 97.7359 213.44 97.5851 213.591C97.4343 213.742 97.2298 213.826 97.0166 213.826ZM97.0166 208.466C96.8033 208.466 96.5988 208.382 96.4481 208.231C96.2973 208.08 96.2126 207.876 96.2126 207.662V205.358C96.2126 205.144 96.2973 204.94 96.4481 204.789C96.5988 204.638 96.8033 204.554 97.0166 204.554C97.2298 204.554 97.4343 204.638 97.5851 204.789C97.7359 204.94 97.8206 205.144 97.8206 205.358V207.662C97.8206 207.876 97.7359 208.08 97.5851 208.231C97.4343 208.382 97.2298 208.466 97.0166 208.466Z" fill="#6699FF"/>
<path d="M95.6876 129.878H93.0076C92.7944 129.878 92.5899 129.793 92.4391 129.643C92.2883 129.492 92.2036 129.287 92.2036 129.074C92.2036 128.861 92.2883 128.656 92.4391 128.506C92.5899 128.355 92.7944 128.27 93.0076 128.27H95.6876C95.9008 128.27 96.1053 128.355 96.2561 128.506C96.4069 128.656 96.4916 128.861 96.4916 129.074C96.4916 129.287 96.4069 129.492 96.2561 129.643C96.1053 129.793 95.9008 129.878 95.6876 129.878ZM90.3276 129.878H87.6476C87.4344 129.878 87.2299 129.793 87.0791 129.643C86.9283 129.492 86.8436 129.287 86.8436 129.074C86.8436 128.861 86.9283 128.656 87.0791 128.506C87.2299 128.355 87.4344 128.27 87.6476 128.27H90.3276C90.5408 128.27 90.7453 128.355 90.8961 128.506C91.0469 128.656 91.1316 128.861 91.1316 129.074C91.1316 129.287 91.0469 129.492 90.8961 129.643C90.7453 129.793 90.5408 129.878 90.3276 129.878ZM84.9676 129.878H82.2876C82.0744 129.878 81.8699 129.793 81.7191 129.643C81.5683 129.492 81.4836 129.287 81.4836 129.074C81.4836 128.861 81.5683 128.656 81.7191 128.506C81.8699 128.355 82.0744 128.27 82.2876 128.27H84.9676C85.1808 128.27 85.3853 128.355 85.5361 128.506C85.6869 128.656 85.7716 128.861 85.7716 129.074C85.7716 129.287 85.6869 129.492 85.5361 129.643C85.3853 129.793 85.1808 129.878 84.9676 129.878ZM79.6076 129.878H78.9751C78.7619 129.878 78.5574 129.793 78.4066 129.643C78.2558 129.492 78.1711 129.287 78.1711 129.074V127.032C78.1711 126.819 78.2558 126.614 78.4066 126.463C78.5574 126.313 78.7619 126.228 78.9751 126.228C79.1884 126.228 79.3929 126.313 79.5436 126.463C79.6944 126.614 79.7791 126.819 79.7791 127.032V128.292C79.9924 128.314 80.1878 128.421 80.3225 128.588C80.4572 128.755 80.5201 128.968 80.4974 129.181C80.4746 129.395 80.3681 129.59 80.2012 129.725C80.0344 129.859 79.8209 129.922 79.6076 129.9V129.878ZM78.9751 125.151C78.7619 125.151 78.5574 125.066 78.4066 124.915C78.2558 124.764 78.1711 124.56 78.1711 124.347V121.667C78.1711 121.453 78.2558 121.249 78.4066 121.098C78.5574 120.947 78.7619 120.863 78.9751 120.863C79.1884 120.863 79.3929 120.947 79.5436 121.098C79.6944 121.249 79.7791 121.453 79.7791 121.667V124.347C79.7791 124.56 79.6944 124.764 79.5436 124.915C79.3929 125.066 79.1884 125.151 78.9751 125.151ZM78.9751 119.791C78.7619 119.791 78.5574 119.706 78.4066 119.555C78.2558 119.404 78.1711 119.2 78.1711 118.987V116.307C78.1711 116.093 78.2558 115.889 78.4066 115.738C78.5574 115.587 78.7619 115.503 78.9751 115.503C79.1884 115.503 79.3929 115.587 79.5436 115.738C79.6944 115.889 79.7791 116.093 79.7791 116.307V118.987C79.7791 119.2 79.6944 119.404 79.5436 119.555C79.3929 119.706 79.1884 119.791 78.9751 119.791ZM78.9751 114.431C78.7619 114.431 78.5574 114.346 78.4066 114.195C78.2558 114.044 78.1711 113.84 78.1711 113.627V110.947C78.1711 110.733 78.2558 110.529 78.4066 110.378C78.5574 110.227 78.7619 110.143 78.9751 110.143C79.1884 110.143 79.3929 110.227 79.5436 110.378C79.6944 110.529 79.7791 110.733 79.7791 110.947V113.627C79.7791 113.84 79.6944 114.044 79.5436 114.195C79.3929 114.346 79.1884 114.431 78.9751 114.431ZM78.4391 109.607H75.7591C75.5459 109.607 75.3414 109.522 75.1906 109.371C75.0398 109.22 74.9551 109.016 74.9551 108.803C74.9551 108.589 75.0398 108.385 75.1906 108.234C75.3414 108.083 75.5459 107.999 75.7591 107.999H78.4391C78.6524 107.999 78.8569 108.083 79.0076 108.234C79.1584 108.385 79.2431 108.589 79.2431 108.803C79.2431 109.016 79.1584 109.22 79.0076 109.371C78.8569 109.522 78.6524 109.607 78.4391 109.607ZM73.0791 109.607H70.3991C70.1859 109.607 69.9814 109.522 69.8306 109.371C69.6798 109.22 69.5951 109.016 69.5951 108.803C69.5951 108.589 69.6798 108.385 69.8306 108.234C69.9814 108.083 70.1859 107.999 70.3991 107.999H73.0791C73.2924 107.999 73.4969 108.083 73.6477 108.234C73.7984 108.385 73.8831 108.589 73.8831 108.803C73.8831 109.016 73.7984 109.22 73.6477 109.371C73.4969 109.522 73.2924 109.607 73.0791 109.607ZM67.7191 109.607H65.0391C64.8259 109.607 64.6214 109.522 64.4706 109.371C64.3198 109.22 64.2351 109.016 64.2351 108.803C64.2351 108.589 64.3198 108.385 64.4706 108.234C64.6214 108.083 64.8259 107.999 65.0391 107.999H67.7191C67.9324 107.999 68.1369 108.083 68.2876 108.234C68.4384 108.385 68.5231 108.589 68.5231 108.803C68.5231 109.016 68.4384 109.22 68.2876 109.371C68.1369 109.522 67.9324 109.607 67.7191 109.607ZM62.3591 109.607H59.6791C59.4659 109.607 59.2614 109.522 59.1106 109.371C58.9598 109.22 58.8751 109.016 58.8751 108.803C58.8751 108.589 58.9598 108.385 59.1106 108.234C59.2614 108.083 59.4659 107.999 59.6791 107.999H62.3591C62.5724 107.999 62.7769 108.083 62.9276 108.234C63.0784 108.385 63.1631 108.589 63.1631 108.803C63.1631 109.016 63.0784 109.22 62.9276 109.371C62.7769 109.522 62.5724 109.607 62.3591 109.607ZM56.9991 109.607H54.3191C54.1059 109.607 53.9014 109.522 53.7506 109.371C53.5998 109.22 53.5151 109.016 53.5151 108.803C53.5151 108.589 53.5998 108.385 53.7506 108.234C53.9014 108.083 54.1059 107.999 54.3191 107.999H56.9991C57.2124 107.999 57.4169 108.083 57.5676 108.234C57.7184 108.385 57.8031 108.589 57.8031 108.803C57.8031 109.016 57.7184 109.22 57.5676 109.371C57.4169 109.522 57.2124 109.607 56.9991 109.607ZM51.6391 109.607H48.9591C48.7459 109.607 48.5414 109.522 48.3906 109.371C48.2398 109.22 48.1551 109.016 48.1551 108.803C48.1551 108.589 48.2398 108.385 48.3906 108.234C48.5414 108.083 48.7459 107.999 48.9591 107.999H51.6391C51.8524 107.999 52.0569 108.083 52.2076 108.234C52.3584 108.385 52.4431 108.589 52.4431 108.803C52.4431 109.016 52.3584 109.22 52.2076 109.371C52.0569 109.522 51.8524 109.607 51.6391 109.607ZM46.2791 109.607H43.5991C43.3859 109.607 43.1814 109.522 43.0306 109.371C42.8798 109.22 42.7951 109.016 42.7951 108.803C42.7951 108.589 42.8798 108.385 43.0306 108.234C43.1814 108.083 43.3859 107.999 43.5991 107.999H46.2791C46.4924 107.999 46.6969 108.083 46.8476 108.234C46.9984 108.385 47.0831 108.589 47.0831 108.803C47.0831 109.016 46.9984 109.22 46.8476 109.371C46.6969 109.522 46.4924 109.607 46.2791 109.607ZM40.9191 109.607H38.2391C38.0259 109.607 37.8214 109.522 37.6706 109.371C37.5198 109.22 37.4351 109.016 37.4351 108.803C37.4351 108.589 37.5198 108.385 37.6706 108.234C37.8214 108.083 38.0259 107.999 38.2391 107.999H40.9191C41.1324 107.999 41.3369 108.083 41.4876 108.234C41.6384 108.385 41.7231 108.589 41.7231 108.803C41.7231 109.016 41.6384 109.22 41.4876 109.371C41.3369 109.522 41.1324 109.607 40.9191 109.607ZM35.5591 109.607H32.8791C32.6659 109.607 32.4614 109.522 32.3106 109.371C32.1598 109.22 32.0751 109.016 32.0751 108.803C32.0751 108.589 32.1598 108.385 32.3106 108.234C32.4614 108.083 32.6659 107.999 32.8791 107.999H35.5591C35.7724 107.999 35.9769 108.083 36.1276 108.234C36.2784 108.385 36.3631 108.589 36.3631 108.803C36.3631 109.016 36.2784 109.22 36.1276 109.371C35.9769 109.522 35.7724 109.607 35.5591 109.607ZM30.1991 109.607H27.5191C27.3059 109.607 27.1014 109.522 26.9506 109.371C26.7998 109.22 26.7151 109.016 26.7151 108.803C26.7151 108.589 26.7998 108.385 26.9506 108.234C27.1014 108.083 27.3059 107.999 27.5191 107.999H30.1991C30.4124 107.999 30.6169 108.083 30.7677 108.234C30.9184 108.385 31.0031 108.589 31.0031 108.803C31.0031 109.016 30.9184 109.22 30.7677 109.371C30.6169 109.522 30.4124 109.607 30.1991 109.607ZM24.8391 109.607H22.1591C21.9459 109.607 21.7414 109.522 21.5906 109.371C21.4398 109.22 21.3551 109.016 21.3551 108.803C21.3551 108.589 21.4398 108.385 21.5906 108.234C21.7414 108.083 21.9459 107.999 22.1591 107.999H24.8391C25.0524 107.999 25.2569 108.083 25.4077 108.234C25.5584 108.385 25.6431 108.589 25.6431 108.803C25.6431 109.016 25.5584 109.22 25.4077 109.371C25.2569 109.522 25.0524 109.607 24.8391 109.607ZM19.4791 109.607H18.2249C18.0117 109.607 17.8072 109.522 17.6564 109.371C17.5056 109.22 17.4209 109.016 17.4209 108.803V107.382C17.4209 107.169 17.5056 106.964 17.6564 106.814C17.8072 106.663 18.0117 106.578 18.2249 106.578C18.4381 106.578 18.6426 106.663 18.7934 106.814C18.9442 106.964 19.0289 107.169 19.0289 107.382V107.999H19.4845C19.6977 107.999 19.9022 108.083 20.053 108.234C20.2038 108.385 20.2885 108.589 20.2885 108.803C20.2885 109.016 20.2038 109.22 20.053 109.371C19.9022 109.522 19.6977 109.607 19.4845 109.607H19.4791ZM18.2249 105.512C18.0117 105.512 17.8072 105.427 17.6564 105.276C17.5056 105.125 17.4209 104.921 17.4209 104.708V102.028C17.4209 101.814 17.5056 101.61 17.6564 101.459C17.8072 101.308 18.0117 101.224 18.2249 101.224C18.4381 101.224 18.6426 101.308 18.7934 101.459C18.9442 101.61 19.0289 101.814 19.0289 102.028V104.708C19.0289 104.921 18.9442 105.125 18.7934 105.276C18.6426 105.427 18.4381 105.512 18.2249 105.512ZM18.2249 100.152C18.0117 100.152 17.8072 100.067 17.6564 99.9161C17.5056 99.7653 17.4209 99.5608 17.4209 99.3475V96.6675C17.4209 96.4543 17.5056 96.2498 17.6564 96.099C17.8072 95.9482 18.0117 95.8635 18.2249 95.8635C18.4381 95.8635 18.6426 95.9482 18.7934 96.099C18.9442 96.2498 19.0289 96.4543 19.0289 96.6675V99.3475C19.0289 99.5608 18.9442 99.7653 18.7934 99.9161C18.6426 100.067 18.4381 100.152 18.2249 100.152ZM18.2249 94.7915C18.0117 94.7915 17.8072 94.7068 17.6564 94.5561C17.5056 94.4053 17.4209 94.2008 17.4209 93.9875V91.3075C17.4209 91.0943 17.5056 90.8898 17.6564 90.739C17.8072 90.5883 18.0117 90.5036 18.2249 90.5036C18.4381 90.5036 18.6426 90.5883 18.7934 90.739C18.9442 90.8898 19.0289 91.0943 19.0289 91.3075V93.9875C19.0289 94.2008 18.9442 94.4053 18.7934 94.5561C18.6426 94.7068 18.4381 94.7915 18.2249 94.7915ZM18.2249 89.4315C18.0117 89.4315 17.8072 89.3468 17.6564 89.1961C17.5056 89.0453 17.4209 88.8408 17.4209 88.6275V85.9475C17.4209 85.7343 17.5056 85.5298 17.6564 85.379C17.8072 85.2283 18.0117 85.1436 18.2249 85.1436C18.4381 85.1436 18.6426 85.2283 18.7934 85.379C18.9442 85.5298 19.0289 85.7343 19.0289 85.9475V88.6275C19.0289 88.8408 18.9442 89.0453 18.7934 89.1961C18.6426 89.3468 18.4381 89.4315 18.2249 89.4315ZM18.2249 84.0715C18.0117 84.0715 17.8072 83.9868 17.6564 83.8361C17.5056 83.6853 17.4209 83.4808 17.4209 83.2675V80.5876C17.4209 80.3743 17.5056 80.1698 17.6564 80.019C17.8072 79.8683 18.0117 79.7836 18.2249 79.7836C18.4381 79.7836 18.6426 79.8683 18.7934 80.019C18.9442 80.1698 19.0289 80.3743 19.0289 80.5876V83.2675C19.0289 83.4808 18.9442 83.6853 18.7934 83.8361C18.6426 83.9868 18.4381 84.0715 18.2249 84.0715ZM18.2249 78.7115C18.0117 78.7115 17.8072 78.6268 17.6564 78.4761C17.5056 78.3253 17.4209 78.1208 17.4209 77.9076V75.2276C17.4209 75.0143 17.5056 74.8098 17.6564 74.659C17.8072 74.5083 18.0117 74.4235 18.2249 74.4235C18.4381 74.4235 18.6426 74.5083 18.7934 74.659C18.9442 74.8098 19.0289 75.0143 19.0289 75.2276V77.9076C19.0289 78.1208 18.9442 78.3253 18.7934 78.4761C18.6426 78.6268 18.4381 78.7115 18.2249 78.7115ZM18.2249 73.3516C18.0117 73.3516 17.8072 73.2668 17.6564 73.1161C17.5056 72.9653 17.4209 72.7608 17.4209 72.5476V69.8675C17.4209 69.6543 17.5056 69.4498 17.6564 69.299C17.8072 69.1483 18.0117 69.0635 18.2249 69.0635C18.4381 69.0635 18.6426 69.1483 18.7934 69.299C18.9442 69.4498 19.0289 69.6543 19.0289 69.8675V72.5476C19.0289 72.7608 18.9442 72.9653 18.7934 73.1161C18.6426 73.2668 18.4381 73.3516 18.2249 73.3516ZM18.2249 67.9915C18.0117 67.9915 17.8072 67.9068 17.6564 67.7561C17.5056 67.6053 17.4209 67.4008 17.4209 67.1875V64.5075C17.4209 64.2943 17.5056 64.0898 17.6564 63.939C17.8072 63.7882 18.0117 63.7035 18.2249 63.7035C18.4381 63.7035 18.6426 63.7882 18.7934 63.939C18.9442 64.0898 19.0289 64.2943 19.0289 64.5075V67.1875C19.0289 67.4008 18.9442 67.6053 18.7934 67.7561C18.6426 67.9068 18.4381 67.9915 18.2249 67.9915ZM18.2249 62.6315C18.0117 62.6315 17.8072 62.5468 17.6564 62.3961C17.5056 62.2453 17.4209 62.0408 17.4209 61.8275V59.1475C17.4209 58.9343 17.5056 58.7298 17.6564 58.579C17.8072 58.4283 18.0117 58.3435 18.2249 58.3435C18.4381 58.3435 18.6426 58.4283 18.7934 58.579C18.9442 58.7298 19.0289 58.9343 19.0289 59.1475V61.8275C19.0289 62.0408 18.9442 62.2453 18.7934 62.3961C18.6426 62.5468 18.4381 62.6315 18.2249 62.6315ZM18.2249 57.2715C18.0117 57.2715 17.8072 57.1868 17.6564 57.0361C17.5056 56.8853 17.4209 56.6808 17.4209 56.4675V53.7875C17.4209 53.5743 17.5056 53.3698 17.6564 53.219C17.8072 53.0683 18.0117 52.9835 18.2249 52.9835C18.4381 52.9835 18.6426 53.0683 18.7934 53.219C18.9442 53.3698 19.0289 53.5743 19.0289 53.7875V56.4675C19.0289 56.6808 18.9442 56.8853 18.7934 57.0361C18.6426 57.1868 18.4381 57.2715 18.2249 57.2715ZM18.2249 51.9115C18.0117 51.9115 17.8072 51.8268 17.6564 51.6761C17.5056 51.5253 17.4209 51.3208 17.4209 51.1075V48.4275C17.4209 48.2143 17.5056 48.0098 17.6564 47.859C17.8072 47.7083 18.0117 47.6235 18.2249 47.6235C18.4381 47.6235 18.6426 47.7083 18.7934 47.859C18.9442 48.0098 19.0289 48.2143 19.0289 48.4275V51.1075C19.0289 51.3208 18.9442 51.5253 18.7934 51.6761C18.6426 51.8268 18.4381 51.9115 18.2249 51.9115ZM55.7449 49.5799C55.5317 49.5799 55.3272 49.4952 55.1764 49.3445C55.0256 49.1937 54.9409 48.9892 54.9409 48.7759V46.0959C54.9409 45.8827 55.0256 45.6782 55.1764 45.5274C55.3272 45.3767 55.5317 45.2919 55.7449 45.2919C55.9581 45.2919 56.1626 45.3767 56.3134 45.5274C56.4642 45.6782 56.5489 45.8827 56.5489 46.0959V48.7759C56.549 48.8843 56.5272 48.9915 56.4848 49.0912C56.4424 49.1909 56.3803 49.281 56.3022 49.3561C56.2241 49.4312 56.1316 49.4898 56.0303 49.5282C55.929 49.5667 55.821 49.5843 55.7127 49.5799H55.7449ZM18.2249 46.5515C18.0117 46.5515 17.8072 46.4668 17.6564 46.3161C17.5056 46.1653 17.4209 45.9608 17.4209 45.7475V43.0675C17.4209 42.8543 17.5056 42.6498 17.6564 42.499C17.8072 42.3483 18.0117 42.2635 18.2249 42.2635C18.4381 42.2635 18.6426 42.3483 18.7934 42.499C18.9442 42.6498 19.0289 42.8543 19.0289 43.0675V45.7475C19.0289 45.9608 18.9442 46.1653 18.7934 46.3161C18.6426 46.4668 18.4381 46.5515 18.2249 46.5515ZM55.7449 44.2199C55.5317 44.2199 55.3272 44.1352 55.1764 43.9845C55.0256 43.8337 54.9409 43.6292 54.9409 43.4159V40.7359C54.9409 40.5227 55.0256 40.3182 55.1764 40.1674C55.3272 40.0167 55.5317 39.9319 55.7449 39.9319C55.9581 39.9319 56.1626 40.0167 56.3134 40.1674C56.4642 40.3182 56.5489 40.5227 56.5489 40.7359V43.4159C56.549 43.5243 56.5272 43.6315 56.4848 43.7312C56.4424 43.8309 56.3803 43.921 56.3022 43.9961C56.2241 44.0712 56.1316 44.1298 56.0303 44.1682C55.929 44.2067 55.821 44.2243 55.7127 44.2199H55.7449ZM18.2249 41.1915C18.0117 41.1915 17.8072 41.1068 17.6564 40.9561C17.5056 40.8053 17.4209 40.6008 17.4209 40.3875V37.7075C17.4209 37.4943 17.5056 37.2898 17.6564 37.139C17.8072 36.9883 18.0117 36.9035 18.2249 36.9035C18.4381 36.9035 18.6426 36.9883 18.7934 37.139C18.9442 37.2898 19.0289 37.4943 19.0289 37.7075V40.3875C19.0289 40.6008 18.9442 40.8053 18.7934 40.9561C18.6426 41.1068 18.4381 41.1915 18.2249 41.1915ZM55.7449 38.8599C55.5317 38.8599 55.3272 38.7752 55.1764 38.6245C55.0256 38.4737 54.9409 38.2692 54.9409 38.0559V35.3759C54.9409 35.1627 55.0256 34.9582 55.1764 34.8074C55.3272 34.6567 55.5317 34.5719 55.7449 34.5719C55.9581 34.5719 56.1626 34.6567 56.3134 34.8074C56.4642 34.9582 56.5489 35.1627 56.5489 35.3759V38.0559C56.549 38.1643 56.5272 38.2715 56.4848 38.3712C56.4424 38.4709 56.3803 38.561 56.3022 38.6361C56.2241 38.7112 56.1316 38.7698 56.0303 38.8082C55.929 38.8467 55.821 38.8643 55.7127 38.8599H55.7449ZM18.2249 35.8315C18.0117 35.8315 17.8072 35.7468 17.6564 35.5961C17.5056 35.4453 17.4209 35.2408 17.4209 35.0275V32.5083C17.4209 32.2951 17.5056 32.0906 17.6564 31.9398C17.8072 31.7891 18.0117 31.7043 18.2249 31.7043H18.3911C18.5408 31.7046 18.6876 31.7467 18.8147 31.8258C18.9418 31.905 19.0443 32.0181 19.1107 32.1524C19.177 32.2867 19.2045 32.4368 19.19 32.5859C19.1756 32.735 19.1198 32.877 19.0289 32.9961V35.0275C19.0289 35.2408 18.9442 35.4453 18.7934 35.5961C18.6426 35.7468 18.4381 35.8315 18.2249 35.8315ZM55.7449 33.4999C55.5491 33.5062 55.358 33.4393 55.2089 33.3123H53.2203C53.0071 33.3123 52.8026 33.2276 52.6518 33.0769C52.501 32.9261 52.4163 32.7216 52.4163 32.5083C52.4163 32.2951 52.501 32.0906 52.6518 31.9398C52.8026 31.7891 53.0071 31.7043 53.2203 31.7043H55.7127C55.926 31.7043 56.1305 31.7891 56.2812 31.9398C56.432 32.0906 56.5167 32.2951 56.5167 32.5083V32.6959C56.5167 32.9092 56.432 33.1137 56.2812 33.2645C56.1305 33.4152 55.926 33.4999 55.7127 33.4999H55.7449ZM50.5725 33.3123H47.8925C47.6793 33.3123 47.4748 33.2276 47.324 33.0769C47.1732 32.9261 47.0885 32.7216 47.0885 32.5083C47.0885 32.2951 47.1732 32.0906 47.324 31.9398C47.4748 31.7891 47.6793 31.7043 47.8925 31.7043H50.5725C50.7857 31.7043 50.9902 31.7891 51.141 31.9398C51.2918 32.0906 51.3765 32.2951 51.3765 32.5083C51.3765 32.7216 51.2918 32.9261 51.141 33.0769C50.9902 33.2276 50.7857 33.3123 50.5725 33.3123ZM45.2125 33.3123H42.5325C42.3193 33.3123 42.1148 33.2276 41.964 33.0769C41.8132 32.9261 41.7285 32.7216 41.7285 32.5083C41.7285 32.2951 41.8132 32.0906 41.964 31.9398C42.1148 31.7891 42.3193 31.7043 42.5325 31.7043H45.2125C45.4257 31.7043 45.6302 31.7891 45.781 31.9398C45.9318 32.0906 46.0165 32.2951 46.0165 32.5083C46.0165 32.7216 45.9318 32.9261 45.781 33.0769C45.6302 33.2276 45.4257 33.3123 45.2125 33.3123ZM39.8525 33.3123H37.1725C36.9593 33.3123 36.7548 33.2276 36.604 33.0769C36.4532 32.9261 36.3685 32.7216 36.3685 32.5083C36.3685 32.2951 36.4532 32.0906 36.604 31.9398C36.7548 31.7891 36.9593 31.7043 37.1725 31.7043H39.8525C40.0657 31.7043 40.2702 31.7891 40.421 31.9398C40.5718 32.0906 40.6565 32.2951 40.6565 32.5083C40.6565 32.7216 40.5718 32.9261 40.421 33.0769C40.2702 33.2276 40.0657 33.3123 39.8525 33.3123ZM34.4925 33.3123H31.8125C31.5993 33.3123 31.3948 33.2276 31.244 33.0769C31.0932 32.9261 31.0085 32.7216 31.0085 32.5083C31.0085 32.2951 31.0932 32.0906 31.244 31.9398C31.3948 31.7891 31.5993 31.7043 31.8125 31.7043H34.4925C34.7057 31.7043 34.9102 31.7891 35.061 31.9398C35.2118 32.0906 35.2965 32.2951 35.2965 32.5083C35.2965 32.7216 35.2118 32.9261 35.061 33.0769C34.9102 33.2276 34.7057 33.3123 34.4925 33.3123ZM29.1325 33.3123H26.4525C26.2393 33.3123 26.0348 33.2276 25.884 33.0769C25.7332 32.9261 25.6485 32.7216 25.6485 32.5083C25.6485 32.2951 25.7332 32.0906 25.884 31.9398C26.0348 31.7891 26.2393 31.7043 26.4525 31.7043H29.1325C29.3457 31.7043 29.5502 31.7891 29.701 31.9398C29.8518 32.0906 29.9365 32.2951 29.9365 32.5083C29.9365 32.7216 29.8518 32.9261 29.701 33.0769C29.5502 33.2276 29.3457 33.3123 29.1325 33.3123ZM23.7725 33.3123H21.0925C20.8793 33.3123 20.6748 33.2276 20.524 33.0769C20.3732 32.9261 20.2885 32.7216 20.2885 32.5083C20.2885 32.2951 20.3732 32.0906 20.524 31.9398C20.6748 31.7891 20.8793 31.7043 21.0925 31.7043H23.7725C23.9857 31.7043 24.1902 31.7891 24.341 31.9398C24.4918 32.0906 24.5765 32.2951 24.5765 32.5083C24.5765 32.7216 24.4918 32.9261 24.341 33.0769C24.1902 33.2276 23.9857 33.3123 23.7725 33.3123Z" fill="#6699FF"/>
<path d="M189.026 129.878H188.394C188.181 129.901 187.967 129.838 187.8 129.703C187.633 129.569 187.527 129.373 187.504 129.16C187.481 128.947 187.544 128.733 187.679 128.566C187.814 128.399 188.009 128.293 188.222 128.27V127.032C188.222 126.819 188.307 126.614 188.458 126.463C188.609 126.313 188.813 126.228 189.026 126.228C189.239 126.228 189.444 126.313 189.595 126.463C189.746 126.614 189.83 126.819 189.83 127.032V129.079C189.829 129.292 189.743 129.495 189.593 129.645C189.442 129.794 189.239 129.878 189.026 129.878ZM185.714 129.878H183.034C182.821 129.878 182.616 129.793 182.465 129.643C182.314 129.492 182.23 129.287 182.23 129.074C182.23 128.861 182.314 128.656 182.465 128.506C182.616 128.355 182.821 128.27 183.034 128.27H185.714C185.927 128.27 186.131 128.355 186.282 128.506C186.433 128.656 186.518 128.861 186.518 129.074C186.518 129.287 186.433 129.492 186.282 129.643C186.131 129.793 185.927 129.878 185.714 129.878ZM180.354 129.878H177.674C177.461 129.878 177.256 129.793 177.105 129.643C176.954 129.492 176.87 129.287 176.87 129.074C176.87 128.861 176.954 128.656 177.105 128.506C177.256 128.355 177.461 128.27 177.674 128.27H180.354C180.567 128.27 180.771 128.355 180.922 128.506C181.073 128.656 181.158 128.861 181.158 129.074C181.158 129.287 181.073 129.492 180.922 129.643C180.771 129.793 180.567 129.878 180.354 129.878ZM174.994 129.878H172.314C172.101 129.878 171.896 129.793 171.745 129.643C171.594 129.492 171.51 129.287 171.51 129.074C171.51 128.861 171.594 128.656 171.745 128.506C171.896 128.355 172.101 128.27 172.314 128.27H174.994C175.207 128.27 175.411 128.355 175.562 128.506C175.713 128.656 175.798 128.861 175.798 129.074C175.798 129.287 175.713 129.492 175.562 129.643C175.411 129.793 175.207 129.878 174.994 129.878ZM189.026 125.151C188.813 125.151 188.609 125.066 188.458 124.915C188.307 124.764 188.222 124.56 188.222 124.347V121.667C188.222 121.453 188.307 121.249 188.458 121.098C188.609 120.947 188.813 120.863 189.026 120.863C189.239 120.863 189.444 120.947 189.595 121.098C189.746 121.249 189.83 121.453 189.83 121.667V124.347C189.83 124.56 189.746 124.764 189.595 124.915C189.444 125.066 189.239 125.151 189.026 125.151ZM189.026 119.791C188.813 119.791 188.609 119.706 188.458 119.555C188.307 119.404 188.222 119.2 188.222 118.987V116.307C188.222 116.093 188.307 115.889 188.458 115.738C188.609 115.587 188.813 115.503 189.026 115.503C189.239 115.503 189.444 115.587 189.595 115.738C189.746 115.889 189.83 116.093 189.83 116.307V118.987C189.83 119.2 189.746 119.404 189.595 119.555C189.444 119.706 189.239 119.791 189.026 119.791ZM189.026 114.431C188.813 114.431 188.609 114.346 188.458 114.195C188.307 114.044 188.222 113.84 188.222 113.627V110.947C188.222 110.733 188.307 110.529 188.458 110.378C188.609 110.227 188.813 110.143 189.026 110.143C189.239 110.143 189.444 110.227 189.595 110.378C189.746 110.529 189.83 110.733 189.83 110.947V113.627C189.83 113.84 189.746 114.044 189.595 114.195C189.444 114.346 189.239 114.431 189.026 114.431ZM249.787 109.607H248.528C248.314 109.607 248.11 109.522 247.959 109.371C247.808 109.22 247.724 109.016 247.724 108.803C247.724 108.589 247.808 108.385 247.959 108.234C248.11 108.083 248.314 107.999 248.528 107.999H248.983V107.382C248.983 107.169 249.068 106.964 249.219 106.814C249.369 106.663 249.574 106.578 249.787 106.578C250 106.578 250.205 106.663 250.356 106.814C250.506 106.964 250.591 107.169 250.591 107.382V108.808C250.591 108.914 250.57 109.02 250.529 109.118C250.488 109.216 250.428 109.305 250.352 109.38C250.276 109.455 250.186 109.514 250.087 109.554C249.989 109.594 249.883 109.613 249.776 109.612L249.787 109.607ZM245.848 109.607H243.168C242.954 109.607 242.75 109.522 242.599 109.371C242.448 109.22 242.364 109.016 242.364 108.803C242.364 108.589 242.448 108.385 242.599 108.234C242.75 108.083 242.954 107.999 243.168 107.999H245.848C246.061 107.999 246.265 108.083 246.416 108.234C246.567 108.385 246.652 108.589 246.652 108.803C246.652 109.016 246.567 109.22 246.416 109.371C246.265 109.522 246.061 109.607 245.848 109.607ZM240.488 109.607H237.808C237.594 109.607 237.39 109.522 237.239 109.371C237.088 109.22 237.004 109.016 237.004 108.803C237.004 108.589 237.088 108.385 237.239 108.234C237.39 108.083 237.594 107.999 237.808 107.999H240.488C240.701 107.999 240.905 108.083 241.056 108.234C241.207 108.385 241.292 108.589 241.292 108.803C241.292 109.016 241.207 109.22 241.056 109.371C240.905 109.522 240.701 109.607 240.488 109.607ZM235.128 109.607H232.448C232.234 109.607 232.03 109.522 231.879 109.371C231.728 109.22 231.644 109.016 231.644 108.803C231.644 108.589 231.728 108.385 231.879 108.234C232.03 108.083 232.234 107.999 232.448 107.999H235.128C235.341 107.999 235.545 108.083 235.696 108.234C235.847 108.385 235.932 108.589 235.932 108.803C235.932 109.016 235.847 109.22 235.696 109.371C235.545 109.522 235.341 109.607 235.128 109.607ZM229.768 109.607H227.088C226.874 109.607 226.67 109.522 226.519 109.371C226.368 109.22 226.284 109.016 226.284 108.803C226.284 108.589 226.368 108.385 226.519 108.234C226.67 108.083 226.874 107.999 227.088 107.999H229.768C229.981 107.999 230.185 108.083 230.336 108.234C230.487 108.385 230.572 108.589 230.572 108.803C230.572 109.016 230.487 109.22 230.336 109.371C230.185 109.522 229.981 109.607 229.768 109.607ZM224.408 109.607H221.728C221.514 109.607 221.31 109.522 221.159 109.371C221.008 109.22 220.924 109.016 220.924 108.803C220.924 108.589 221.008 108.385 221.159 108.234C221.31 108.083 221.514 107.999 221.728 107.999H224.408C224.621 107.999 224.825 108.083 224.976 108.234C225.127 108.385 225.212 108.589 225.212 108.803C225.212 109.016 225.127 109.22 224.976 109.371C224.825 109.522 224.621 109.607 224.408 109.607ZM219.048 109.607H216.368C216.154 109.607 215.95 109.522 215.799 109.371C215.648 109.22 215.564 109.016 215.564 108.803C215.564 108.589 215.648 108.385 215.799 108.234C215.95 108.083 216.154 107.999 216.368 107.999H219.048C219.261 107.999 219.465 108.083 219.616 108.234C219.767 108.385 219.852 108.589 219.852 108.803C219.852 109.016 219.767 109.22 219.616 109.371C219.465 109.522 219.261 109.607 219.048 109.607ZM213.688 109.607H211.008C210.794 109.607 210.59 109.522 210.439 109.371C210.288 109.22 210.204 109.016 210.204 108.803C210.204 108.589 210.288 108.385 210.439 108.234C210.59 108.083 210.794 107.999 211.008 107.999H213.688C213.901 107.999 214.105 108.083 214.256 108.234C214.407 108.385 214.492 108.589 214.492 108.803C214.492 109.016 214.407 109.22 214.256 109.371C214.105 109.522 213.901 109.607 213.688 109.607ZM208.328 109.607H205.648C205.434 109.607 205.23 109.522 205.079 109.371C204.928 109.22 204.844 109.016 204.844 108.803C204.844 108.589 204.928 108.385 205.079 108.234C205.23 108.083 205.434 107.999 205.648 107.999H208.328C208.541 107.999 208.745 108.083 208.896 108.234C209.047 108.385 209.132 108.589 209.132 108.803C209.132 109.016 209.047 109.22 208.896 109.371C208.745 109.522 208.541 109.607 208.328 109.607ZM202.968 109.607H200.288C200.074 109.607 199.87 109.522 199.719 109.371C199.568 109.22 199.484 109.016 199.484 108.803C199.484 108.589 199.568 108.385 199.719 108.234C199.87 108.083 200.074 107.999 200.288 107.999H202.968C203.181 107.999 203.385 108.083 203.536 108.234C203.687 108.385 203.772 108.589 203.772 108.803C203.772 109.016 203.687 109.22 203.536 109.371C203.385 109.522 203.181 109.607 202.968 109.607ZM197.608 109.607H194.928C194.714 109.607 194.51 109.522 194.359 109.371C194.208 109.22 194.124 109.016 194.124 108.803C194.124 108.589 194.208 108.385 194.359 108.234C194.51 108.083 194.714 107.999 194.928 107.999H197.608C197.821 107.999 198.025 108.083 198.176 108.234C198.327 108.385 198.412 108.589 198.412 108.803C198.412 109.016 198.327 109.22 198.176 109.371C198.025 109.522 197.821 109.607 197.608 109.607ZM192.248 109.607H189.568C189.354 109.607 189.15 109.522 188.999 109.371C188.848 109.22 188.764 109.016 188.764 108.803C188.764 108.589 188.848 108.385 188.999 108.234C189.15 108.083 189.354 107.999 189.568 107.999H192.248C192.461 107.999 192.665 108.083 192.816 108.234C192.967 108.385 193.052 108.589 193.052 108.803C193.052 109.016 192.967 109.22 192.816 109.371C192.665 109.522 192.461 109.607 192.248 109.607ZM249.776 105.512C249.563 105.512 249.359 105.427 249.208 105.276C249.057 105.125 248.972 104.921 248.972 104.708V102.028C248.972 101.814 249.057 101.61 249.208 101.459C249.359 101.308 249.563 101.224 249.776 101.224C249.99 101.224 250.194 101.308 250.345 101.459C250.496 101.61 250.58 101.814 250.58 102.028V104.708C250.58 104.921 250.496 105.125 250.345 105.276C250.194 105.427 249.99 105.512 249.776 105.512ZM249.776 100.152C249.563 100.152 249.359 100.067 249.208 99.9161C249.057 99.7653 248.972 99.5608 248.972 99.3475V96.6675C248.972 96.4543 249.057 96.2498 249.208 96.099C249.359 95.9482 249.563 95.8635 249.776 95.8635C249.99 95.8635 250.194 95.9482 250.345 96.099C250.496 96.2498 250.58 96.4543 250.58 96.6675V99.3475C250.58 99.5608 250.496 99.7653 250.345 99.9161C250.194 100.067 249.99 100.152 249.776 100.152ZM249.776 94.7915C249.563 94.7915 249.359 94.7068 249.208 94.5561C249.057 94.4053 248.972 94.2008 248.972 93.9875V91.3075C248.972 91.0943 249.057 90.8898 249.208 90.739C249.359 90.5882 249.563 90.5035 249.776 90.5035C249.99 90.5035 250.194 90.5882 250.345 90.739C250.496 90.8898 250.58 91.0943 250.58 91.3075V93.9875C250.58 94.2008 250.496 94.4053 250.345 94.5561C250.194 94.7068 249.99 94.7915 249.776 94.7915ZM249.776 89.4315C249.563 89.4315 249.359 89.3468 249.208 89.1961C249.057 89.0453 248.972 88.8408 248.972 88.6275V85.9475C248.972 85.7343 249.057 85.5298 249.208 85.379C249.359 85.2282 249.563 85.1435 249.776 85.1435C249.99 85.1435 250.194 85.2282 250.345 85.379C250.496 85.5298 250.58 85.7343 250.58 85.9475V88.6275C250.58 88.8408 250.496 89.0453 250.345 89.1961C250.194 89.3468 249.99 89.4315 249.776 89.4315ZM249.776 84.0715C249.563 84.0715 249.359 83.9868 249.208 83.8361C249.057 83.6853 248.972 83.4808 248.972 83.2675V80.5875C248.972 80.3743 249.057 80.1698 249.208 80.019C249.359 79.8682 249.563 79.7835 249.776 79.7835C249.99 79.7835 250.194 79.8682 250.345 80.019C250.496 80.1698 250.58 80.3743 250.58 80.5875V83.2675C250.58 83.4808 250.496 83.6853 250.345 83.8361C250.194 83.9868 249.99 84.0715 249.776 84.0715ZM249.776 78.7115C249.563 78.7115 249.359 78.6268 249.208 78.4761C249.057 78.3253 248.972 78.1208 248.972 77.9075V75.2275C248.972 75.0143 249.057 74.8098 249.208 74.659C249.359 74.5082 249.563 74.4235 249.776 74.4235C249.99 74.4235 250.194 74.5082 250.345 74.659C250.496 74.8098 250.58 75.0143 250.58 75.2275V77.9075C250.58 78.1208 250.496 78.3253 250.345 78.4761C250.194 78.6268 249.99 78.7115 249.776 78.7115ZM249.776 73.3515C249.563 73.3515 249.359 73.2668 249.208 73.1161C249.057 72.9653 248.972 72.7608 248.972 72.5475V69.8675C248.972 69.6543 249.057 69.4498 249.208 69.299C249.359 69.1482 249.563 69.0635 249.776 69.0635C249.99 69.0635 250.194 69.1482 250.345 69.299C250.496 69.4498 250.58 69.6543 250.58 69.8675V72.5475C250.58 72.7608 250.496 72.9653 250.345 73.1161C250.194 73.2668 249.99 73.3515 249.776 73.3515ZM249.776 67.9915C249.563 67.9915 249.359 67.9068 249.208 67.7561C249.057 67.6053 248.972 67.4008 248.972 67.1875V64.5075C248.972 64.2943 249.057 64.0898 249.208 63.939C249.359 63.7882 249.563 63.7035 249.776 63.7035C249.99 63.7035 250.194 63.7882 250.345 63.939C250.496 64.0898 250.58 64.2943 250.58 64.5075V67.1875C250.58 67.4008 250.496 67.6053 250.345 67.7561C250.194 67.9068 249.99 67.9915 249.776 67.9915ZM249.776 62.6315C249.563 62.6315 249.359 62.5468 249.208 62.3961C249.057 62.2453 248.972 62.0408 248.972 61.8275V59.1475C248.972 58.9343 249.057 58.7298 249.208 58.579C249.359 58.4282 249.563 58.3435 249.776 58.3435C249.99 58.3435 250.194 58.4282 250.345 58.579C250.496 58.7298 250.58 58.9343 250.58 59.1475V61.8275C250.58 62.0408 250.496 62.2453 250.345 62.3961C250.194 62.5468 249.99 62.6315 249.776 62.6315ZM249.776 57.2715C249.563 57.2715 249.359 57.1868 249.208 57.0361C249.057 56.8853 248.972 56.6808 248.972 56.4675V53.7875C248.972 53.5743 249.057 53.3698 249.208 53.219C249.359 53.0682 249.563 52.9835 249.776 52.9835C249.99 52.9835 250.194 53.0682 250.345 53.219C250.496 53.3698 250.58 53.5743 250.58 53.7875V56.4675C250.58 56.6808 250.496 56.8853 250.345 57.0361C250.194 57.1868 249.99 57.2715 249.776 57.2715ZM249.776 51.9115C249.563 51.9115 249.359 51.8268 249.208 51.6761C249.057 51.5253 248.972 51.3208 248.972 51.1075V48.4275C248.972 48.2143 249.057 48.0098 249.208 47.859C249.359 47.7082 249.563 47.6235 249.776 47.6235C249.99 47.6235 250.194 47.7082 250.345 47.859C250.496 48.0098 250.58 48.2143 250.58 48.4275V51.1075C250.58 51.3208 250.496 51.5253 250.345 51.6761C250.194 51.8268 249.99 51.9115 249.776 51.9115ZM212.256 49.5799C212.043 49.5799 211.839 49.4952 211.688 49.3445C211.537 49.1937 211.452 48.9892 211.452 48.7759V46.0959C211.452 45.8827 211.537 45.6782 211.688 45.5274C211.839 45.3766 212.043 45.2919 212.256 45.2919C212.47 45.2919 212.674 45.3766 212.825 45.5274C212.976 45.6782 213.06 45.8827 213.06 46.0959V48.7759C213.061 48.9837 212.98 49.1835 212.836 49.3334C212.693 49.4833 212.496 49.5716 212.289 49.5799H212.256ZM249.776 46.5515C249.563 46.5515 249.359 46.4668 249.208 46.3161C249.057 46.1653 248.972 45.9608 248.972 45.7475V43.0675C248.972 42.8543 249.057 42.6498 249.208 42.499C249.359 42.3482 249.563 42.2635 249.776 42.2635C249.99 42.2635 250.194 42.3482 250.345 42.499C250.496 42.6498 250.58 42.8543 250.58 43.0675V45.7475C250.58 45.9608 250.496 46.1653 250.345 46.3161C250.194 46.4668 249.99 46.5515 249.776 46.5515ZM212.256 44.2199C212.043 44.2199 211.839 44.1352 211.688 43.9845C211.537 43.8337 211.452 43.6292 211.452 43.4159V40.7359C211.452 40.5227 211.537 40.3182 211.688 40.1674C211.839 40.0167 212.043 39.9319 212.256 39.9319C212.47 39.9319 212.674 40.0167 212.825 40.1674C212.976 40.3182 213.06 40.5227 213.06 40.7359V43.4159C213.061 43.6237 212.98 43.8235 212.836 43.9734C212.693 44.1233 212.496 44.2116 212.289 44.2199H212.256ZM249.776 41.1915C249.563 41.1915 249.359 41.1068 249.208 40.9561C249.057 40.8053 248.972 40.6008 248.972 40.3875V37.7075C248.972 37.4943 249.057 37.2898 249.208 37.139C249.359 36.9882 249.563 36.9035 249.776 36.9035C249.99 36.9035 250.194 36.9882 250.345 37.139C250.496 37.2898 250.58 37.4943 250.58 37.7075V40.3875C250.58 40.6008 250.496 40.8053 250.345 40.9561C250.194 41.1068 249.99 41.1915 249.776 41.1915ZM212.256 38.8599C212.043 38.8599 211.839 38.7752 211.688 38.6245C211.537 38.4737 211.452 38.2692 211.452 38.0559V35.3759C211.452 35.1627 211.537 34.9582 211.688 34.8074C211.839 34.6567 212.043 34.5719 212.256 34.5719C212.47 34.5719 212.674 34.6567 212.825 34.8074C212.976 34.9582 213.06 35.1627 213.06 35.3759V38.0559C213.061 38.2637 212.98 38.4635 212.836 38.6134C212.693 38.7633 212.496 38.8516 212.289 38.8599H212.256ZM249.776 35.8315C249.563 35.8315 249.359 35.7468 249.208 35.5961C249.057 35.4453 248.972 35.2408 248.972 35.0275V32.9961C248.882 32.877 248.826 32.735 248.811 32.5859C248.797 32.4368 248.824 32.2867 248.891 32.1524C248.957 32.0181 249.06 31.905 249.187 31.8258C249.314 31.7467 249.461 31.7046 249.61 31.7043H249.776C249.99 31.7043 250.194 31.7891 250.345 31.9398C250.496 32.0906 250.58 32.2951 250.58 32.5083V35.0275C250.58 35.2408 250.496 35.4453 250.345 35.5961C250.194 35.7468 249.99 35.8315 249.776 35.8315ZM212.256 33.4999C212.043 33.4999 211.839 33.4152 211.688 33.2645C211.537 33.1137 211.452 32.9092 211.452 32.6959V32.5083C211.452 32.2951 211.537 32.0906 211.688 31.9398C211.839 31.7891 212.043 31.7043 212.256 31.7043H214.749C214.962 31.7043 215.167 31.7891 215.317 31.9398C215.468 32.0906 215.553 32.2951 215.553 32.5083C215.553 32.7216 215.468 32.9261 215.317 33.0769C215.167 33.2276 214.962 33.3123 214.749 33.3123H212.792C212.652 33.432 212.473 33.4984 212.289 33.4999H212.256ZM246.909 33.3123H244.229C244.016 33.3123 243.811 33.2276 243.66 33.0769C243.51 32.9261 243.425 32.7216 243.425 32.5083C243.425 32.2951 243.51 32.0906 243.66 31.9398C243.811 31.7891 244.016 31.7043 244.229 31.7043H246.909C247.122 31.7043 247.327 31.7891 247.477 31.9398C247.628 32.0906 247.713 32.2951 247.713 32.5083C247.713 32.7216 247.628 32.9261 247.477 33.0769C247.327 33.2276 247.122 33.3123 246.909 33.3123ZM241.549 33.3123H238.869C238.656 33.3123 238.451 33.2276 238.3 33.0769C238.15 32.9261 238.065 32.7216 238.065 32.5083C238.065 32.2951 238.15 32.0906 238.3 31.9398C238.451 31.7891 238.656 31.7043 238.869 31.7043H241.549C241.762 31.7043 241.967 31.7891 242.117 31.9398C242.268 32.0906 242.353 32.2951 242.353 32.5083C242.353 32.7216 242.268 32.9261 242.117 33.0769C241.967 33.2276 241.762 33.3123 241.549 33.3123ZM236.189 33.3123H233.509C233.296 33.3123 233.091 33.2276 232.94 33.0769C232.79 32.9261 232.705 32.7216 232.705 32.5083C232.705 32.2951 232.79 32.0906 232.94 31.9398C233.091 31.7891 233.296 31.7043 233.509 31.7043H236.189C236.402 31.7043 236.607 31.7891 236.757 31.9398C236.908 32.0906 236.993 32.2951 236.993 32.5083C236.993 32.7216 236.908 32.9261 236.757 33.0769C236.607 33.2276 236.402 33.3123 236.189 33.3123ZM230.829 33.3123H228.149C227.936 33.3123 227.731 33.2276 227.58 33.0769C227.43 32.9261 227.345 32.7216 227.345 32.5083C227.345 32.2951 227.43 32.0906 227.58 31.9398C227.731 31.7891 227.936 31.7043 228.149 31.7043H230.829C231.042 31.7043 231.247 31.7891 231.397 31.9398C231.548 32.0906 231.633 32.2951 231.633 32.5083C231.633 32.7216 231.548 32.9261 231.397 33.0769C231.247 33.2276 231.042 33.3123 230.829 33.3123ZM225.469 33.3123H222.789C222.576 33.3123 222.371 33.2276 222.22 33.0769C222.07 32.9261 221.985 32.7216 221.985 32.5083C221.985 32.2951 222.07 32.0906 222.22 31.9398C222.371 31.7891 222.576 31.7043 222.789 31.7043H225.469C225.682 31.7043 225.887 31.7891 226.037 31.9398C226.188 32.0906 226.273 32.2951 226.273 32.5083C226.273 32.7216 226.188 32.9261 226.037 33.0769C225.887 33.2276 225.682 33.3123 225.469 33.3123ZM220.109 33.3123H217.429C217.216 33.3123 217.011 33.2276 216.86 33.0769C216.71 32.9261 216.625 32.7216 216.625 32.5083C216.625 32.2951 216.71 32.0906 216.86 31.9398C217.011 31.7891 217.216 31.7043 217.429 31.7043H220.109C220.322 31.7043 220.527 31.7891 220.677 31.9398C220.828 32.0906 220.913 32.2951 220.913 32.5083C220.913 32.7216 220.828 32.9261 220.677 33.0769C220.527 33.2276 220.322 33.3123 220.109 33.3123Z" fill="#6699FF"/>
<path d="M130.736 69.3906C146.361 69.3906 159.026 56.7247 159.026 41.1005C159.026 25.4763 146.361 12.8104 130.736 12.8104C115.112 12.8104 102.446 25.4763 102.446 41.1005C102.446 56.7247 115.112 69.3906 130.736 69.3906Z" fill="#6699FF"/>
<path d="M208.874 102.574C224.498 102.574 237.164 89.9084 237.164 74.2842C237.164 58.66 224.498 45.9941 208.874 45.9941C193.25 45.9941 180.584 58.66 180.584 74.2842C180.584 89.9084 193.25 102.574 208.874 102.574Z" fill="#6699FF"/>
<path d="M52.6036 102.574C68.2277 102.574 80.8936 89.9084 80.8936 74.2842C80.8936 58.66 68.2277 45.9941 52.6036 45.9941C36.9794 45.9941 24.3135 58.66 24.3135 74.2842C24.3135 89.9084 36.9794 102.574 52.6036 102.574Z" fill="#6699FF"/>
<path d="M229.419 172.485C245.043 172.485 257.709 159.819 257.709 144.195C257.709 128.571 245.043 115.905 229.419 115.905C213.795 115.905 201.129 128.571 201.129 144.195C201.129 159.819 213.795 172.485 229.419 172.485Z" fill="#6699FF"/>
<path d="M32.0586 171.793C47.6828 171.793 60.3487 159.127 60.3487 143.503C60.3487 127.879 47.6828 115.213 32.0586 115.213C16.4345 115.213 3.76855 127.879 3.76855 143.503C3.76855 159.127 16.4345 171.793 32.0586 171.793Z" fill="#6699FF"/>
<path d="M208.874 246.41C224.498 246.41 237.164 233.744 237.164 218.12C237.164 202.496 224.498 189.83 208.874 189.83C193.25 189.83 180.584 202.496 180.584 218.12C180.584 233.744 193.25 246.41 208.874 246.41Z" fill="#6699FF"/>
<path d="M52.6036 246.41C68.2277 246.41 80.8936 233.744 80.8936 218.12C80.8936 202.496 68.2277 189.83 52.6036 189.83C36.9794 189.83 24.3135 202.496 24.3135 218.12C24.3135 233.744 36.9794 246.41 52.6036 246.41Z" fill="#6699FF"/>
<path d="M134 65.9494C149.624 65.9494 162.29 53.2835 162.29 37.6593C162.29 22.0352 149.624 9.36926 134 9.36926C118.376 9.36926 105.71 22.0352 105.71 37.6593C105.71 53.2835 118.376 65.9494 134 65.9494Z" fill="#F1F0F3"/>
<path d="M119.4 23.3053H136.68C138.022 23.3053 139.309 23.8384 140.258 24.7873C141.207 25.7362 141.74 27.0232 141.74 28.3651V48.5295H119.4C118.058 48.5295 116.771 47.9964 115.822 47.0475C114.873 46.0986 114.34 44.8116 114.34 43.4696V28.3651C114.34 27.7007 114.471 27.0427 114.725 26.4288C114.979 25.8149 115.352 25.2571 115.822 24.7873C116.292 24.3174 116.849 23.9447 117.463 23.6905C118.077 23.4362 118.735 23.3053 119.4 23.3053Z" fill="#000066"/>
<path d="M141.735 48.5294H153.661C154.506 48.5294 155.316 48.194 155.913 47.5969C156.51 46.9998 156.845 46.19 156.845 45.3455L153.865 34.3039C153.542 33.1002 152.83 32.0369 151.84 31.279C150.851 30.5211 149.639 30.1111 148.392 30.1124H141.735V48.5294Z" fill="#6699FF"/>
<path d="M143.444 32.1278V39.7551C143.444 39.7551 148.081 39.7068 153.741 39.7551C153.907 39.7551 152.133 34.3951 152.133 34.3951C152.133 34.3951 151.013 32.1492 147.641 32.1492L143.444 32.1278Z" fill="#F1F0F3"/>
<path d="M134.923 28.3276H121.147V39.7552H134.923V28.3276Z" fill="#F1F0F3"/>
<path d="M155.778 46.7339H115.406C114.817 46.7339 114.34 47.2114 114.34 47.8005V48.1918C114.34 48.7809 114.817 49.2584 115.406 49.2584H155.778C156.367 49.2584 156.845 48.7809 156.845 48.1918V47.8005C156.845 47.2114 156.367 46.7339 155.778 46.7339Z" fill="#4D4D4D"/>
<path d="M122.278 52.796C124.463 52.796 126.234 51.025 126.234 48.8403C126.234 46.6557 124.463 44.8846 122.278 44.8846C120.093 44.8846 118.322 46.6557 118.322 48.8403C118.322 51.025 120.093 52.796 122.278 52.796Z" fill="#2B3340"/>
<path d="M122.278 51.0112C123.459 51.0112 124.417 50.0537 124.417 48.8725C124.417 47.6914 123.459 46.7339 122.278 46.7339C121.097 46.7339 120.14 47.6914 120.14 48.8725C120.14 50.0537 121.097 51.0112 122.278 51.0112Z" fill="#F0F5FF"/>
<path d="M148.601 52.796C150.786 52.796 152.557 51.025 152.557 48.8403C152.557 46.6557 150.786 44.8846 148.601 44.8846C146.417 44.8846 144.646 46.6557 144.646 48.8403C144.646 51.025 146.417 52.796 148.601 52.796Z" fill="#2B3340"/>
<path d="M148.602 51.0112C149.783 51.0112 150.74 50.0537 150.74 48.8725C150.74 47.6914 149.783 46.7339 148.602 46.7339C147.42 46.7339 146.463 47.6914 146.463 48.8725C146.463 50.0537 147.42 51.0112 148.602 51.0112Z" fill="#F0F5FF"/>
<path d="M212.139 99.1331C227.763 99.1331 240.429 86.4672 240.429 70.8431C240.429 55.2189 227.763 42.553 212.139 42.553C196.515 42.553 183.849 55.2189 183.849 70.8431C183.849 86.4672 196.515 99.1331 212.139 99.1331Z" fill="#F1F0F3"/>
<path d="M224.073 64.6929L206.169 70.5241L211.235 86.0786L229.139 80.2475L224.073 64.6929Z" fill="#6699FF"/>
<path d="M215.111 67.6105L206.096 70.5469L211.162 86.1014L220.177 83.1651L215.111 67.6105Z" fill="#000066"/>
<path d="M215.693 53.8615L202.066 58.308L206.013 70.4015L219.639 65.955L215.693 53.8615Z" fill="#6699FF"/>
<path d="M209.285 55.9518L202.105 58.2947L206.052 70.3882L213.231 68.0453L209.285 55.9518Z" fill="#000066"/>
<path d="M216.87 67.0396L213.389 68.1733L214.546 71.7255L218.027 70.5918L216.87 67.0396Z" fill="#000066"/>
<path d="M210.227 55.8141L208.209 56.4714L209.945 61.8024L211.963 61.1451L210.227 55.8141Z" fill="#000066"/>
<path d="M220.741 78.9153L217.26 80.049L218.584 84.116L222.065 82.9823L220.741 78.9153Z" fill="#000066"/>
<path d="M210.648 88.5579C210.412 88.5636 210.179 88.4925 209.986 88.3554C209.793 88.2182 209.649 88.0223 209.576 87.7968L200.196 58.96C199.912 58.0715 199.287 57.3324 198.457 56.9052C197.628 56.478 196.663 56.3977 195.774 56.682C194.886 56.9663 194.147 57.5919 193.72 58.4212C193.292 59.2505 193.212 60.2155 193.496 61.104C193.553 61.2443 193.579 61.3947 193.575 61.5457C193.57 61.6968 193.535 61.8453 193.471 61.9822C193.407 62.119 193.315 62.2412 193.202 62.3412C193.088 62.4412 192.956 62.5169 192.812 62.5636C192.668 62.6103 192.517 62.6269 192.366 62.6126C192.216 62.5982 192.07 62.5532 191.938 62.4802C191.805 62.4071 191.689 62.3077 191.597 62.1881C191.505 62.0685 191.438 61.9312 191.401 61.7847C190.932 60.3433 191.054 58.7745 191.742 57.4235C192.429 56.0725 193.625 55.05 195.067 54.5809C196.508 54.1118 198.077 54.2345 199.428 54.922C200.779 55.6096 201.802 56.8057 202.271 58.2471L211.667 87.1107C211.757 87.3879 211.733 87.6894 211.602 87.9495C211.47 88.2095 211.241 88.4071 210.965 88.499C210.862 88.5319 210.756 88.5517 210.648 88.5579Z" fill="#4D4D4D"/>
<path d="M210.311 87.5395C210.054 87.5319 209.807 87.4347 209.614 87.2645C209.42 87.0943 209.293 86.862 209.253 86.6076C209.213 86.3532 209.263 86.0928 209.394 85.8715C209.526 85.6502 209.731 85.4818 209.973 85.3955L230.207 78.792C230.348 78.7359 230.498 78.7093 230.649 78.7137C230.8 78.7182 230.949 78.7535 231.086 78.8177C231.222 78.8818 231.345 78.9734 231.445 79.0867C231.545 79.2 231.62 79.3326 231.667 79.4763C231.714 79.62 231.73 79.7718 231.716 79.9223C231.702 80.0727 231.657 80.2186 231.584 80.3509C231.511 80.4832 231.411 80.5991 231.292 80.6914C231.172 80.7838 231.035 80.8506 230.888 80.8877L210.649 87.4805C210.54 87.5177 210.426 87.5376 210.311 87.5395Z" fill="#4D4D4D"/>
<path d="M210.311 92.2617C213.528 92.2617 216.137 89.6531 216.137 86.4353C216.137 83.2175 213.528 80.609 210.311 80.609C207.093 80.609 204.484 83.2175 204.484 86.4353C204.484 89.6531 207.093 92.2617 210.311 92.2617Z" fill="#2B3340"/>
<path d="M210.326 89.6353C212.067 89.6353 213.478 88.2242 213.478 86.4836C213.478 84.743 212.067 83.3319 210.326 83.3319C208.586 83.3319 207.175 84.743 207.175 86.4836C207.175 88.2242 208.586 89.6353 210.326 89.6353Z" fill="#F0F5FF"/>
<path d="M55.8623 99.1331C71.4865 99.1331 84.1524 86.4672 84.1524 70.8431C84.1524 55.2189 71.4865 42.553 55.8623 42.553C40.2382 42.553 27.5723 55.2189 27.5723 70.8431C27.5723 86.4672 40.2382 99.1331 55.8623 99.1331Z" fill="#F1F0F3"/>
<path d="M65.7627 49.0922H45.9629V68.1845H65.7627V49.0922Z" fill="#6699FF"/>
<path d="M55.8628 49.0922H45.9629V68.1845H55.8628V49.0922Z" fill="#000066"/>
<path d="M57.3255 49.0922H53.9326V56.7034H57.3255V49.0922Z" fill="#000066"/>
<path d="M57.3255 64.379H53.9326V68.1846H57.3255V64.379Z" fill="#000066"/>
<path d="M64.5723 63.0497H61.2705V66.8714H64.5723V63.0497Z" fill="#2B3340"/>
<path d="M55.8623 68.1846H36.0625V87.2769H55.8623V68.1846Z" fill="#6699FF"/>
<path d="M45.9624 68.1846H36.0625V87.2769H45.9624V68.1846Z" fill="#000066"/>
<path d="M47.4261 68.1846H44.0332V75.7958H47.4261V68.1846Z" fill="#000066"/>
<path d="M47.4261 83.4713H44.0332V87.2769H47.4261V83.4713Z" fill="#000066"/>
<path d="M54.6729 82.142H51.3711V85.9636H54.6729V82.142Z" fill="#2B3340"/>
<path d="M75.6621 68.1846H55.8623V87.2769H75.6621V68.1846Z" fill="#6699FF"/>
<path d="M65.7622 68.1846H55.8623V87.2769H65.7622V68.1846Z" fill="#000066"/>
<path d="M67.2259 68.1846H63.833V75.7958H67.2259V68.1846Z" fill="#000066"/>
<path d="M67.2259 83.4713H63.833V87.2769H67.2259V83.4713Z" fill="#000066"/>
<path d="M74.4727 82.142H71.1709V85.9636H74.4727V82.142Z" fill="#2B3340"/>
<path d="M232.678 169.038C248.302 169.038 260.968 156.372 260.968 140.748C260.968 125.124 248.302 112.458 232.678 112.458C217.054 112.458 204.388 125.124 204.388 140.748C204.388 156.372 217.054 169.038 232.678 169.038Z" fill="#F1F0F3"/>
<path d="M232.673 132.671C231.104 132.671 229.572 132.206 228.268 131.334C226.964 130.463 225.948 129.225 225.348 127.776C224.748 126.327 224.592 124.733 224.898 123.195C225.204 121.657 225.96 120.244 227.069 119.136C228.178 118.027 229.591 117.273 231.129 116.967C232.667 116.662 234.262 116.82 235.71 117.421C237.158 118.022 238.396 119.039 239.267 120.343C240.137 121.647 240.601 123.18 240.6 124.749C240.597 126.85 239.761 128.864 238.275 130.349C236.788 131.834 234.774 132.669 232.673 132.671ZM232.673 119.019C231.539 119.018 230.431 119.353 229.488 119.982C228.545 120.611 227.81 121.505 227.375 122.552C226.941 123.599 226.826 124.751 227.047 125.863C227.267 126.975 227.813 127.996 228.614 128.798C229.415 129.6 230.436 130.146 231.547 130.368C232.659 130.589 233.811 130.476 234.859 130.043C235.906 129.609 236.801 128.875 237.431 127.932C238.061 126.99 238.397 125.882 238.397 124.749C238.396 123.23 237.792 121.775 236.719 120.7C235.646 119.626 234.191 119.022 232.673 119.019Z" fill="#4D4D4D"/>
<path d="M244.068 125.231H221.277V157.284H244.068V125.231Z" fill="#000066"/>
<path d="M245.702 139.928C244.515 139.928 243.354 139.576 242.367 138.916C241.379 138.256 240.61 137.318 240.156 136.221C239.701 135.124 239.583 133.916 239.815 132.752C240.047 131.587 240.619 130.518 241.459 129.678C242.3 128.839 243.37 128.267 244.535 128.036C245.699 127.805 246.907 127.925 248.003 128.38C249.1 128.835 250.037 129.606 250.696 130.594C251.355 131.582 251.707 132.743 251.706 133.93C251.704 135.522 251.071 137.047 249.945 138.172C248.82 139.296 247.294 139.928 245.702 139.928ZM245.702 130.13C244.951 130.13 244.216 130.353 243.591 130.771C242.966 131.188 242.479 131.782 242.191 132.476C241.904 133.17 241.829 133.935 241.975 134.672C242.122 135.409 242.484 136.086 243.015 136.617C243.547 137.149 244.224 137.511 244.961 137.658C245.698 137.804 246.462 137.729 247.157 137.441C247.851 137.154 248.445 136.667 248.862 136.042C249.28 135.417 249.503 134.682 249.503 133.93C249.501 132.923 249.1 131.957 248.388 131.245C247.676 130.532 246.71 130.131 245.702 130.13Z" fill="#4D4D4D"/>
<path d="M253.882 134.279H237.523V157.284H253.882V134.279Z" fill="#000066"/>
<path d="M219.224 144.543C218.279 144.543 217.356 144.263 216.571 143.738C215.785 143.213 215.173 142.468 214.812 141.595C214.45 140.722 214.356 139.762 214.54 138.836C214.724 137.909 215.179 137.058 215.847 136.39C216.515 135.722 217.366 135.268 218.292 135.083C219.219 134.899 220.179 134.994 221.052 135.355C221.924 135.717 222.67 136.329 223.195 137.114C223.72 137.899 224 138.823 224 139.767C223.998 141.034 223.495 142.247 222.599 143.143C221.704 144.038 220.49 144.542 219.224 144.543ZM219.224 137.216C218.714 137.216 218.216 137.367 217.792 137.65C217.368 137.934 217.037 138.336 216.842 138.808C216.647 139.279 216.596 139.797 216.695 140.297C216.795 140.797 217.04 141.257 217.401 141.617C217.762 141.978 218.221 142.223 218.721 142.323C219.221 142.422 219.74 142.371 220.211 142.176C220.682 141.981 221.084 141.65 221.368 141.226C221.651 140.803 221.802 140.304 221.802 139.794C221.801 139.111 221.529 138.456 221.045 137.973C220.562 137.489 219.907 137.217 219.224 137.216Z" fill="#4D4D4D"/>
<path d="M227.404 140.025H211.062V157.284H227.404V140.025Z" fill="#6699FF"/>
<path d="M35.3233 168.347C50.9475 168.347 63.6134 155.681 63.6134 140.057C63.6134 124.433 50.9475 111.767 35.3233 111.767C19.6991 111.767 7.0332 124.433 7.0332 140.057C7.0332 155.681 19.6991 168.347 35.3233 168.347Z" fill="#F1F0F3"/>
<path d="M17.5117 131.556L19.6557 155.349H35.532V129.878L17.5117 131.556Z" fill="#000066"/>
<path d="M53.5472 131.556L51.4032 155.349H35.5322V129.878L53.5472 131.556Z" fill="#6699FF"/>
<path d="M53.2627 129.878H17.3775C16.6049 129.878 15.9785 130.505 15.9785 131.277V131.792C15.9785 132.564 16.6049 133.191 17.3775 133.191H53.2627C54.0353 133.191 54.6616 132.564 54.6616 131.792V131.277C54.6616 130.505 54.0353 129.878 53.2627 129.878Z" fill="#000066"/>
<path d="M51.4725 155.349H19.7681C18.9955 155.349 18.3691 155.975 18.3691 156.748V157.262C18.3691 158.035 18.9955 158.661 19.7681 158.661H51.4725C52.2451 158.661 52.8715 158.035 52.8715 157.262V156.748C52.8715 155.975 52.2451 155.349 51.4725 155.349Z" fill="#000066"/>
<path d="M22.5121 134.777H22.3138C22.003 134.777 21.751 135.029 21.751 135.34V142.989C21.751 143.3 22.003 143.552 22.3138 143.552H22.5121C22.8229 143.552 23.0749 143.3 23.0749 142.989V135.34C23.0749 135.029 22.8229 134.777 22.5121 134.777Z" fill="#F1F0F3"/>
<path d="M22.5121 145.084H22.3138C22.003 145.084 21.751 145.336 21.751 145.647V153.296C21.751 153.607 22.003 153.859 22.3138 153.859H22.5121C22.8229 153.859 23.0749 153.607 23.0749 153.296V145.647C23.0749 145.336 22.8229 145.084 22.5121 145.084Z" fill="#F1F0F3"/>
<path d="M25.1654 134.777H24.9671C24.6563 134.777 24.4043 135.029 24.4043 135.34V142.989C24.4043 143.3 24.6563 143.552 24.9671 143.552H25.1654C25.4762 143.552 25.7282 143.3 25.7282 142.989V135.34C25.7282 135.029 25.4762 134.777 25.1654 134.777Z" fill="#F1F0F3"/>
<path d="M25.1654 145.084H24.9671C24.6563 145.084 24.4043 145.336 24.4043 145.647V153.296C24.4043 153.607 24.6563 153.859 24.9671 153.859H25.1654C25.4762 153.859 25.7282 153.607 25.7282 153.296V145.647C25.7282 145.336 25.4762 145.084 25.1654 145.084Z" fill="#F1F0F3"/>
<path d="M27.8939 134.777H27.6956C27.3848 134.777 27.1328 135.029 27.1328 135.34V142.989C27.1328 143.3 27.3848 143.552 27.6956 143.552H27.8939C28.2048 143.552 28.4567 143.3 28.4567 142.989V135.34C28.4567 135.029 28.2048 134.777 27.8939 134.777Z" fill="#F1F0F3"/>
<path d="M27.8939 145.084H27.6956C27.3848 145.084 27.1328 145.336 27.1328 145.647V153.296C27.1328 153.607 27.3848 153.859 27.6956 153.859H27.8939C28.2048 153.859 28.4567 153.607 28.4567 153.296V145.647C28.4567 145.336 28.2048 145.084 27.8939 145.084Z" fill="#F1F0F3"/>
<path d="M30.5414 134.777H30.3431C30.0322 134.777 29.7803 135.029 29.7803 135.34V142.989C29.7803 143.3 30.0322 143.552 30.3431 143.552H30.5414C30.8522 143.552 31.1042 143.3 31.1042 142.989V135.34C31.1042 135.029 30.8522 134.777 30.5414 134.777Z" fill="#F1F0F3"/>
<path d="M30.5414 145.084H30.3431C30.0322 145.084 29.7803 145.336 29.7803 145.647V153.296C29.7803 153.607 30.0322 153.859 30.3431 153.859H30.5414C30.8522 153.859 31.1042 153.607 31.1042 153.296V145.647C31.1042 145.336 30.8522 145.084 30.5414 145.084Z" fill="#F1F0F3"/>
<path d="M33.3773 134.777H33.179C32.8682 134.777 32.6162 135.029 32.6162 135.34V142.989C32.6162 143.3 32.8682 143.552 33.179 143.552H33.3773C33.6882 143.552 33.9401 143.3 33.9401 142.989V135.34C33.9401 135.029 33.6882 134.777 33.3773 134.777Z" fill="#F1F0F3"/>
<path d="M33.3773 145.084H33.179C32.8682 145.084 32.6162 145.336 32.6162 145.647V153.296C32.6162 153.607 32.8682 153.859 33.179 153.859H33.3773C33.6882 153.859 33.9401 153.607 33.9401 153.296V145.647C33.9401 145.336 33.6882 145.084 33.3773 145.084Z" fill="#F1F0F3"/>
<path d="M37.349 134.777H37.1507C36.8399 134.777 36.5879 135.029 36.5879 135.34V142.989C36.5879 143.3 36.8399 143.552 37.1507 143.552H37.349C37.6598 143.552 37.9118 143.3 37.9118 142.989V135.34C37.9118 135.029 37.6598 134.777 37.349 134.777Z" fill="#F1F0F3"/>
<path d="M37.349 145.084H37.1507C36.8399 145.084 36.5879 145.336 36.5879 145.647V153.296C36.5879 153.607 36.8399 153.859 37.1507 153.859H37.349C37.6598 153.859 37.9118 153.607 37.9118 153.296V145.647C37.9118 145.336 37.6598 145.084 37.349 145.084Z" fill="#F1F0F3"/>
<path d="M40.0023 134.777H39.804C39.4932 134.777 39.2412 135.029 39.2412 135.34V142.989C39.2412 143.3 39.4932 143.552 39.804 143.552H40.0023C40.3132 143.552 40.5651 143.3 40.5651 142.989V135.34C40.5651 135.029 40.3132 134.777 40.0023 134.777Z" fill="#F1F0F3"/>
<path d="M40.0023 145.084H39.804C39.4932 145.084 39.2412 145.336 39.2412 145.647V153.296C39.2412 153.607 39.4932 153.859 39.804 153.859H40.0023C40.3132 153.859 40.5651 153.607 40.5651 153.296V145.647C40.5651 145.336 40.3132 145.084 40.0023 145.084Z" fill="#F1F0F3"/>
<path d="M42.7308 134.777H42.5325C42.2217 134.777 41.9697 135.029 41.9697 135.34V142.989C41.9697 143.3 42.2217 143.552 42.5325 143.552H42.7308C43.0417 143.552 43.2936 143.3 43.2936 142.989V135.34C43.2936 135.029 43.0417 134.777 42.7308 134.777Z" fill="#F1F0F3"/>
<path d="M42.7308 145.084H42.5325C42.2217 145.084 41.9697 145.336 41.9697 145.647V153.296C41.9697 153.607 42.2217 153.859 42.5325 153.859H42.7308C43.0417 153.859 43.2936 153.607 43.2936 153.296V145.647C43.2936 145.336 43.0417 145.084 42.7308 145.084Z" fill="#F1F0F3"/>
<path d="M45.3783 134.777H45.18C44.8692 134.777 44.6172 135.029 44.6172 135.34V142.989C44.6172 143.3 44.8692 143.552 45.18 143.552H45.3783C45.6891 143.552 45.9411 143.3 45.9411 142.989V135.34C45.9411 135.029 45.6891 134.777 45.3783 134.777Z" fill="#F1F0F3"/>
<path d="M45.3783 145.084H45.18C44.8692 145.084 44.6172 145.336 44.6172 145.647V153.296C44.6172 153.607 44.8692 153.859 45.18 153.859H45.3783C45.6891 153.859 45.9411 153.607 45.9411 153.296V145.647C45.9411 145.336 45.6891 145.084 45.3783 145.084Z" fill="#F1F0F3"/>
<path d="M48.2133 134.777H48.015C47.7041 134.777 47.4521 135.029 47.4521 135.34V142.989C47.4521 143.3 47.7041 143.552 48.015 143.552H48.2133C48.5241 143.552 48.7761 143.3 48.7761 142.989V135.34C48.7761 135.029 48.5241 134.777 48.2133 134.777Z" fill="#F1F0F3"/>
<path d="M48.2133 145.084H48.015C47.7041 145.084 47.4521 145.336 47.4521 145.647V153.296C47.4521 153.607 47.7041 153.859 48.015 153.859H48.2133C48.5241 153.859 48.7761 153.607 48.7761 153.296V145.647C48.7761 145.336 48.5241 145.084 48.2133 145.084Z" fill="#F1F0F3"/>
<path d="M41.8058 118.984L41.5177 118.696C41.0802 118.258 40.3709 118.258 39.9335 118.696L28.8247 129.805C28.3872 130.242 28.3872 130.951 28.8247 131.389L29.1127 131.677C29.5502 132.114 30.2595 132.114 30.697 131.677L41.8058 120.568C42.2432 120.131 42.2432 119.421 41.8058 118.984Z" fill="#2B3340"/>
<path d="M41.5214 131.676L41.8094 131.388C42.2469 130.951 42.2469 130.242 41.8094 129.804L30.7007 118.695C30.2632 118.258 29.5539 118.258 29.1164 118.695L28.8284 118.983C28.3909 119.421 28.3909 120.13 28.8284 120.568L39.9371 131.676C40.3746 132.114 41.0839 132.114 41.5214 131.676Z" fill="#2B3340"/>
<path d="M212.139 242.969C227.763 242.969 240.429 230.303 240.429 214.679C240.429 199.055 227.763 186.389 212.139 186.389C196.515 186.389 183.849 199.055 183.849 214.679C183.849 230.303 196.515 242.969 212.139 242.969Z" fill="#F1F0F3"/>
<path d="M228.481 208.279H196.048V232.002H228.481V208.279Z" fill="#6699FF"/>
<path d="M230.775 206.167H193.604V212.679H230.775V206.167Z" fill="#000066"/>
<path d="M215.611 231.997H209.501V206.162H212.556H215.611V231.997Z" fill="#000066"/>
<path d="M200.448 194.718L212.556 206.162H200.448V194.718Z" fill="#000066"/>
<path d="M223.984 194.718L212.557 206.162H224.66L223.984 194.718Z" fill="#000066"/>
<path d="M55.8623 242.969C71.4865 242.969 84.1524 230.303 84.1524 214.679C84.1524 199.055 71.4865 186.389 55.8623 186.389C40.2382 186.389 27.5723 199.055 27.5723 214.679C27.5723 230.303 40.2382 242.969 55.8623 242.969Z" fill="#F1F0F3"/>
<path d="M69.6805 215.386H38.7908C37.7673 215.386 36.7857 215.793 36.062 216.517C35.3382 217.24 34.9316 218.222 34.9316 219.245V229.965C34.9316 230.989 35.3382 231.971 36.062 232.694C36.7857 233.418 37.7673 233.825 38.7908 233.825H69.6805C70.704 233.825 71.6856 233.418 72.4094 232.694C73.1331 231.971 73.5397 230.989 73.5397 229.965V219.224C73.5341 218.204 73.125 217.228 72.4018 216.509C71.6787 215.79 70.7003 215.386 69.6805 215.386ZM68.3673 227.13C67.8657 227.13 67.3753 226.981 66.9582 226.702C66.5412 226.424 66.2163 226.027 66.0245 225.564C65.8328 225.1 65.7829 224.59 65.8812 224.098C65.9794 223.606 66.2214 223.154 66.5765 222.8C66.9316 222.446 67.3839 222.205 67.876 222.107C68.3682 222.01 68.8781 222.061 69.3413 222.254C69.8044 222.447 70.2 222.772 70.4779 223.19C70.7559 223.608 70.9037 224.098 70.9026 224.6C70.9026 224.935 70.8361 225.267 70.707 225.576C70.5778 225.885 70.3886 226.165 70.1503 226.4C69.9119 226.636 69.6292 226.821 69.3186 226.947C69.0079 227.072 68.6755 227.134 68.3405 227.13H68.3673Z" fill="#000066"/>
<path d="M68.0188 196.374L62.6588 191.014L50.2772 194.364L31.8066 212.792L39.0534 220.039L41.6905 222.681L48.9426 229.944L67.4024 211.484L70.7524 199.103L68.0188 196.374ZM62.0853 202.238C61.3602 202.238 60.6513 202.023 60.0484 201.62C59.4455 201.217 58.9756 200.645 58.6981 199.975C58.4206 199.305 58.348 198.568 58.4895 197.857C58.631 197.145 58.9801 196.492 59.4929 195.979C60.0056 195.467 60.6589 195.118 61.37 194.976C62.0812 194.835 62.8184 194.907 63.4883 195.185C64.1582 195.462 64.7308 195.932 65.1336 196.535C65.5365 197.138 65.7515 197.847 65.7515 198.572C65.7501 199.544 65.3634 200.475 64.6761 201.163C63.9889 201.85 63.0572 202.237 62.0853 202.238Z" fill="#6699FF"/>
<path d="M47.2838 213.913L46.5838 214.613C46.1638 214.234 45.6971 214.302 45.1837 214.815C44.9193 215.08 44.7611 215.341 44.7092 215.601C44.6574 215.85 44.717 216.06 44.8881 216.231C45.1474 216.49 45.5804 216.43 46.1871 216.052L46.9416 215.577C47.4342 215.271 47.8542 215.116 48.2016 215.111C48.5491 215.106 48.8706 215.251 49.1661 215.546C49.5447 215.925 49.6976 216.373 49.625 216.892C49.5473 217.405 49.2569 217.913 48.7539 218.416C48.2042 218.966 47.6572 219.254 47.1127 219.28C46.6616 219.306 46.2519 219.15 45.8837 218.813L46.6071 218.09C46.8301 218.23 47.0194 218.305 47.1749 218.315C47.4809 218.341 47.8257 218.162 48.2094 217.779C48.4946 217.493 48.6683 217.216 48.7306 216.946C48.7928 216.666 48.7357 216.438 48.5594 216.262C48.295 215.997 47.9087 216.021 47.4005 216.332L46.6616 216.791C46.0963 217.138 45.6478 217.327 45.3159 217.359C44.9374 217.395 44.5874 217.252 44.2659 216.931C43.9029 216.568 43.7525 216.143 43.8148 215.655C43.8822 215.163 44.1492 214.683 44.6159 214.216C45.1033 213.729 45.6037 213.472 46.1171 213.446C46.563 213.425 46.9519 213.581 47.2838 213.913ZM54.1769 211.749L54.6903 212.262C54.5762 212.501 54.4699 212.669 54.3714 212.768C53.9565 213.183 53.5417 213.219 53.1269 212.877C53.2306 213.551 52.9713 214.199 52.349 214.821C51.9187 215.252 51.4649 215.467 50.9879 215.467C50.573 215.467 50.2023 215.304 49.8756 214.977C49.5022 214.603 49.3467 214.183 49.4089 213.717C49.4452 213.452 49.6474 213.027 50.0156 212.441L51.0268 210.839L50.7001 210.497C50.3008 210.097 49.8004 210.198 49.1989 210.8C48.6233 211.376 48.5481 211.917 48.9733 212.426L48.3277 213.071C47.9907 212.703 47.8092 212.345 47.7833 211.998C47.7418 211.407 48.0296 210.803 48.6466 210.185C49.6474 209.185 50.5108 209.047 51.2368 209.773L53.4691 212.006C53.6662 212.203 53.8502 212.216 54.0214 212.044C54.0421 212.024 54.081 211.954 54.138 211.834C54.1588 211.793 54.1717 211.764 54.1769 211.749ZM51.5557 211.352L50.7934 212.643C50.5186 213.105 50.3604 213.455 50.3189 213.693C50.2826 213.927 50.3527 214.132 50.529 214.308C50.9386 214.718 51.4079 214.658 51.9368 214.129C52.3102 213.756 52.5046 213.317 52.5202 212.814C52.5357 212.498 52.4476 212.244 52.2557 212.052L51.5557 211.352ZM50.4659 205.395L56.0351 210.964L55.3973 211.602L49.8281 206.033L50.4659 205.395ZM58.6702 204.704L55.7222 207.652C56.0697 207.989 56.4145 208.189 56.7567 208.251C57.3064 208.355 57.7912 208.197 58.2112 207.777C58.7298 207.258 58.8335 206.662 58.5224 205.988L59.1602 205.35C59.4972 205.853 59.6321 206.372 59.5646 206.906C59.4972 207.44 59.2354 207.935 58.779 208.391C58.1724 208.998 57.5008 209.255 56.7645 209.161C56.1163 209.084 55.4941 208.746 54.8977 208.15C54.2081 207.46 53.8581 206.737 53.8477 205.98C53.8425 205.321 54.0992 204.733 54.6177 204.214C54.9963 203.836 55.4189 203.595 55.8856 203.491C56.3574 203.382 56.8138 203.424 57.2545 203.615C57.6331 203.776 58.0972 204.131 58.6468 204.681L58.6702 204.704ZM57.4645 204.868C57.1171 204.52 56.7334 204.344 56.3134 204.339C55.8933 204.323 55.5226 204.476 55.2011 204.798C54.8744 205.124 54.7137 205.498 54.7188 205.918C54.724 206.327 54.8926 206.724 55.2244 207.108L57.4645 204.868Z" fill="#F1F0F3"/>
<path d="M135.756 168C153.054 168 167.076 153.977 167.076 136.68C167.076 119.382 153.054 105.359 135.756 105.359C118.458 105.359 104.436 119.382 104.436 136.68C104.436 153.977 118.458 168 135.756 168Z" fill="url(#paint0_radial_120_2816)"/>
<path fill-rule="evenodd" clip-rule="evenodd" d="M139.603 116.51C146.768 116.51 152.58 122.331 152.58 129.487C152.58 136.17 147.537 141.666 141.049 142.38C140.261 142.464 139.659 143.131 139.659 143.928V153.299C139.659 153.892 139.177 154.374 138.583 154.374H132.957C132.364 154.374 131.882 153.892 131.882 153.299V142.918C131.882 138.487 135.386 134.844 139.816 134.668C142.588 134.557 144.803 132.277 144.803 129.478C144.803 126.613 142.476 124.287 139.612 124.287L139.436 124.296C138.417 124.324 137.425 124.444 136.461 124.63C135.293 124.852 134.199 124.574 133.281 123.823C132.364 123.073 131.882 122.044 131.882 120.857V120.755C131.882 118.902 133.17 117.335 134.996 116.983C136.359 116.723 137.758 116.556 139.195 116.51L139.612 116.501L139.603 116.51Z" fill="#6699FF"/>
<path fill-rule="evenodd" clip-rule="evenodd" d="M139.537 125.334H139.602C141.891 125.334 143.755 127.197 143.755 129.487C143.755 131.739 141.956 133.575 139.723 133.639C134.791 133.779 130.843 137.82 130.843 142.77V153.299C130.843 153.892 130.361 154.374 129.768 154.374H123.622C123.029 154.374 122.547 153.892 122.547 153.299V142.77C122.547 133.343 130.055 125.631 139.472 125.334H139.546H139.537Z" fill="#FEFEFE"/>
<line x1="96.8" y1="157.8" x2="96.8" y2="201.2" stroke="#6699FF" stroke-width="1.6" stroke-linecap="round" stroke-dasharray="3 3"/>
<line x1="170.8" y1="157.8" x2="170.8" y2="201.2" stroke="#6699FF" stroke-width="1.6" stroke-linecap="round" stroke-dasharray="3 3"/>
<line x1="132.8" y1="68.8" x2="132.8" y2="98.2" stroke="#6699FF" stroke-width="1.6" stroke-linecap="round" stroke-dasharray="3 3"/>
<defs>
<radialGradient id="paint0_radial_120_2816" cx="0" cy="0" r="1" gradientUnits="userSpaceOnUse" gradientTransform="translate(168.122 151.66) rotate(107.19) scale(53.0832 52.7621)">
<stop stop-color="#5781FF"/>
<stop offset="1" stop-color="#000066"/>
</radialGradient>
</defs>
</svg>
