<svg width="174" height="242" viewBox="0 0 174 242" fill="none" xmlns="http://www.w3.org/2000/svg">
<path d="M116.006 113.572C83.1965 97.8917 60.6565 97.8917 60.6565 97.8917C60.6565 97.8917 38.1165 97.8917 5.3165 113.572C3.59927 114.384 2.17243 115.704 1.22834 117.352C0.28424 119.001 -0.131728 120.899 0.0365032 122.792C1.5465 139.432 5.9265 184.362 10.7165 201.332C11.6621 204.67 13.6484 207.62 16.3865 209.752L54.3865 239.382C56.187 240.789 58.4064 241.553 60.6915 241.553C62.9766 241.553 65.196 240.789 66.9965 239.382L104.957 209.762C107.698 207.633 109.685 204.682 110.627 201.342C115.417 184.342 119.807 139.442 121.307 122.802C121.475 120.906 121.057 119.003 120.109 117.352C119.161 115.702 117.729 114.382 116.006 113.572Z" fill="#64C0FF"/>
<path d="M112.047 117.582C81.5867 103.032 60.6567 103.032 60.6567 103.032C60.6567 103.032 39.7267 103.032 9.26669 117.582C7.67321 118.337 6.34936 119.562 5.4733 121.093C4.59725 122.623 4.21106 124.385 4.36669 126.142C5.76669 141.602 9.83669 183.312 14.2867 199.072C15.1647 202.171 17.0071 204.91 19.5467 206.892L54.8067 234.402C56.4758 235.711 58.5356 236.422 60.6567 236.422C62.7778 236.422 64.8376 235.711 66.5067 234.402L101.767 206.892C104.306 204.91 106.149 202.171 107.027 199.072C111.477 183.312 115.547 141.602 116.947 126.142C117.102 124.385 116.716 122.623 115.84 121.093C114.964 119.562 113.64 118.337 112.047 117.582Z" fill="#000066"/>
<g style="mix-blend-mode:multiply" opacity="0.35">
<path d="M9.26669 117.582C7.67321 118.337 6.34936 119.562 5.4733 121.093C4.59725 122.623 4.21106 124.385 4.36669 126.142C5.76669 141.602 9.83669 183.312 14.2867 199.072C15.1647 202.171 17.0071 204.91 19.5467 206.892L54.8067 234.402C56.4784 235.703 58.538 236.408 60.6567 236.402V103.032C60.6567 103.032 39.7267 103.032 9.26669 117.582Z" fill="#000066"/>
</g>
<path d="M73.74 164.57V143.23C73.74 142.225 73.3407 141.261 72.6299 140.55C71.9192 139.839 70.9552 139.44 69.95 139.44H49.9C48.8948 139.44 47.9308 139.839 47.2201 140.55C46.5093 141.261 46.11 142.225 46.11 143.23V154.23H41V140.31C41 138.636 41.6648 137.032 42.8482 135.848C44.0315 134.665 45.6365 134 47.31 134H73.11C74.7844 134 76.3904 134.664 77.5754 135.848C78.7603 137.031 79.4273 138.636 79.43 140.31V164.59L73.74 164.57Z" fill="#E2E8EB"/>
<path d="M78.9565 153.762H42.3465C41.1097 153.764 39.9244 154.258 39.0508 155.133C38.1772 156.009 37.6865 157.195 37.6865 158.432V184.522C37.6865 184.522 42.0065 202.662 60.6865 202.662C79.3665 202.662 83.6865 184.522 83.6865 184.522V158.432C83.6866 157.813 83.5638 157.201 83.3254 156.631C83.087 156.06 82.7376 155.543 82.2976 155.108C81.8576 154.674 81.3356 154.331 80.7621 154.1C80.1885 153.869 79.5748 153.754 78.9565 153.762Z" fill="#6699FF"/>
<g style="mix-blend-mode:multiply" opacity="0.55">
<path d="M63.9562 197.602C45.3062 197.602 40.9562 179.462 40.9562 179.462V153.982C39.9933 154.263 39.1474 154.848 38.5452 155.651C37.9431 156.453 37.6171 157.429 37.6162 158.432V184.522C37.6162 184.522 41.9362 202.662 60.6162 202.662C72.7862 202.662 78.8562 194.942 81.6162 189.572C79.4782 192.166 76.7759 194.239 73.7153 195.63C70.6548 197.022 67.3169 197.696 63.9562 197.602Z" fill="#6699FF"/>
</g>
<path d="M60.6562 164.232C60.6562 164.232 53.6562 164.232 53.6562 170.232C53.6562 175.462 57.1862 175.342 57.1862 175.342V182.112H64.1862V175.342C64.1862 175.342 67.7063 175.462 67.7063 170.232C67.7063 164.232 60.6562 164.232 60.6562 164.232Z" fill="white"/>
<path d="M65.6982 81.8032C81.6819 79.2086 92.5361 64.1479 89.9415 48.1641C87.347 32.1804 72.2863 21.3262 56.3025 23.9208C40.3187 26.5153 29.4646 41.576 32.0591 57.5598C34.6537 73.5436 49.7144 84.3977 65.6982 81.8032Z" fill="#000066"/>
<path d="M47.1969 56.7617C37.7269 65.7617 38.7469 81.1017 38.7469 81.1017C44.9669 86.4117 60.6569 87.4717 60.6569 87.4717C60.6569 87.4717 76.3469 86.4117 82.5669 81.1017C82.5669 81.1017 83.5669 65.7917 74.1169 56.7617C70.5089 53.2648 65.6815 51.3093 60.6569 51.3093C55.6323 51.3093 50.8049 53.2648 47.1969 56.7617Z" fill="#6699FF"/>
<path d="M60.6568 45.9717C68.8859 45.9717 75.5568 39.3008 75.5568 31.0717C75.5568 22.8427 68.8859 16.1717 60.6568 16.1717C52.4278 16.1717 45.7568 22.8427 45.7568 31.0717C45.7568 39.3008 52.4278 45.9717 60.6568 45.9717Z" fill="#6699FF"/>
<path d="M101.366 72.7617V29.3617C101.366 28.7642 101.484 28.1726 101.713 27.6205C101.941 27.0685 102.276 26.5669 102.699 26.1444C103.121 25.7219 103.623 25.3867 104.175 25.1581C104.727 24.9294 105.319 24.8117 105.916 24.8117H139.426C139.426 24.8117 144.726 27.5417 144.726 32.6917H164.096C164.769 32.6917 165.434 32.8242 166.056 33.0815C166.677 33.3388 167.241 33.7159 167.717 34.1913C168.192 34.6668 168.569 35.2312 168.827 35.8524C169.084 36.4736 169.216 37.1394 169.216 37.8117V71.3617C169.214 73.0494 168.541 74.6671 167.347 75.8595C166.153 77.052 164.534 77.7217 162.846 77.7217H106.296C105.646 77.7218 105.003 77.5932 104.403 77.3436C103.803 77.094 103.258 76.7282 102.8 76.2672C102.341 75.8062 101.979 75.2592 101.733 74.6576C101.487 74.056 101.362 73.4117 101.366 72.7617Z" fill="#6699FF"/>
<g style="mix-blend-mode:multiply" opacity="0.55">
<path d="M101.366 72.7617V29.3617C101.366 28.7642 101.484 28.1726 101.713 27.6205C101.941 27.0685 102.276 26.5669 102.699 26.1444C103.121 25.7219 103.623 25.3867 104.175 25.1581C104.727 24.9294 105.319 24.8117 105.916 24.8117H139.426C139.426 24.8117 144.726 27.5417 144.726 32.6917H164.096C164.769 32.6917 165.434 32.8242 166.056 33.0815C166.677 33.3388 167.241 33.7159 167.717 34.1913C168.192 34.6668 168.569 35.2312 168.827 35.8524C169.084 36.4736 169.216 37.1394 169.216 37.8117V71.3617C169.214 73.0494 168.541 74.6671 167.347 75.8595C166.153 77.052 164.534 77.7217 162.846 77.7217H106.296C105.646 77.7218 105.003 77.5932 104.403 77.3436C103.803 77.094 103.258 76.7282 102.8 76.2672C102.341 75.8062 101.979 75.2592 101.733 74.6576C101.487 74.056 101.362 73.4117 101.366 72.7617Z" fill="#6699FF"/>
</g>
<path d="M112.956 35.0517V5.69173C112.959 4.22059 113.544 2.81047 114.585 1.77022C115.625 0.729964 117.035 0.144382 118.506 0.141739H155.506L166.726 11.1417V39.0417H112.956V35.0517Z" fill="white"/>
<path d="M155.156 0.221747V10.5217C155.143 10.8106 155.192 11.0989 155.301 11.3668C155.41 11.6348 155.576 11.8759 155.787 12.0736C155.998 12.2713 156.249 12.4209 156.524 12.5121C156.798 12.6033 157.089 12.6339 157.376 12.6017L166.526 11.4517C166.568 11.4442 166.606 11.4254 166.638 11.3974C166.669 11.3694 166.692 11.3334 166.705 11.2932C166.717 11.2529 166.718 11.2101 166.708 11.1693C166.698 11.1285 166.676 11.0913 166.646 11.0617L155.556 0.061743C155.523 0.0317093 155.482 0.0116077 155.438 0.00372913C155.394 -0.00414942 155.348 0.000513187 155.307 0.0171721C155.265 0.0338311 155.229 0.0618236 155.202 0.0979827C155.176 0.134142 155.16 0.177021 155.156 0.221747Z" fill="#EFEFEF"/>
<path d="M124.246 14.2336L126.816 12.6736C126.922 12.606 127.048 12.5762 127.173 12.5889C127.298 12.6016 127.416 12.6561 127.506 12.7436L132.096 17.0836C132.149 17.1402 132.214 17.1853 132.285 17.2161C132.356 17.2469 132.433 17.2628 132.511 17.2628C132.589 17.2628 132.666 17.2469 132.737 17.2161C132.808 17.1853 132.873 17.1402 132.926 17.0836L141.346 7.20357C141.438 7.09214 141.57 7.02056 141.713 7.00379C141.857 6.98702 142.001 7.02634 142.116 7.11356L145.166 9.37357C145.233 9.42258 145.289 9.48564 145.329 9.55837C145.369 9.6311 145.393 9.71173 145.399 9.79461C145.404 9.87748 145.392 9.9606 145.362 10.0382C145.332 10.1157 145.286 10.1858 145.226 10.2436L133.336 21.8836C133.231 21.975 133.096 22.0254 132.956 22.0254C132.817 22.0254 132.682 21.975 132.576 21.8836L124.186 15.1336C124.123 15.0748 124.073 15.0027 124.041 14.9223C124.009 14.842 123.996 14.7555 124.001 14.6692C124.007 14.583 124.032 14.4991 124.074 14.4237C124.117 14.3483 124.175 14.2833 124.246 14.2336Z" fill="#000066"/>
<path d="M106.066 75.8317V32.4017C106.066 31.195 106.546 30.0377 107.399 29.1844C108.252 28.3311 109.41 27.8517 110.616 27.8517H144.126C144.126 27.8517 149.426 30.5817 149.426 35.7317H168.796C170.154 35.7317 171.457 36.2712 172.417 37.2314C173.377 38.1915 173.916 39.4938 173.916 40.8517V74.3917C173.916 76.0812 173.245 77.7014 172.051 78.896C170.856 80.0906 169.236 80.7617 167.546 80.7617H110.956C109.656 80.7512 108.412 80.2271 107.496 79.3037C106.58 78.3803 106.066 77.1324 106.066 75.8317Z" fill="#6699FF"/>
<path d="M166.716 43.6217H112.286V48.1717H166.716V43.6217Z" fill="#6699FF"/>
<path d="M166.706 43.6217H138.206V48.1717H166.706V43.6217Z" fill="white"/>
<path d="M166.717 43.6217H150.717V48.1717H166.717V43.6217Z" fill="#000066"/>
<path d="M74.5264 25.1817V10.4717C74.5264 9.85631 74.6477 9.24692 74.8836 8.67846C75.1194 8.11001 75.465 7.59364 75.9006 7.15893C76.3363 6.72422 76.8534 6.37971 77.4223 6.14511C77.9913 5.9105 78.6009 5.79041 79.2164 5.79173H108.496" stroke="#6699FF" stroke-width="1.2" stroke-linecap="round" stroke-linejoin="round"/>
<path d="M81.7461 52.8717V20.7617C81.7461 20.0697 81.8824 19.3844 82.1473 18.745C82.4121 18.1056 82.8003 17.5246 83.2896 17.0353C83.779 16.5459 84.36 16.1577 84.9994 15.8929C85.6387 15.628 86.324 15.4917 87.0161 15.4917H107.276" stroke="#6699FF" stroke-width="1.2" stroke-linecap="round" stroke-linejoin="round"/>
<path d="M89.2168 103.762H110.667C112.062 103.762 113.4 103.208 114.386 102.221C115.373 101.235 115.927 99.8968 115.927 98.5017V85.0117" stroke="#6699FF" stroke-width="1.2" stroke-linecap="round" stroke-linejoin="round"/>
<path d="M98.5068 145.632H124.037C125.541 145.632 126.983 145.034 128.046 143.971C129.109 142.908 129.707 141.466 129.707 139.962V85.0117" stroke="#6699FF" stroke-width="1.2" stroke-linecap="round" stroke-linejoin="round"/>
<path d="M102.207 145.632C102.209 146.364 101.993 147.08 101.588 147.69C101.183 148.3 100.605 148.776 99.9295 149.057C99.2536 149.339 98.5093 149.413 97.7909 149.272C97.0726 149.13 96.4123 148.779 95.8939 148.262C95.3754 147.745 95.022 147.085 94.8785 146.367C94.7349 145.649 94.8076 144.905 95.0873 144.228C95.3671 143.551 95.8413 142.973 96.45 142.566C97.0586 142.159 97.7744 141.942 98.5066 141.942C99.4862 141.942 100.426 142.33 101.119 143.022C101.813 143.714 102.204 144.652 102.207 145.632Z" fill="white"/>
<path d="M92.3561 103.762C92.3581 104.383 92.1757 104.991 91.8318 105.509C91.488 106.027 90.9983 106.431 90.4247 106.67C89.8511 106.909 89.2195 106.973 88.6097 106.853C88 106.733 87.4395 106.434 86.9994 105.996C86.5593 105.557 86.2592 104.997 86.1372 104.388C86.0153 103.779 86.0769 103.147 86.3142 102.572C86.5516 101.998 86.954 101.507 87.4706 101.162C87.9872 100.816 88.5947 100.632 89.2161 100.632C90.0464 100.634 90.842 100.965 91.43 101.551C92.0181 102.137 92.3509 102.932 92.3561 103.762Z" fill="white"/>
<path d="M74.527 28.0817C76.1286 28.0817 77.427 26.7834 77.427 25.1817C77.427 23.5801 76.1286 22.2817 74.527 22.2817C72.9253 22.2817 71.627 23.5801 71.627 25.1817C71.627 26.7834 72.9253 28.0817 74.527 28.0817Z" fill="white"/>
<path d="M84.6467 52.8717C84.6467 53.4453 84.4766 54.006 84.1579 54.4829C83.8393 54.9598 83.3864 55.3315 82.8565 55.551C82.3266 55.7705 81.7435 55.8279 81.1809 55.716C80.6184 55.6041 80.1016 55.3279 79.6961 54.9223C79.2905 54.5168 79.0143 54 78.9024 53.4375C78.7905 52.875 78.8479 52.2919 79.0674 51.7619C79.2869 51.232 79.6586 50.7791 80.1355 50.4605C80.6124 50.1418 81.1731 49.9717 81.7467 49.9717C82.5158 49.9717 83.2534 50.2773 83.7973 50.8211C84.3411 51.365 84.6467 52.1026 84.6467 52.8717Z" fill="white"/>
</svg>
