<svg width="172" height="180" viewBox="0 0 172 180" fill="none" xmlns="http://www.w3.org/2000/svg">
<g clip-path="url(#clip0_116_2771)">
<path d="M87.8423 71.49H86.1758V77.6453H87.8423V71.49Z" fill="#890606"/>
<path d="M77.0542 71.49H75.3877V77.6453H77.0542V71.49Z" fill="#890606"/>
<path d="M80.8694 93.4294C70.9143 93.4294 62.3625 87.5378 58.3279 79.0522C58.2401 79.2721 58.1963 79.4919 58.1963 79.7117V107.147C58.1963 108.29 59.1173 109.169 60.2136 109.169H101.481C102.578 109.169 103.499 108.246 103.499 107.147V79.7117C103.499 79.4919 103.455 79.2721 103.367 79.0522C99.3763 87.5378 90.8245 93.4294 80.8694 93.4294Z" fill="#6699FF"/>
<path d="M80.8698 99.2329C90.8249 99.2329 99.3767 91.187 103.411 79.5358C103.148 78.4367 102.403 77.6453 101.526 77.6453H60.2578C59.3807 77.6453 58.6352 78.4367 58.3721 79.5358C62.3629 91.187 70.9585 99.2329 80.8698 99.2329Z" fill="#000066"/>
<path d="M80.8698 93.4294C90.8249 93.4294 99.3767 87.5379 103.411 79.0523C103.148 78.2609 102.403 77.6893 101.526 77.6893H60.2578C59.3807 77.6893 58.6352 78.2609 58.3721 79.0523C62.3629 87.5379 70.9585 93.4294 80.8698 93.4294Z" fill="#6699FF"/>
<path d="M85.8691 71.49H77.405C76.4841 71.49 75.7385 70.8744 75.4754 70.0391C75.3877 70.3908 75.3877 70.8305 75.3877 71.3141V71.6219C75.3877 72.765 76.3087 73.6443 77.405 73.6443H85.8691C86.9655 73.6443 87.8864 72.721 87.8864 71.6219V71.3141C87.8864 70.8305 87.8864 70.3908 87.7987 70.0391C87.5356 70.9184 86.7462 71.49 85.8691 71.49Z" fill="#000066"/>
<path d="M86.7464 69.2916H76.4842C75.8703 69.2916 75.5633 69.5994 75.4756 70.0391C75.7387 70.8744 76.4843 71.49 77.4052 71.49H85.8693C86.7902 71.49 87.5358 70.8744 87.7989 70.0391C87.6673 69.5994 87.4042 69.2916 86.7464 69.2916Z" fill="#F48B56"/>
<path fill-rule="evenodd" clip-rule="evenodd" d="M84.4214 91.4509C84.553 91.4509 84.6846 91.4509 84.7723 91.4509C85.474 91.4509 86.0441 91.9785 86.0441 92.7259C86.0441 94.8363 86.0441 96.9467 86.0441 99.0571C86.0441 99.7606 85.5178 100.332 84.7723 100.332C83.8075 100.332 82.8426 100.332 81.834 100.332C80.2113 100.332 78.5448 100.332 76.9222 100.332C76.3082 100.332 75.8258 99.9365 75.6942 99.3649C75.6504 99.277 75.6504 99.1451 75.6504 99.0571C75.6504 96.9467 75.6504 94.8363 75.6504 92.7259C75.6504 92.1983 75.9135 91.8026 76.3521 91.5828C76.5275 91.4948 76.7029 91.4509 76.8783 91.4509C76.966 91.4509 77.0976 91.4509 77.2292 91.4509C77.2292 91.4069 77.2292 91.3629 77.2292 91.3629C77.2292 90.9672 77.2292 90.5715 77.2292 90.1758C77.2292 88.3732 78.4571 86.9223 80.1675 86.5706C82.0532 86.2188 83.939 87.5378 84.2899 89.4284C84.3337 89.6482 84.3337 89.912 84.3776 90.1758C84.3776 90.5715 84.3776 90.9672 84.3776 91.3629C84.4214 91.3629 84.4214 91.4069 84.4214 91.4509ZM83.7197 91.4069C83.7197 91.3629 83.7197 91.3629 83.7197 91.319C83.7197 90.9233 83.7197 90.4836 83.7197 90.0879C83.7197 89.8681 83.6759 89.6482 83.632 89.4284C83.2812 87.9335 81.834 87.0102 80.299 87.274C79.0272 87.4939 78.0186 88.637 77.9747 89.956C77.9309 90.4396 77.9747 90.8793 77.9747 91.3629V91.4069C79.9043 91.4509 81.834 91.4509 83.7197 91.4069Z" fill="url(#paint0_linear_116_2771)"/>
<path fill-rule="evenodd" clip-rule="evenodd" d="M80.0799 96.463C80.0799 96.2872 80.0799 96.1113 80.0799 95.8915C80.0799 95.8475 80.0799 95.8475 80.036 95.8035C79.5975 95.4078 79.4221 94.9682 79.5975 94.3966C79.7291 93.825 80.1238 93.5173 80.6939 93.3854C81.4394 93.2535 82.1411 93.7811 82.2288 94.5285C82.2727 95.0121 82.1411 95.4518 81.7464 95.7596C81.7025 95.8035 81.7025 95.8035 81.7025 95.8475C81.7025 96.1992 81.7025 96.507 81.7025 96.8587C81.7025 97.2544 81.4394 97.6062 81.0886 97.6501C80.5623 97.7381 80.1238 97.3863 80.1238 96.8587C80.0799 96.8148 80.0799 96.6389 80.0799 96.463Z" fill="#890606"/>
<path d="M125.207 83.8887L129.373 180H138.802L139.767 94.2648L145.161 180H155.906L155.16 83.1852L125.207 83.8887Z" fill="url(#paint1_linear_116_2771)"/>
<path d="M139.021 17.5427L138.67 6.85876C137.442 9.89247 134.416 9.80454 134.416 9.80454H126.084C126.084 11.0796 126.04 15.3004 126.04 19.3453C136.083 23.3463 139.021 17.5427 139.021 17.5427Z" fill="#FFB975"/>
<path d="M141.126 26.0723C141.038 30.381 133.934 29.9853 133.934 29.9853V35.0415L144.503 35.1294C144.503 35.1294 144.503 24.3136 144.503 13.5857L141.126 14.6409C141.126 14.5969 141.214 21.7635 141.126 26.0723Z" fill="#FFB975"/>
<path d="M136.828 2.72593C125.119 2.02246 126.084 9.45285 126.084 9.45285C126.084 9.45285 126.084 9.58475 126.084 9.84855H134.416C134.416 9.84855 137.399 9.93648 138.67 6.90277L139.021 17.5867C139.021 17.5867 136.083 23.3464 126.04 19.4333C126.04 22.1153 126.04 24.7093 126.084 26.2921C126.172 30.6448 128.978 29.9853 128.978 29.9853H133.934C133.934 29.9853 141.039 30.381 141.126 26.0723C141.214 21.7635 141.126 14.597 141.126 14.597L144.503 13.5418C144.503 13.4099 144.503 13.278 144.503 13.1461C144.503 5.49584 141.784 3.0337 136.828 2.72593Z" fill="#444343"/>
<path d="M147.441 16.7953C147.441 18.422 146.125 19.741 144.503 19.741C142.88 19.741 141.564 18.422 141.564 16.7953C141.564 15.1685 142.88 13.8495 144.503 13.8495C146.125 13.8495 147.441 15.1685 147.441 16.7953Z" fill="#FFB975"/>
<path d="M133.232 23.786C133.232 23.786 136.609 24.5335 137.837 21.7196" stroke="white" stroke-width="3" stroke-miterlimit="10" stroke-linecap="round" stroke-linejoin="round"/>
<path d="M79.4657 68.2364C79.4657 68.2364 77.2291 69.2916 77.4922 72.4133C77.6238 73.9961 79.2903 76.722 83.5004 75.403C85.737 74.6995 86.2194 72.721 86.2633 71.3141H87.5789L85.7809 66.5217L79.4657 68.2364Z" fill="#FFB975"/>
<path d="M172 63.7958C172 63.7958 164.545 50.6057 160.291 42.1641C156.037 33.7225 150.073 35.1294 150.073 35.1294H126.084C126.084 35.1294 123.584 35.9648 121.567 38.6028C119.506 41.2848 108.849 60.2345 108.849 60.2345L85.7373 66.5217L88.237 73.2486L112.928 71.3141L123.146 61.1138L123.891 83.9326L155.16 83.1851L155.774 61.6854L152.66 58.2999L160.861 67.1812L159.063 96.6829L165.641 98.4416L172 63.7958Z" fill="url(#paint2_linear_116_2771)"/>
<path d="M162.615 109.082C167 107.895 163.36 99.7607 163.36 99.7607L163.799 97.9141L159.106 96.683L158.975 98.7055C158.975 98.7494 158.229 110.269 162.615 109.082Z" fill="#FFB975"/>
<path d="M152.704 58.2999L155.16 83.1851L155.818 61.6854L152.704 58.2999Z" fill="url(#paint3_linear_116_2771)"/>
<path d="M123.145 61.1138L123.584 53.3756L112.927 71.3141L123.145 61.1138Z" fill="url(#paint4_linear_116_2771)"/>
<path d="M139.766 40.5373L137.749 37.5476L135.775 40.5373L137.573 43.2633L135.775 46.9565L137.749 71.3141L139.766 46.9565L137.924 43.2633L139.766 40.5373Z" fill="white" stroke="white" stroke-miterlimit="10" stroke-linecap="round" stroke-linejoin="round"/>
<path d="M35.9615 27.7869C35.9615 27.7869 42.7591 28.0068 42.9784 21.104C43.1976 14.2012 42.9784 10.6399 42.9784 10.6399C42.9784 10.6399 42.9784 2.90173 32.4531 2.90173C21.9279 2.90173 24.9977 16.2237 24.9977 23.3463C24.9977 30.4689 24.9977 35.1294 24.9977 35.1294H35.9615V27.7869Z" fill="#FFB975"/>
<path d="M43.0658 54.4309C43.0658 54.4309 48.0214 62.6527 52.4069 67.3131C56.7925 71.9736 59.643 71.3141 59.643 71.3141L76.308 72.809V66.214L62.0551 61.3337C62.0551 61.3337 52.8455 45.5496 50.2142 40.2296C47.5829 34.9096 43.0658 35.1295 43.0658 35.1295H18.6384C18.6384 35.1295 14.0337 36.0088 11.8409 40.8891C9.64814 45.7694 9.64814 45.7694 9.64814 45.7694L0 66.6536L4.03468 101.299L10.9638 100.2L11.8409 69.5554L14.6915 61.6854L15.13 82.9213L45.8287 83.361L46.925 60.3224" fill="#000066"/>
<path d="M15.13 82.8773L8.55176 180H18.1999L29.6022 94.8803V180H40.3468L45.8287 83.317L15.13 82.8773Z" fill="url(#paint5_linear_116_2771)"/>
<path d="M44.2937 2.90182C41.5746 -2.41816 33.8123 1.23108 33.8123 1.23108C30.6108 -1.75866 28.2865 2.02249 28.2865 2.02249V2.06645C24.1203 2.37422 20.875 5.89156 20.875 10.1563V16.2677C20.875 20.7963 24.4711 24.4455 28.9444 24.4455C34.8209 24.4455 37.0137 23.1705 37.2768 20.0928C37.4523 17.9824 36.3559 15.3884 39.0749 15.3884C41.9693 15.3444 41.7939 13.234 41.7939 13.234C41.7939 13.234 47.8459 13.6737 48.0214 8.79337C48.2406 3.91306 44.2937 2.90182 44.2937 2.90182Z" fill="#444343"/>
<path d="M76.3076 67.1813C76.3076 67.1813 84.5524 68.3684 85.2979 70.5667C86.0435 72.809 83.9384 75.1393 80.8247 74.8755C77.7548 74.6117 78.1495 71.1383 78.1495 71.1383H76.3076V67.1813Z" fill="#FFB975"/>
<path d="M5.0434 101.168C5.0434 101.168 3.94702 111.104 9.12193 110.225C14.2968 109.345 10.4376 100.332 10.4376 100.332L5.0434 101.168Z" fill="#FFB975"/>
<path d="M14.6914 61.6854L18.3314 82.8774H15.13L14.6914 61.6854Z" fill="black"/>
<path d="M46.3546 72.2375L43.0654 54.4309L46.9247 60.2785L46.3546 72.2375Z" fill="black"/>
</g>
<defs>
<linearGradient id="paint0_linear_116_2771" x1="75.69" y1="93.42" x2="86.0581" y2="93.42" gradientUnits="userSpaceOnUse">
<stop offset="0.0107527" stop-color="#FCE72B"/>
<stop offset="1" stop-color="#FCAE00"/>
</linearGradient>
<linearGradient id="paint1_linear_116_2771" x1="125.214" y1="131.579" x2="155.905" y2="131.579" gradientUnits="userSpaceOnUse">
<stop stop-color="#6699FF"/>
<stop offset="1" stop-color="#000066"/>
</linearGradient>
<linearGradient id="paint2_linear_116_2771" x1="85.72" y1="66.7298" x2="171.985" y2="66.7298" gradientUnits="userSpaceOnUse">
<stop stop-color="#000066"/>
<stop offset="0.3512" stop-color="#6699FF"/>
<stop offset="0.5902" stop-color="#6699FF"/>
<stop offset="0.7952" stop-color="#5781FF"/>
<stop offset="0.9809" stop-color="#6699FF"/>
</linearGradient>
<linearGradient id="paint3_linear_116_2771" x1="152.689" y1="70.7366" x2="155.807" y2="70.7366" gradientUnits="userSpaceOnUse">
<stop stop-color="#000066"/>
<stop offset="1" stop-color="#0A384F"/>
</linearGradient>
<linearGradient id="paint4_linear_116_2771" x1="112.926" y1="62.3405" x2="123.587" y2="62.3405" gradientUnits="userSpaceOnUse">
<stop stop-color="#6699FF"/>
<stop offset="1" stop-color="#000066"/>
</linearGradient>
<linearGradient id="paint5_linear_116_2771" x1="8.55176" y1="131.431" x2="45.8287" y2="131.431" gradientUnits="userSpaceOnUse">
<stop stop-color="#6699FF"/>
<stop offset="1" stop-color="#000066"/>
</linearGradient>
<clipPath id="clip0_116_2771">
<rect width="172" height="180" fill="white"/>
</clipPath>
</defs>
</svg>
