<svg width="139" height="45" viewBox="0 0 139 45" fill="none" xmlns="http://www.w3.org/2000/svg">
<path d="M43.6581 39.4529V42.0671H43.0444V39.4703L40.8296 35.122H41.5323L43.16 38.3898C43.2045 38.4856 43.2756 38.6512 43.3646 38.8777H43.3824C43.4091 38.808 43.4357 38.747 43.4624 38.6947C43.4802 38.6425 44.1029 37.4486 45.3214 35.122H45.9796L43.667 39.4616L43.6581 39.4529ZM49.8311 42.1891C49.1906 42.1891 48.6125 42.0409 48.1144 41.7447C47.6074 41.4484 47.2249 41.0301 46.9492 40.4898C46.6734 39.9496 46.5311 39.3483 46.5311 38.6686C46.5311 37.9366 46.6734 37.2918 46.9492 36.7341C47.2249 36.1764 47.6252 35.7494 48.1411 35.4531C48.657 35.1481 49.2707 35 49.9556 35C50.5871 35 51.1475 35.1481 51.6456 35.4444C52.1437 35.7407 52.5173 36.1503 52.7841 36.6818C53.051 37.2134 53.1844 37.8233 53.1844 38.4943C53.1844 39.2263 53.051 39.8711 52.7752 40.4288C52.4995 40.9952 52.1081 41.4309 51.61 41.7272C51.103 42.0322 50.5071 42.1804 49.8311 42.1804V42.1891ZM49.8844 35.549C49.3507 35.549 48.8793 35.6797 48.4702 35.9324C48.061 36.1851 47.7408 36.5511 47.5095 37.0217C47.2783 37.4922 47.1715 38.0151 47.1715 38.6076C47.1715 39.2002 47.2783 39.723 47.4918 40.1936C47.7052 40.6554 48.0165 41.0127 48.4168 41.2654C48.8171 41.5181 49.2885 41.6488 49.8222 41.6488C50.6672 41.6488 51.3343 41.3787 51.8146 40.8297C52.2949 40.2807 52.5351 39.54 52.5351 38.5902C52.5351 37.9715 52.4283 37.4399 52.2238 36.9781C52.0103 36.5162 51.7079 36.1677 51.3076 35.9237C50.9073 35.6797 50.427 35.5577 49.8755 35.5577L49.8844 35.549ZM59.4552 39.2786C59.4552 41.2218 58.5924 42.1891 56.8668 42.1891C55.2213 42.1891 54.3941 41.2567 54.3941 39.3832V35.1133H55.0167V39.3222C55.0167 40.089 55.1768 40.6728 55.497 41.065C55.8172 41.4484 56.3064 41.6488 56.9647 41.6488C58.2188 41.6488 58.8414 40.8994 58.8414 39.4006V35.122H59.4552V39.2873V39.2786ZM64.881 42.0671L63.8403 40.0628C63.6357 39.6794 63.44 39.4093 63.2443 39.2524C63.0487 39.0956 62.7996 39.0259 62.4972 39.0259H61.6878V42.0671H61.074V35.1133H63.102C63.4934 35.1133 63.8492 35.1917 64.1605 35.3398C64.4807 35.488 64.7209 35.7058 64.8988 35.976C65.0767 36.2548 65.1656 36.5772 65.1656 36.9432C65.1656 37.4312 65.0233 37.8408 64.7387 38.1719C64.454 38.503 64.0538 38.7209 63.5379 38.8342V38.8516C63.7158 38.9213 63.8759 39.0433 64.0093 39.2089C64.1516 39.3744 64.2939 39.601 64.4451 39.8973L65.6015 42.0671H64.881ZM61.6878 35.671V38.4769H62.8708C63.36 38.4769 63.7602 38.3462 64.0627 38.076C64.3651 37.8059 64.5163 37.4486 64.5163 36.9955C64.5163 36.5772 64.3829 36.2548 64.1071 36.0195C63.8403 35.7843 63.4489 35.671 62.9419 35.671H61.6878ZM75.7593 42.0671V37.2308C75.7593 37.0129 75.777 36.6382 75.8126 36.0893H75.7948C75.697 36.3855 75.6169 36.5947 75.5547 36.7167L73.073 42.0671H72.8151L70.3246 36.7602C70.2445 36.5947 70.1734 36.3681 70.1022 36.0805H70.0844C70.1022 36.342 70.12 36.7079 70.12 37.1698V42.0671H69.5151V35.1133H70.2089L72.6817 40.4288C72.7795 40.6293 72.8685 40.8558 72.9485 41.1085H72.9752C73.0819 40.8123 73.1531 40.6205 73.1887 40.5334C73.2243 40.455 74.0604 38.6425 75.7059 35.1133H76.373V42.0671H75.7681H75.7593ZM80.9627 42.1891C80.3223 42.1891 79.7441 42.0409 79.246 41.7447C78.739 41.4484 78.3565 41.0301 78.0808 40.4898C77.805 39.9496 77.6627 39.3483 77.6627 38.6686C77.6627 37.9366 77.805 37.2918 78.0808 36.7341C78.3565 36.1764 78.7568 35.7494 79.2727 35.4531C79.7886 35.1481 80.4023 35 81.0872 35C81.7187 35 82.2791 35.1481 82.7772 35.4444C83.2753 35.7407 83.6489 36.1503 83.9157 36.6818C84.1826 37.2134 84.316 37.8233 84.316 38.4943C84.316 39.2263 84.1826 39.8711 83.9068 40.4288C83.6311 40.9952 83.2397 41.4309 82.7416 41.7272C82.2346 42.0322 81.6387 42.1804 80.9627 42.1804V42.1891ZM81.016 35.549C80.4824 35.549 80.0109 35.6797 79.6018 35.9324C79.1926 36.1851 78.8724 36.5511 78.6411 37.0217C78.4099 37.4922 78.3032 38.0151 78.3032 38.6076C78.3032 39.2002 78.4099 39.723 78.6234 40.1936C78.8368 40.6554 79.1482 41.0127 79.5484 41.2654C79.9487 41.5181 80.4201 41.6488 80.9538 41.6488C81.7988 41.6488 82.4659 41.3787 82.9462 40.8297C83.4265 40.2807 83.6667 39.54 83.6667 38.5902C83.6667 37.9715 83.5599 37.4399 83.3554 36.9781C83.1419 36.5162 82.8395 36.1677 82.4392 35.9237C82.0389 35.6797 81.5586 35.5577 81.0072 35.5577L81.016 35.549ZM90.5156 42.0671L86.5041 36.4814C86.3707 36.281 86.2817 36.1415 86.2373 36.0457H86.2195C86.2284 36.1502 86.2373 36.3332 86.2373 36.5947V42.0671H85.6235V35.1133H86.264L90.2132 40.638C90.3022 40.7687 90.4 40.9168 90.4978 41.0998H90.5245C90.4978 40.8035 90.489 40.5595 90.489 40.3504V35.1133H91.1116V42.0671H90.5156ZM92.8283 42.0671V35.1133H96.2527V35.6623H93.442V38.2765H96.0482V38.8167H93.442V41.5094H96.4128V42.0584H92.8283V42.0671ZM99.8996 39.4529V42.0671H99.2859V39.4703L97.0711 35.122H97.7737L99.4015 38.3898C99.446 38.4856 99.5171 38.6512 99.6061 38.8777H99.6238C99.6505 38.808 99.6772 38.747 99.7039 38.6947C99.7217 38.6425 100.344 37.4486 101.563 35.122H102.221L99.9085 39.4616L99.8996 39.4529ZM108.857 42.1891C108.216 42.1891 107.638 42.0409 107.14 41.7447C106.633 41.4484 106.25 41.0301 105.975 40.4898C105.699 39.9496 105.557 39.3483 105.557 38.6686C105.557 37.9366 105.699 37.2918 105.975 36.7341C106.25 36.1764 106.651 35.7494 107.167 35.4531C107.682 35.1481 108.296 35 108.981 35C109.613 35 110.173 35.1481 110.671 35.4444C111.169 35.7407 111.543 36.1503 111.81 36.6818C112.076 37.2134 112.21 37.8233 112.21 38.4943C112.21 39.2263 112.076 39.8711 111.801 40.4288C111.525 40.9952 111.134 41.4309 110.636 41.7272C110.129 42.0322 109.533 42.1804 108.857 42.1804V42.1891ZM108.91 35.549C108.376 35.549 107.905 35.6797 107.496 35.9324C107.087 36.1851 106.766 36.5511 106.535 37.0217C106.304 37.4922 106.197 38.0151 106.197 38.6076C106.197 39.2002 106.304 39.723 106.517 40.1936C106.731 40.6554 107.042 41.0127 107.442 41.2654C107.843 41.5181 108.314 41.6488 108.848 41.6488C109.693 41.6488 110.36 41.3787 110.84 40.8297C111.32 40.2807 111.561 39.54 111.561 38.5902C111.561 37.9715 111.454 37.4399 111.249 36.9781C111.036 36.5162 110.733 36.1677 110.333 35.9237C109.933 35.6797 109.453 35.5577 108.901 35.5577L108.91 35.549ZM118.41 42.0671L114.398 36.4814C114.265 36.281 114.176 36.1415 114.131 36.0457H114.113C114.122 36.1502 114.131 36.3332 114.131 36.5947V42.0671H113.517V35.1133H114.158L118.107 40.638C118.196 40.7687 118.294 40.9168 118.392 41.0998H118.418C118.392 40.8035 118.383 40.5595 118.383 40.3504V35.1133H119.006V42.0671H118.41ZM120.722 42.0671V35.1133H121.336V41.5181H124.182V42.0671H120.713H120.722ZM125.899 35.1133V42.0671H125.285V35.1133H125.899ZM132.499 42.0671L128.487 36.4814C128.354 36.281 128.265 36.1415 128.22 36.0457H128.203C128.212 36.1502 128.22 36.3332 128.22 36.5947V42.0671H127.607V35.1133H128.247L132.196 40.638C132.285 40.7687 132.383 40.9168 132.481 41.0998H132.508C132.481 40.8035 132.472 40.5595 132.472 40.3504V35.1133H133.095V42.0671H132.499ZM134.811 42.0671V35.1133H138.236V35.6623H135.425V38.2765H138.031V38.8167H135.425V41.5094H138.396V42.0584H134.811V42.0671Z" fill="white"/>
<path fill-rule="evenodd" clip-rule="evenodd" d="M16.3664 8.45256C23.242 8.45256 28.819 13.925 28.819 20.6522C28.819 26.935 23.9803 32.1024 17.7539 32.7734C16.9979 32.8518 16.4197 33.4792 16.4197 34.2286V43.0385C16.4197 43.5962 15.9572 44.0493 15.3879 44.0493H9.98882C9.41956 44.0493 8.95703 43.5962 8.95703 43.0385V33.2788C8.95703 29.1135 12.3192 25.6889 16.5709 25.5233C19.2305 25.4188 21.3563 23.2751 21.3563 20.6435C21.3563 17.9508 19.1237 15.7636 16.3752 15.7636L16.2062 15.7723C15.2278 15.7985 14.2761 15.9118 13.351 16.086C12.2303 16.2952 11.1807 16.0338 10.3001 15.3279C9.41956 14.6221 8.95703 13.6548 8.95703 12.5394V12.4436C8.95703 10.7008 10.1934 9.22811 11.9457 8.89698C13.2532 8.65298 14.5963 8.49613 15.975 8.45256L16.3752 8.44385L16.3664 8.45256Z" fill="#6699FF"/>
<path fill-rule="evenodd" clip-rule="evenodd" d="M16.3041 16.7483H16.3663C18.5633 16.7483 20.3512 18.4998 20.3512 20.6522C20.3512 22.7697 18.6256 24.4951 16.482 24.5561C11.75 24.6868 7.9608 28.4861 7.9608 33.1394V43.0385C7.9608 43.5962 7.49827 44.0493 6.92901 44.0493H1.03179C0.462527 44.0493 0 43.5962 0 43.0385V33.1394C0 24.2772 7.20474 17.0271 16.2418 16.7483H16.313H16.3041Z" fill="white"/>
<path fill-rule="evenodd" clip-rule="evenodd" d="M37.8826 0C39.4125 0 40.6577 1.21996 40.6577 2.71877C40.6577 4.21759 39.4125 5.43755 37.8826 5.43755C36.3527 5.43755 35.1074 4.21759 35.1074 2.71877C35.1074 1.21996 36.3527 0 37.8826 0ZM38.4163 3.04119C38.7098 2.87563 38.9055 2.53578 38.9055 2.16108C38.9055 1.61209 38.4963 1.15896 38.0071 1.15896H37.1532V4.14787H37.6068V3.15448C37.6068 3.15448 37.8292 3.15448 37.936 3.15448L38.5853 4.14787H39.1367L38.4163 3.04119ZM38.0071 2.65778H37.598V1.65566C37.598 1.65566 37.9626 1.65566 38.0071 1.65566C38.2562 1.65566 38.4607 1.88223 38.4607 2.16108C38.4607 2.43121 38.2562 2.65778 38.0071 2.65778Z" fill="#6699FF"/>
<path fill-rule="evenodd" clip-rule="evenodd" d="M63.1519 28.2683V23.5627H60.7503C59.425 23.5627 58.3488 24.6171 58.3488 25.9155C58.3488 27.2139 59.425 28.2683 60.7503 28.2683H63.1519ZM47.346 14.1167C50.6726 14.1167 53.3677 16.757 53.3677 20.0161C53.3677 22.456 51.8556 24.5561 49.6942 25.4536L53.3499 31.8236H49.1961L45.8072 25.9242H44.9444V31.8236H41.3242V25.9242V22.3776H47.346C48.6713 22.3776 49.7475 21.3232 49.7475 20.0248C49.7475 18.7264 48.6713 17.672 47.346 17.672H41.3242V14.1254H47.346V14.1167ZM98.5708 20.0161V31.8149H94.9506V20.0161C94.9506 18.7177 93.8744 17.6633 92.5491 17.6633H90.1475V31.8149H86.5273V17.6633V14.1167H90.1475H92.5491C95.8757 14.1167 98.5708 16.757 98.5708 20.0161ZM85.1664 14.1167V31.8149H81.5463V14.1167H85.1664ZM80.1854 17.6633L72.5715 28.2683H74.1636H80.1854V31.8149H74.1636H68.1419V28.2683L75.7291 17.6633H68.1419V14.1167H78.2641H80.1854V17.6633ZM66.781 23.5627V28.2683V29.4621V31.8149H60.7592C57.4326 31.8149 54.7375 29.1745 54.7375 25.9155C54.7375 22.6564 57.4326 20.0161 60.7592 20.0161H63.1608C63.1608 18.7177 62.0846 17.6633 60.7592 17.6633H57.0146V14.1167H60.7592C64.0859 14.1167 66.781 16.757 66.781 20.0161V23.5627Z" fill="#6699FF"/>
<path fill-rule="evenodd" clip-rule="evenodd" d="M119.367 23.5715C118.041 23.5715 116.965 24.6259 116.965 25.9243C116.965 27.2227 118.041 28.2771 119.367 28.2771H121.768V23.5715H119.367ZM105.962 14.1255C109.289 14.1255 111.984 16.7658 111.984 20.0249C111.984 23.2839 109.289 25.9243 105.962 25.9243H103.561V31.8237H99.9404V25.9243V22.3777H105.962C107.287 22.3777 108.364 21.3233 108.364 20.0249C108.364 18.7265 107.287 17.6721 105.962 17.6721H99.9404V14.1255H105.962ZM126.749 28.2771H132.771C134.096 28.2771 135.173 27.2227 135.173 25.9243H132.771C129.444 25.9243 126.749 23.2839 126.749 20.0249V14.1255H130.369V20.0249C130.369 21.3233 131.446 22.3777 132.771 22.3777H135.173V14.1255H138.793V22.3777V25.9243C138.793 29.1833 136.098 31.8237 132.771 31.8237H126.749V28.2771ZM119.367 31.8237C116.04 31.8237 113.345 29.1833 113.345 25.9243C113.345 22.6652 116.04 20.0249 119.367 20.0249H121.768C121.768 18.7265 120.692 17.6721 119.367 17.6721H115.622V14.1255H119.367C122.693 14.1255 125.388 16.7658 125.388 20.0249V23.5715V28.2771V29.4709V31.8237H119.367Z" fill="white"/>
</svg>
