<svg width="139" height="45" viewBox="0 0 139 45" fill="none" xmlns="http://www.w3.org/2000/svg">
<path d="M43.548 39.4529V42.0671H42.9358V39.4703L40.7266 35.122H41.4275L43.0511 38.3898C43.0955 38.4856 43.1664 38.6512 43.2552 38.8777H43.2729C43.2995 38.808 43.3261 38.747 43.3528 38.6947C43.3705 38.6425 43.9916 37.4486 45.2071 35.122H45.8636L43.5568 39.4616L43.548 39.4529ZM49.7053 42.1891C49.0665 42.1891 48.4898 42.0409 47.993 41.7447C47.4873 41.4484 47.1058 41.0301 46.8307 40.4898C46.5557 39.9496 46.4137 39.3483 46.4137 38.6686C46.4137 37.9366 46.5557 37.2918 46.8307 36.7341C47.1058 36.1764 47.505 35.7494 48.0196 35.4531C48.5342 35.1481 49.1464 35 49.8296 35C50.4595 35 51.0184 35.1481 51.5153 35.4444C52.0121 35.7407 52.3848 36.1503 52.6509 36.6818C52.9171 37.2134 53.0502 37.8233 53.0502 38.4943C53.0502 39.2263 52.9171 39.8711 52.6421 40.4288C52.367 40.9952 51.9767 41.4309 51.4798 41.7272C50.9741 42.0322 50.3796 42.1804 49.7053 42.1804V42.1891ZM49.7586 35.549C49.2262 35.549 48.756 35.6797 48.3479 35.9324C47.9398 36.1851 47.6203 36.5511 47.3897 37.0217C47.159 37.4922 47.0525 38.0151 47.0525 38.6076C47.0525 39.2002 47.159 39.723 47.3719 40.1936C47.5849 40.6554 47.8954 41.0127 48.2946 41.2654C48.6939 41.5181 49.1641 41.6488 49.6965 41.6488C50.5393 41.6488 51.2048 41.3787 51.6839 40.8297C52.163 40.2807 52.4025 39.54 52.4025 38.5902C52.4025 37.9715 52.2961 37.4399 52.092 36.9781C51.8791 36.5162 51.5774 36.1677 51.1781 35.9237C50.7789 35.6797 50.2998 35.5577 49.7497 35.5577L49.7586 35.549ZM59.3052 39.2786C59.3052 41.2218 58.4446 42.1891 56.7233 42.1891C55.082 42.1891 54.2568 41.2567 54.2568 39.3832V35.1133H54.8779V39.3222C54.8779 40.089 55.0376 40.6728 55.357 41.065C55.6764 41.4484 56.1644 41.6488 56.8209 41.6488C58.0719 41.6488 58.693 40.8994 58.693 39.4006V35.122H59.3052V39.2873V39.2786ZM64.7173 42.0671L63.6792 40.0628C63.4752 39.6794 63.28 39.4093 63.0848 39.2524C62.8896 39.0956 62.6412 39.0259 62.3395 39.0259H61.5321V42.0671H60.9199V35.1133H62.9428C63.3332 35.1133 63.6881 35.1917 63.9986 35.3398C64.318 35.488 64.5576 35.7058 64.735 35.976C64.9125 36.2548 65.0012 36.5772 65.0012 36.9432C65.0012 37.4312 64.8593 37.8408 64.5753 38.1719C64.2914 38.503 63.8922 38.7209 63.3776 38.8342V38.8516C63.555 38.9213 63.7147 39.0433 63.8478 39.2089C63.9898 39.3744 64.1317 39.601 64.2826 39.8973L65.436 42.0671H64.7173ZM61.5321 35.671V38.4769H62.7122C63.2001 38.4769 63.5994 38.3462 63.901 38.076C64.2027 37.8059 64.3535 37.4486 64.3535 36.9955C64.3535 36.5772 64.2204 36.2548 63.9454 36.0195C63.6792 35.7843 63.2888 35.671 62.7831 35.671H61.5321ZM75.5681 42.0671V37.2308C75.5681 37.0129 75.5859 36.6382 75.6214 36.0893H75.6036C75.506 36.3855 75.4262 36.5947 75.3641 36.7167L72.8887 42.0671H72.6314L70.1472 36.7602C70.0673 36.5947 69.9963 36.3681 69.9253 36.0805H69.9076C69.9253 36.342 69.9431 36.7079 69.9431 37.1698V42.0671H69.3398V35.1133H70.0318L72.4983 40.4288C72.5959 40.6293 72.6846 40.8558 72.7645 41.1085H72.7911C72.8976 40.8123 72.9685 40.6205 73.004 40.5334C73.0395 40.455 73.8735 38.6425 75.5149 35.1133H76.1803V42.0671H75.577H75.5681ZM80.7584 42.1891C80.1196 42.1891 79.5429 42.0409 79.0461 41.7447C78.5404 41.4484 78.1589 41.0301 77.8838 40.4898C77.6088 39.9496 77.4668 39.3483 77.4668 38.6686C77.4668 37.9366 77.6088 37.2918 77.8838 36.7341C78.1589 36.1764 78.5581 35.7494 79.0727 35.4531C79.5873 35.1481 80.1995 35 80.8826 35C81.5126 35 82.0715 35.1481 82.5684 35.4444C83.0652 35.7407 83.4379 36.1503 83.7041 36.6818C83.9702 37.2134 84.1033 37.8233 84.1033 38.4943C84.1033 39.2263 83.9702 39.8711 83.6952 40.4288C83.4201 40.9952 83.0298 41.4309 82.5329 41.7272C82.0272 42.0322 81.4327 42.1804 80.7584 42.1804V42.1891ZM80.8117 35.549C80.2793 35.549 79.8091 35.6797 79.401 35.9324C78.9928 36.1851 78.6734 36.5511 78.4428 37.0217C78.2121 37.4922 78.1056 38.0151 78.1056 38.6076C78.1056 39.2002 78.2121 39.723 78.425 40.1936C78.638 40.6554 78.9485 41.0127 79.3477 41.2654C79.747 41.5181 80.2172 41.6488 80.7496 41.6488C81.5924 41.6488 82.2579 41.3787 82.737 40.8297C83.2161 40.2807 83.4556 39.54 83.4556 38.5902C83.4556 37.9715 83.3492 37.4399 83.1451 36.9781C82.9322 36.5162 82.6305 36.1677 82.2312 35.9237C81.832 35.6797 81.3529 35.5577 80.8028 35.5577L80.8117 35.549ZM90.2873 42.0671L86.2859 36.4814C86.1528 36.281 86.0641 36.1415 86.0197 36.0457H86.002C86.0108 36.1502 86.0197 36.3332 86.0197 36.5947V42.0671H85.4075V35.1133H86.0463L89.9856 40.638C90.0744 40.7687 90.172 40.9168 90.2696 41.0998H90.2962C90.2696 40.8035 90.2607 40.5595 90.2607 40.3504V35.1133H90.8817V42.0671H90.2873ZM92.5941 42.0671V35.1133H96.0099V35.6623H93.2063V38.2765H95.8059V38.8167H93.2063V41.5094H96.1696V42.0584H92.5941V42.0671ZM99.6476 39.4529V42.0671H99.0354V39.4703L96.8262 35.122H97.5271L99.1507 38.3898C99.1951 38.4856 99.2661 38.6512 99.3548 38.8777H99.3725C99.3992 38.808 99.4258 38.747 99.4524 38.6947C99.4702 38.6425 100.091 37.4486 101.307 35.122H101.963L99.6565 39.4616L99.6476 39.4529ZM108.582 42.1891C107.943 42.1891 107.367 42.0409 106.87 41.7447C106.364 41.4484 105.982 41.0301 105.707 40.4898C105.432 39.9496 105.29 39.3483 105.29 38.6686C105.29 37.9366 105.432 37.2918 105.707 36.7341C105.982 36.1764 106.382 35.7494 106.896 35.4531C107.411 35.1481 108.023 35 108.706 35C109.336 35 109.895 35.1481 110.392 35.4444C110.889 35.7407 111.261 36.1503 111.528 36.6818C111.794 37.2134 111.927 37.8233 111.927 38.4943C111.927 39.2263 111.794 39.8711 111.519 40.4288C111.244 40.9952 110.853 41.4309 110.356 41.7272C109.851 42.0322 109.256 42.1804 108.582 42.1804V42.1891ZM108.635 35.549C108.103 35.549 107.633 35.6797 107.225 35.9324C106.816 36.1851 106.497 36.5511 106.266 37.0217C106.036 37.4922 105.929 38.0151 105.929 38.6076C105.929 39.2002 106.036 39.723 106.249 40.1936C106.462 40.6554 106.772 41.0127 107.171 41.2654C107.571 41.5181 108.041 41.6488 108.573 41.6488C109.416 41.6488 110.081 41.3787 110.561 40.8297C111.04 40.2807 111.279 39.54 111.279 38.5902C111.279 37.9715 111.173 37.4399 110.969 36.9781C110.756 36.5162 110.454 36.1677 110.055 35.9237C109.656 35.6797 109.176 35.5577 108.626 35.5577L108.635 35.549ZM118.111 42.0671L114.109 36.4814C113.976 36.281 113.888 36.1415 113.843 36.0457H113.826C113.834 36.1502 113.843 36.3332 113.843 36.5947V42.0671H113.231V35.1133H113.87L117.809 40.638C117.898 40.7687 117.996 40.9168 118.093 41.0998H118.12C118.093 40.8035 118.084 40.5595 118.084 40.3504V35.1133H118.705V42.0671H118.111ZM120.418 42.0671V35.1133H121.03V41.5181H123.869V42.0671H120.409H120.418ZM125.581 35.1133V42.0671H124.969V35.1133H125.581ZM132.165 42.0671L128.163 36.4814C128.03 36.281 127.941 36.1415 127.897 36.0457H127.879C127.888 36.1502 127.897 36.3332 127.897 36.5947V42.0671H127.285V35.1133H127.924L131.863 40.638C131.952 40.7687 132.049 40.9168 132.147 41.0998H132.173C132.147 40.8035 132.138 40.5595 132.138 40.3504V35.1133H132.759V42.0671H132.165ZM134.471 42.0671V35.1133H137.887V35.6623H135.084V38.2765H137.683V38.8167H135.084V41.5094H138.047V42.0584H134.471V42.0671Z" fill="#6699FF"/>
<path fill-rule="evenodd" clip-rule="evenodd" d="M16.3252 8.45256C23.1835 8.45256 28.7464 13.925 28.7464 20.6522C28.7464 26.935 23.9199 32.1024 17.7093 32.7734C16.9551 32.8518 16.3784 33.4792 16.3784 34.2286V43.0385C16.3784 43.5962 15.9171 44.0493 15.3493 44.0493H9.96376C9.39593 44.0493 8.93457 43.5962 8.93457 43.0385V33.2788C8.93457 29.1135 12.2883 25.6889 16.5293 25.5233C19.1821 25.4188 21.3026 23.2751 21.3026 20.6435C21.3026 17.9508 19.0756 15.7636 16.3341 15.7636L16.1655 15.7723C15.1895 15.7985 14.2402 15.9118 13.3175 16.086C12.1996 16.2952 11.1526 16.0338 10.2743 15.3279C9.39593 14.6221 8.93457 13.6548 8.93457 12.5394V12.4436C8.93457 10.7008 10.1678 9.22811 11.9157 8.89698C13.2199 8.65298 14.5596 8.49613 15.9348 8.45256L16.3341 8.44385L16.3252 8.45256Z" fill="#000066"/>
<path fill-rule="evenodd" clip-rule="evenodd" d="M16.2629 16.7483H16.3251C18.5165 16.7483 20.2999 18.4998 20.2999 20.6522C20.2999 22.7697 18.5786 24.4951 16.4404 24.5561C11.7203 24.6868 7.94072 28.4861 7.94072 33.1394V43.0385C7.94072 43.5962 7.47936 44.0493 6.91153 44.0493H1.02919C0.46136 44.0493 0 43.5962 0 43.0385V33.1394C0 24.2772 7.18657 17.0271 16.2008 16.7483H16.2718H16.2629Z" fill="#000066"/>
<path fill-rule="evenodd" clip-rule="evenodd" d="M37.7872 0C39.3132 0 40.5554 1.21996 40.5554 2.71877C40.5554 4.21759 39.3132 5.43755 37.7872 5.43755C36.2612 5.43755 35.019 4.21759 35.019 2.71877C35.019 1.21996 36.2612 0 37.7872 0ZM38.3195 3.04119C38.6123 2.87563 38.8075 2.53578 38.8075 2.16108C38.8075 1.61209 38.3994 1.15896 37.9114 1.15896H37.0597V4.14787H37.5122V3.15448C37.5122 3.15448 37.734 3.15448 37.8404 3.15448L38.4881 4.14787H39.0382L38.3195 3.04119ZM37.9114 2.65778H37.5033V1.65566C37.5033 1.65566 37.8671 1.65566 37.9114 1.65566C38.1598 1.65566 38.3639 1.88223 38.3639 2.16108C38.3639 2.43121 38.1598 2.65778 37.9114 2.65778Z" fill="#000066"/>
<path fill-rule="evenodd" clip-rule="evenodd" d="M62.9924 28.2683V23.5627H60.5969C59.2749 23.5627 58.2013 24.6171 58.2013 25.9155C58.2013 27.2139 59.2749 28.2683 60.5969 28.2683H62.9924ZM47.2263 14.1167C50.5445 14.1167 53.2328 16.757 53.2328 20.0161C53.2328 22.456 51.7245 24.5561 49.5686 25.4536L53.2151 31.8236H49.0717L45.6914 25.9242H44.8308V31.8236H41.2197V25.9242V22.3776H47.2263C48.5483 22.3776 49.6218 21.3232 49.6218 20.0248C49.6218 18.7264 48.5483 17.672 47.2263 17.672H41.2197V14.1254H47.2263V14.1167ZM98.3219 20.0161V31.8149H94.7109V20.0161C94.7109 18.7177 93.6374 17.6633 92.3154 17.6633H89.9199V31.8149H86.3088V17.6633V14.1167H89.9199H92.3154C95.6336 14.1167 98.3219 16.757 98.3219 20.0161ZM84.9514 14.1167V31.8149H81.3403V14.1167H84.9514ZM79.9829 17.6633L72.3882 28.2683H73.9763H79.9829V31.8149H73.9763H67.9698V28.2683L75.5378 17.6633H67.9698V14.1167H78.0665H79.9829V17.6633ZM66.6123 23.5627V28.2683V29.4621V31.8149H60.6057C57.2875 31.8149 54.5992 29.1745 54.5992 25.9155C54.5992 22.6564 57.2875 20.0161 60.6057 20.0161H63.0013C63.0013 18.7177 61.9277 17.6633 60.6057 17.6633H56.8705V14.1167H60.6057C63.924 14.1167 66.6123 16.757 66.6123 20.0161V23.5627Z" fill="#000066"/>
<path fill-rule="evenodd" clip-rule="evenodd" d="M119.066 23.5715C117.744 23.5715 116.67 24.6259 116.67 25.9243C116.67 27.2227 117.744 28.2771 119.066 28.2771H121.461V23.5715H119.066ZM105.695 14.1255C109.013 14.1255 111.702 16.7658 111.702 20.0249C111.702 23.2839 109.013 25.9243 105.695 25.9243H103.3V31.8237H99.6885V25.9243V22.3777H105.695C107.017 22.3777 108.091 21.3233 108.091 20.0249C108.091 18.7265 107.017 17.6721 105.695 17.6721H99.6885V14.1255H105.695ZM126.43 28.2771H132.436C133.758 28.2771 134.832 27.2227 134.832 25.9243H132.436C129.118 25.9243 126.43 23.2839 126.43 20.0249V14.1255H130.041V20.0249C130.041 21.3233 131.114 22.3777 132.436 22.3777H134.832V14.1255H138.443V22.3777V25.9243C138.443 29.1833 135.754 31.8237 132.436 31.8237H126.43V28.2771ZM119.066 31.8237C115.747 31.8237 113.059 29.1833 113.059 25.9243C113.059 22.6652 115.747 20.0249 119.066 20.0249H121.461C121.461 18.7265 120.388 17.6721 119.066 17.6721H115.33V14.1255H119.066C122.384 14.1255 125.072 16.7658 125.072 20.0249V23.5715V28.2771V29.4709V31.8237H119.066Z" fill="#000066"/>
</svg>
