<svg width="275" height="257" viewBox="0 0 275 257" fill="none" xmlns="http://www.w3.org/2000/svg">
<path d="M267.864 224.288H7.13532C3.54019 224.288 0.598713 221.346 0.598713 217.751V19.5281C0.517005 8.74272 9.25972 0 20.0451 0H254.955C265.74 0 274.483 8.74272 274.483 19.5281V217.751C274.483 221.346 271.541 224.288 267.864 224.288Z" fill="url(#paint0_linear_563_243)"/>
<path d="M163 83.8849C162.945 83.5972 162.725 83.3094 162.449 83.1943C161.954 82.9641 161.458 83.1368 161.072 83.4821C161.072 82.7915 160.797 82.1009 160.136 81.8131C159.641 81.583 159.145 81.698 158.759 82.0433C158.429 79.3385 157.383 75.9432 154.299 76.0007C151.27 76.0583 149.562 78.8782 148.351 81.4103C148.075 81.065 147.635 80.8924 147.084 80.9499C146.258 81.065 145.817 81.8707 145.542 82.6188C145.267 82.4462 144.936 82.5037 144.661 82.7339C144.33 83.0217 144.165 83.5396 144 84H163V83.8849Z" fill="url(#paint1_linear_563_243)"/>
<path d="M249.701 62.7952C249.614 62.3648 249.27 61.9343 248.84 61.7622C248.065 61.4178 247.29 61.6761 246.687 62.1926C246.687 61.1595 246.257 60.1265 245.224 59.696C244.449 59.3517 243.674 59.5239 243.072 60.0404C242.555 55.9942 240.92 50.915 236.099 51.0011C231.364 51.0872 228.695 55.3055 226.801 59.0934C226.371 58.5769 225.682 58.3186 224.821 58.4047C223.53 58.5769 222.841 59.7821 222.41 60.9013C221.98 60.643 221.464 60.7291 221.033 61.0734C220.517 61.5039 220.258 62.2787 220 62.9674H249.701V62.7952Z" fill="url(#paint2_linear_563_243)"/>
<path d="M62.0643 73.5632C61.8921 72.9605 61.5477 72.444 60.859 72.0997C59.826 71.5831 58.7068 72.0136 57.8459 72.6162C57.7598 71.1527 57.2433 69.6892 55.7798 69.1726C54.6606 68.7422 53.5415 68.9144 52.7667 69.6031C51.9919 64.0934 49.8397 56.9481 43.2109 57.1202C36.6681 57.2063 33.0524 63.0604 30.2976 68.2257C29.6949 67.4509 28.6619 67.1065 27.6288 67.2787C25.9071 67.537 24.9601 69.1726 24.2714 70.7222C23.6687 70.3779 22.98 70.464 22.3774 70.8944C21.6026 71.497 21.2583 72.6162 21 73.5632H62.0643Z" fill="url(#paint3_linear_563_243)"/>
<path d="M230.932 14.7891C230.932 16.9135 229.217 18.6294 227.092 18.6294C224.968 18.6294 223.252 16.9135 223.252 14.7891C223.252 12.6647 224.968 10.9489 227.092 10.9489C229.217 10.9489 230.932 12.6647 230.932 14.7891Z" fill="#ACD2E5"/>
<path d="M244.66 14.7891C244.66 16.9135 242.944 18.6294 240.819 18.6294C238.695 18.6294 236.979 16.9135 236.979 14.7891C236.979 12.6647 238.695 10.9489 240.819 10.9489C242.862 10.9489 244.66 12.6647 244.66 14.7891Z" fill="#50A0DD"/>
<path d="M257.896 14.7891C257.896 16.9135 256.18 18.6294 254.056 18.6294C251.931 18.6294 250.215 16.9135 250.215 14.7891C250.215 12.6647 251.931 10.9489 254.056 10.9489C256.18 10.9489 257.896 12.6647 257.896 14.7891Z" fill="url(#paint4_linear_563_243)"/>
<mask id="mask0_563_243" style="mask-type:luminance" maskUnits="userSpaceOnUse" x="3" y="90" width="272" height="167">
<path d="M274 90.6138H3.80518V256.562H274V90.6138Z" fill="white"/>
</mask>
<g mask="url(#mask0_563_243)">
<path d="M14.9575 255.5H121.217V120.437H20.2285C17.3256 120.437 14.9575 122.97 14.9575 126.075V255.5Z" fill="url(#paint5_linear_563_243)"/>
<path d="M32.146 255.5H134.281V127.791C134.281 123.787 131.225 120.519 127.482 120.519H32.146V255.5Z" fill="url(#paint6_linear_563_243)"/>
<path opacity="0.37" d="M86.4595 159.493L74.6952 160.882C73.0146 161.046 71.6396 159.657 71.7924 157.859L74.3897 120.274C79.3551 120.11 84.2441 119.947 88.904 119.865V156.634C88.8276 158.104 87.7581 159.33 86.4595 159.493Z" fill="white"/>
<path d="M81.5713 153.038C81.5713 153.692 81.0365 154.264 80.4254 154.264H80.349C79.6615 154.264 79.2031 153.61 79.2031 152.957L80.9601 120.192C81.724 120.192 82.5643 120.192 83.3282 120.11L81.5713 153.038Z" fill="white"/>
<path d="M58.7302 130.814C59.9524 130.732 61.4802 131.549 61.633 132.775C62.0914 136.697 62.015 144.132 62.0914 147.074C62.0914 147.646 61.633 148.871 60.9455 148.953L40.2435 149.28C39.556 149.28 39.0977 148.054 39.0977 147.401L39.8616 133.592C39.938 132.366 41.0074 131.386 42.2297 131.386L58.7302 130.814Z" fill="white"/>
<path d="M51.0143 146.175C51.2435 146.175 51.3962 146.012 51.3962 145.766L52.0074 135.471C52.0074 135.226 51.8546 135.063 51.6254 135.063C51.3962 135.063 51.2435 135.226 51.2435 135.471L50.6323 145.766C50.6323 145.93 50.7851 146.175 51.0143 146.175Z" fill="url(#paint7_linear_563_243)"/>
<path d="M49.7924 146.175C50.0216 146.175 50.1744 146.012 50.1744 145.766L50.48 135.308C50.48 135.063 50.3272 134.899 50.098 134.899C49.8688 134.899 49.7161 135.063 49.7161 135.308L49.4105 145.766C49.3341 145.93 49.5633 146.175 49.7924 146.175Z" fill="url(#paint8_linear_563_243)"/>
<path d="M48.0353 146.175C47.8061 146.175 47.6533 145.93 47.6533 145.766C47.8061 142.253 48.1117 135.553 48.1117 135.308C48.1117 135.063 48.2644 134.899 48.4936 134.899C48.7228 134.899 48.8756 135.063 48.8756 135.308C48.8756 135.471 48.4936 144.132 48.4172 145.848C48.4936 146.012 48.2644 146.175 48.0353 146.175Z" fill="url(#paint9_linear_563_243)"/>
<path d="M45.4382 146.583C45.8965 146.583 46.2021 146.257 46.2021 145.766C46.5077 135.635 46.5077 135.39 46.4313 135.226C46.3549 134.736 45.8965 134.491 45.4382 134.654C45.0562 134.736 44.827 135.144 44.827 135.553C44.827 136.125 44.6743 142.09 44.5215 145.685C44.6743 146.175 44.9798 146.583 45.4382 146.583Z" fill="url(#paint10_linear_563_243)"/>
<path d="M43.7574 146.175C43.9866 146.175 44.1394 146.012 44.1394 145.766V135.471C44.1394 135.226 43.9866 135.063 43.7574 135.063C43.5283 135.063 43.3755 135.226 43.3755 135.471V145.766C43.3755 146.012 43.5283 146.175 43.7574 146.175Z" fill="url(#paint11_linear_563_243)"/>
<path d="M42.3823 146.175C42.6115 146.175 42.7642 146.012 42.7642 145.766C42.8406 142.171 42.9934 136.37 43.1462 135.635C43.2226 135.471 43.2226 135.308 43.1462 135.226C42.9934 135.063 42.7642 134.981 42.6115 135.144C42.3823 135.308 42.2295 135.471 42.0003 145.766C41.9239 145.93 42.1531 146.175 42.3823 146.175Z" fill="url(#paint12_linear_563_243)"/>
<path d="M58.5773 146.583C59.0357 146.583 59.3412 146.257 59.3412 145.766C59.6468 135.635 59.6468 135.39 59.5704 135.226C59.494 134.736 59.0357 134.491 58.5773 134.654C58.1954 134.736 57.9662 135.144 57.9662 135.553C57.9662 136.125 57.8134 142.09 57.6606 145.685C57.8134 146.175 58.119 146.583 58.5773 146.583Z" fill="url(#paint13_linear_563_243)"/>
<path d="M56.8966 146.175C57.1258 146.175 57.2786 146.012 57.2786 145.766V135.471C57.2786 135.226 57.1258 135.063 56.8966 135.063C56.6674 135.063 56.5146 135.226 56.5146 135.471V145.766C56.5146 146.012 56.6674 146.175 56.8966 146.175Z" fill="url(#paint14_linear_563_243)"/>
<path d="M55.5216 146.175C55.7508 146.175 55.9036 146.012 55.9036 145.766C55.98 142.171 56.1327 136.37 56.2855 135.635C56.3619 135.471 56.3619 135.308 56.2855 135.226C56.1327 135.063 55.9036 134.981 55.7508 135.144C55.5216 135.308 55.3688 135.471 55.1396 145.766C55.1396 145.93 55.2924 146.175 55.5216 146.175Z" fill="url(#paint15_linear_563_243)"/>
<path d="M53.1533 147.074C53.5352 147.074 53.9172 146.747 53.9172 146.257L54.4519 135.471C54.4519 134.981 54.1464 134.573 53.688 134.573C53.3061 134.573 52.8477 134.899 52.8477 135.39L52.313 146.175C52.313 146.665 52.6949 147.074 53.1533 147.074Z" fill="url(#paint16_linear_563_243)"/>
</g>
<mask id="mask1_563_243" style="mask-type:luminance" maskUnits="userSpaceOnUse" x="1" y="90" width="271" height="167">
<path d="M271.195 90.6138H1V256.562H271.195V90.6138Z" fill="white"/>
</mask>
<g mask="url(#mask1_563_243)">
<path d="M263.643 257H8.47949C8.47949 252.596 11.4065 249 14.9921 249H258.081C261.155 249 263.716 252.056 263.716 255.921V257H263.643Z" fill="url(#paint17_linear_563_243)"/>
</g>
<mask id="mask2_563_243" style="mask-type:luminance" maskUnits="userSpaceOnUse" x="8" y="88" width="256" height="166">
<path d="M263.716 88H8.47949V254H263.716V88Z" fill="white"/>
</mask>
<g mask="url(#mask2_563_243)">
<path d="M196.215 162.376H108.366V246.617H196.215V162.376Z" fill="url(#paint18_linear_563_243)"/>
<path d="M109.894 253.48H69.4829L69.5593 169.158L108.366 162.376L109.894 253.48Z" fill="url(#paint19_linear_563_243)"/>
<path d="M194.077 247.107L165.354 253.48V169.158L196.216 162.295V244.247C196.216 245.636 195.375 246.78 194.077 247.107Z" fill="url(#paint20_linear_563_243)"/>
<path d="M165.429 253.48H72.2323C70.7809 253.48 69.5586 252.173 69.5586 250.621V169.24H165.429V253.48Z" fill="url(#paint21_linear_563_243)"/>
<path d="M69.5592 169.648L59.5519 192.2C59.17 193.017 59.7047 193.997 60.6214 193.997L149.159 196.04L165.506 169.567H69.5592V169.648Z" fill="url(#paint22_linear_563_243)"/>
<path d="M93.0109 226.844C94.2332 226.762 95.761 227.579 95.9138 228.805C96.3721 232.727 96.2957 240.162 96.3721 243.103C96.3721 243.675 95.9138 244.901 95.2263 244.983L74.5243 245.31C73.8368 245.31 73.3784 244.084 73.3784 243.43L74.1423 229.622C74.2187 228.396 75.2882 227.416 76.5105 227.416L93.0109 226.844Z" fill="white"/>
<path d="M85.2955 242.205C85.5247 242.205 85.6775 242.041 85.6775 241.796L86.2886 231.501C86.2886 231.256 86.1358 231.092 85.9067 231.092C85.6775 231.092 85.5247 231.256 85.5247 231.501L84.9136 241.796C84.9136 241.96 85.0664 242.205 85.2955 242.205Z" fill="url(#paint23_linear_563_243)"/>
<path d="M84.0737 242.205C84.3029 242.205 84.4557 242.041 84.4557 241.796L84.7612 231.337C84.7612 231.092 84.6084 230.929 84.3793 230.929C84.1501 230.929 83.9973 231.092 83.9973 231.337L83.6917 241.796C83.6154 241.96 83.8445 242.205 84.0737 242.205Z" fill="url(#paint24_linear_563_243)"/>
<path d="M82.3165 242.205C82.0874 242.205 81.9346 241.96 81.9346 241.796C82.0874 238.283 82.3929 231.583 82.3929 231.337C82.3929 231.092 82.5457 230.929 82.7749 230.929C83.004 230.929 83.1568 231.092 83.1568 231.337C83.1568 231.501 82.7749 240.162 82.6985 241.878C82.7749 242.041 82.5457 242.205 82.3165 242.205Z" fill="url(#paint25_linear_563_243)"/>
<path d="M79.7194 242.613C80.1778 242.613 80.4833 242.286 80.4833 241.796C80.7889 231.664 80.7889 231.419 80.7125 231.256C80.6361 230.766 80.1778 230.52 79.7194 230.684C79.3375 230.766 79.1083 231.174 79.1083 231.583C79.1083 232.155 78.9555 238.119 78.8027 241.714C78.9555 242.205 79.2611 242.613 79.7194 242.613Z" fill="url(#paint26_linear_563_243)"/>
<path d="M78.0382 242.205C78.2674 242.205 78.4202 242.041 78.4202 241.796V231.501C78.4202 231.256 78.2674 231.092 78.0382 231.092C77.809 231.092 77.6562 231.256 77.6562 231.501V241.796C77.6562 242.041 77.809 242.205 78.0382 242.205Z" fill="url(#paint27_linear_563_243)"/>
<path d="M76.6635 242.205C76.8927 242.205 77.0455 242.041 77.0455 241.796C77.1219 238.201 77.2747 232.4 77.4275 231.664C77.5038 231.501 77.5038 231.338 77.4275 231.256C77.2747 231.092 77.0455 231.011 76.8927 231.174C76.6635 231.338 76.5108 231.501 76.2816 241.796C76.2052 241.96 76.4344 242.205 76.6635 242.205Z" fill="url(#paint28_linear_563_243)"/>
<path d="M92.9348 242.613C93.3931 242.613 93.6987 242.286 93.6987 241.796C94.0042 231.664 94.0042 231.419 93.9278 231.256C93.8515 230.766 93.3931 230.52 92.9348 230.684C92.5528 230.766 92.3236 231.174 92.3236 231.583C92.3236 232.155 92.1708 238.119 92.0181 241.714C92.0945 242.205 92.4 242.613 92.9348 242.613C92.8584 242.613 92.8584 242.613 92.9348 242.613Z" fill="url(#paint29_linear_563_243)"/>
<path d="M91.1779 242.205C91.407 242.205 91.5598 242.041 91.5598 241.796V231.501C91.5598 231.256 91.407 231.092 91.1779 231.092C90.9487 231.092 90.7959 231.256 90.7959 231.501V241.796C90.7959 242.041 90.9487 242.205 91.1779 242.205Z" fill="url(#paint30_linear_563_243)"/>
<path d="M89.8024 242.205C90.0315 242.205 90.1843 242.041 90.1843 241.796C90.2607 238.201 90.4135 232.4 90.5663 231.664C90.6427 231.501 90.6427 231.338 90.5663 231.256C90.4135 231.092 90.1843 231.011 90.0315 231.174C89.8024 231.338 89.6496 231.501 89.4204 241.796C89.4204 241.96 89.5732 242.205 89.8024 242.205Z" fill="url(#paint31_linear_563_243)"/>
<path d="M87.4345 243.103C87.8165 243.103 88.1984 242.777 88.1984 242.286L88.7332 231.501C88.7332 231.011 88.4276 230.602 87.9693 230.602C87.5873 230.602 87.129 230.929 87.129 231.419L86.5942 242.205C86.5942 242.695 86.9762 243.103 87.4345 243.103Z" fill="url(#paint32_linear_563_243)"/>
</g>
<mask id="mask3_563_243" style="mask-type:luminance" maskUnits="userSpaceOnUse" x="8" y="95" width="256" height="157">
<path d="M263.716 95H8.47949V252H263.716V95Z" fill="white"/>
</mask>
<g mask="url(#mask3_563_243)">
<path d="M226.507 255.255C222.916 255.091 218.409 254.683 215.812 254.438C218.409 251.088 226.507 248.8 226.507 248.8H228.798C230.403 251.251 230.632 253.539 230.555 254.846C229.868 255.091 228.646 255.336 226.507 255.255Z" fill="url(#paint33_linear_563_243)"/>
<path d="M229.18 244.796L228.951 249.372C228.951 249.862 228.569 250.271 228.11 250.352C227.652 250.434 227.041 250.434 226.354 250.189C225.972 250.025 225.666 249.699 225.59 249.208L224.826 244.796H229.18Z" fill="url(#paint34_linear_563_243)"/>
<path d="M253.778 244.715H255.688C258.59 244.633 260.424 251.169 260.959 253.702C260.729 254.356 260.195 255.01 259.125 255.173C257.215 255.418 256.069 255.418 255.153 254.928C253.625 252.722 252.785 249.535 252.479 247.656C252.021 245.532 253.778 244.715 253.778 244.715Z" fill="url(#paint35_linear_563_243)"/>
<path d="M255.382 240.547L256.451 245.041C256.604 245.613 256.298 246.185 255.84 246.43C255.229 246.757 254.389 247.084 253.625 247.002C253.243 246.921 252.937 246.675 252.861 246.349L251.333 241.61L255.382 240.547Z" fill="url(#paint36_linear_563_243)"/>
<path d="M256.681 241.773C255.382 242.999 251.104 243.162 251.104 243.162C235.749 203.697 229.485 198.141 229.485 198.141C231.701 213.012 229.867 245.94 229.867 245.94C227.346 247.166 224.062 245.94 224.062 245.94C223.832 221.591 220.318 200.347 216.193 183.597C226.583 183.352 232.083 179.512 233.916 178.041C242.548 192.994 256.681 241.773 256.681 241.773Z" fill="url(#paint37_linear_563_243)"/>
<path d="M231.243 132.693C233.229 143.152 232.541 161.945 232.007 170.524C231.854 172.893 233.458 176.243 234.68 178.531C234.909 178.858 234.757 179.348 234.375 179.512C232.236 180.656 225.055 184.332 216.728 184.741C216.194 184.741 215.659 184.332 215.506 183.761C209.318 159.085 202.138 143.234 202.138 143.234C210.159 129.752 231.243 132.693 231.243 132.693Z" fill="url(#paint38_linear_563_243)"/>
<path d="M228.416 197.242C228.492 197.242 228.569 197.242 228.645 197.161C228.874 196.997 228.951 196.67 228.798 196.425C228.721 196.262 226.735 192.83 222.687 190.787C222.457 190.624 222.152 190.787 221.999 191.032C221.846 191.278 221.999 191.604 222.228 191.768C225.971 193.729 227.881 196.997 227.881 196.997C228.034 197.161 228.263 197.242 228.416 197.242Z" fill="url(#paint39_linear_563_243)"/>
<path d="M243.542 162.843C242.931 167.746 241.021 173.057 237.278 178.695L235.826 177.469C235.826 177.469 237.43 170.36 236.514 162.271C238.882 161.781 241.632 162.271 243.542 162.843Z" fill="url(#paint40_linear_563_243)"/>
<path d="M229.027 145.685L231.243 132.775C231.243 132.775 245.91 144.786 243.542 162.843C241.632 162.353 238.882 161.863 236.59 162.271C235.979 156.47 233.916 150.179 229.027 145.685Z" fill="#6699FF"/>
<path d="M202.214 143.315L207.867 156.388C206.951 164.232 202.978 167.664 198.7 168.971C198.471 165.376 197.554 162.516 196.791 160.474C202.291 154.427 202.214 143.315 202.214 143.315Z" fill="#6699FF"/>
<path d="M196.867 160.474C197.631 162.516 198.471 165.376 198.777 168.971C187.394 173.71 184.415 164.559 184.415 164.559L186.554 164.151C191.214 164.641 194.499 163.007 196.867 160.474Z" fill="url(#paint41_linear_563_243)"/>
<path d="M207.409 127.219L210.159 138.004C210.464 139.23 211.687 139.884 212.756 139.393C213.902 138.903 215.43 138.168 216.728 137.432C218.103 136.615 218.485 134.736 217.645 133.347L211.992 124.277L207.409 127.219Z" fill="url(#paint42_linear_563_243)"/>
<path d="M179.144 157.287L249.195 184.578C252.098 185.721 253.549 189.317 252.25 192.34L252.021 192.83C250.875 195.526 247.896 196.67 245.375 195.445L177.387 161.781L179.144 157.287Z" fill="url(#paint43_linear_563_243)"/>
<path opacity="0.23" d="M146.984 177.224C166.095 177.224 181.589 160.982 181.589 140.946C181.589 120.91 166.095 104.667 146.984 104.667C127.872 104.667 112.378 120.91 112.378 140.946C112.378 160.982 127.872 177.224 146.984 177.224Z" fill="white"/>
<path d="M108.482 140.946C108.482 163.252 125.67 181.309 146.984 181.309C168.22 181.309 185.485 163.252 185.485 140.946C185.485 118.639 168.297 100.582 146.984 100.582C125.747 100.5 108.482 118.639 108.482 140.946ZM114.135 140.946C114.135 121.908 128.802 106.465 146.984 106.465C165.088 106.465 179.832 121.908 179.832 140.946C179.832 159.984 165.165 175.426 146.984 175.426C128.879 175.426 114.135 159.984 114.135 140.946Z" fill="url(#paint44_linear_563_243)"/>
<path d="M182.506 145.93C182.353 145.93 182.276 145.766 182.276 145.603C182.353 144.622 182.506 143.724 182.506 142.743C182.506 142.58 182.582 142.498 182.811 142.498C182.964 142.498 183.04 142.661 183.04 142.825C182.964 143.805 182.888 144.786 182.811 145.685C182.735 145.848 182.658 145.93 182.506 145.93ZM181.971 134.409C181.512 131.876 180.825 129.343 179.908 126.892C174.408 112.675 161.498 103.523 146.907 103.523C140.109 103.523 133.539 105.566 127.81 109.325C127.657 109.406 127.504 109.406 127.428 109.243C127.351 109.08 127.351 108.916 127.504 108.834C133.31 104.994 139.956 102.952 146.907 102.952C161.651 102.952 174.79 112.266 180.367 126.647C181.283 129.098 181.971 131.631 182.429 134.246C182.429 134.409 182.353 134.572 182.2 134.572C182.2 134.572 182.2 134.572 182.124 134.572C182.124 134.654 182.047 134.572 181.971 134.409Z" fill="white"/>
<path d="M201.45 119.048C201.45 119.211 203.742 131.304 203.742 131.304L210.159 129.752L209.548 117.986C209.548 117.986 201.909 115.943 201.45 119.048Z" fill="url(#paint45_linear_563_243)"/>
<path d="M208.096 120.6L208.86 126.81C208.86 126.892 208.86 126.974 208.86 127.055C208.784 127.546 208.478 129.18 206.874 128.69C205.499 128.281 204.2 127.872 203.284 128.199C202.902 128.363 202.673 128.771 202.749 129.18C202.978 130.242 203.436 132.775 204.2 134.818C204.353 135.226 204.811 135.471 205.193 135.308C206.416 134.899 208.937 134.082 210.846 132.857C211.076 132.693 211.228 132.366 211.228 132.04C211.152 130.487 210.999 125.748 211.152 124.441C211.305 123.215 212.756 122.48 213.367 122.153C213.596 122.071 213.749 121.908 213.826 121.663C214.131 120.927 214.513 119.13 212.374 118.394C211.916 118.231 211.687 117.741 211.839 117.25C212.145 116.352 212.298 114.881 210.617 114.146C208.937 113.328 207.714 114.309 207.027 115.044C206.721 115.371 206.339 115.371 205.957 115.208C205.805 115.044 205.499 115.044 205.193 115.208C204.811 115.453 204.277 115.289 204.048 114.799C203.666 113.9 202.825 113.002 201.221 113.328C198.318 113.819 198.013 117.25 198.777 119.293C199.54 121.254 202.596 120.519 204.2 119.538C205.346 118.803 206.874 119.538 207.562 120.029C207.943 120.11 208.096 120.355 208.096 120.6Z" fill="url(#paint46_linear_563_243)"/>
<path d="M211.458 126.729C211.458 126.729 210.312 123.215 211.458 122.316C212.68 121.418 214.437 121.908 214.055 124.441C213.596 127.627 211.458 126.729 211.458 126.729Z" fill="url(#paint47_linear_563_243)"/>
<path d="M236.514 177.224L229.868 176.652L226.965 179.512C226.965 179.512 227.652 180.492 229.791 179.92C231.93 179.348 234.833 179.185 234.833 179.185C234.833 179.185 237.736 180.574 237.812 177.959L236.514 177.224Z" fill="url(#paint48_linear_563_243)"/>
<path d="M185.179 166.193C184.644 166.684 182.658 165.703 181.436 164.968C180.825 164.641 180.596 163.906 180.748 163.252C181.054 162.271 181.512 161.046 182.124 160.882C183.193 160.556 187.547 164.232 185.179 166.193Z" fill="url(#paint49_linear_563_243)"/>
<path d="M247.819 194.464H247.896C250.646 193.484 251.257 191.686 251.333 190.46C251.41 188.581 250.34 186.865 248.583 186.13L240.18 182.617C240.027 182.535 239.875 182.617 239.875 182.78C239.798 182.943 239.875 183.107 240.027 183.107L248.43 186.62C249.958 187.274 250.875 188.745 250.799 190.379C250.722 192.013 249.729 193.157 247.743 193.892C247.59 193.974 247.514 194.137 247.59 194.219C247.59 194.382 247.667 194.464 247.819 194.464Z" fill="white"/>
<path d="M237.507 182.045C237.583 182.045 237.736 181.963 237.736 181.881C237.812 181.718 237.736 181.554 237.583 181.554L236.514 181.064C236.361 180.982 236.208 181.064 236.208 181.228C236.132 181.391 236.208 181.554 236.361 181.554L237.43 182.045H237.507Z" fill="white"/>
</g>
<defs>
<linearGradient id="paint0_linear_563_243" x1="137.496" y1="0" x2="137.496" y2="224.282" gradientUnits="userSpaceOnUse">
<stop stop-color="#000066"/>
<stop offset="1" stop-color="#6699FF"/>
</linearGradient>
<linearGradient id="paint1_linear_563_243" x1="143.956" y1="79.9363" x2="163.002" y2="79.9363" gradientUnits="userSpaceOnUse">
<stop stop-color="white"/>
<stop offset="1" stop-color="white" stop-opacity="0.1"/>
</linearGradient>
<linearGradient id="paint2_linear_563_243" x1="219.931" y1="56.8883" x2="249.703" y2="56.8883" gradientUnits="userSpaceOnUse">
<stop stop-color="white"/>
<stop offset="1" stop-color="white" stop-opacity="0.1"/>
</linearGradient>
<linearGradient id="paint3_linear_563_243" x1="20.9135" y1="65.3462" x2="62.0608" y2="65.3462" gradientUnits="userSpaceOnUse">
<stop stop-color="white"/>
<stop offset="1" stop-color="white" stop-opacity="0.1"/>
</linearGradient>
<linearGradient id="paint4_linear_563_243" x1="257.763" y1="19.9092" x2="252.502" y2="12.6358" gradientUnits="userSpaceOnUse">
<stop stop-color="#FE5D85"/>
<stop offset="1" stop-color="#FEB282"/>
</linearGradient>
<linearGradient id="paint5_linear_563_243" x1="-34.2402" y1="186.444" x2="151.626" y2="188.83" gradientUnits="userSpaceOnUse">
<stop stop-color="#FDF53F"/>
<stop offset="1" stop-color="#D93C65"/>
</linearGradient>
<linearGradient id="paint6_linear_563_243" x1="-157.653" y1="514.884" x2="319.249" y2="-50.798" gradientUnits="userSpaceOnUse">
<stop stop-color="#FDF53F"/>
<stop offset="1" stop-color="#D93C65"/>
</linearGradient>
<linearGradient id="paint7_linear_563_243" x1="46.5498" y1="133.183" x2="74.1625" y2="170.696" gradientUnits="userSpaceOnUse">
<stop stop-color="#2B3582"/>
<stop offset="1" stop-color="#150E42"/>
</linearGradient>
<linearGradient id="paint8_linear_563_243" x1="45.6422" y1="133.851" x2="73.2548" y2="171.365" gradientUnits="userSpaceOnUse">
<stop stop-color="#2B3582"/>
<stop offset="1" stop-color="#150E42"/>
</linearGradient>
<linearGradient id="paint9_linear_563_243" x1="44.5464" y1="134.657" x2="72.1591" y2="172.171" gradientUnits="userSpaceOnUse">
<stop stop-color="#2B3582"/>
<stop offset="1" stop-color="#150E42"/>
</linearGradient>
<linearGradient id="paint10_linear_563_243" x1="42.6515" y1="136.052" x2="70.2641" y2="173.566" gradientUnits="userSpaceOnUse">
<stop stop-color="#2B3582"/>
<stop offset="1" stop-color="#150E42"/>
</linearGradient>
<linearGradient id="paint11_linear_563_243" x1="41.4018" y1="136.972" x2="69.0144" y2="174.486" gradientUnits="userSpaceOnUse">
<stop stop-color="#2B3582"/>
<stop offset="1" stop-color="#150E42"/>
</linearGradient>
<linearGradient id="paint12_linear_563_243" x1="40.6259" y1="137.543" x2="68.2385" y2="175.057" gradientUnits="userSpaceOnUse">
<stop stop-color="#2B3582"/>
<stop offset="1" stop-color="#150E42"/>
</linearGradient>
<linearGradient id="paint13_linear_563_243" x1="55.8215" y1="136.053" x2="83.4341" y2="173.566" gradientUnits="userSpaceOnUse">
<stop stop-color="#2B3582"/>
<stop offset="1" stop-color="#150E42"/>
</linearGradient>
<linearGradient id="paint14_linear_563_243" x1="54.5717" y1="136.972" x2="82.1844" y2="174.486" gradientUnits="userSpaceOnUse">
<stop stop-color="#2B3582"/>
<stop offset="1" stop-color="#150E42"/>
</linearGradient>
<linearGradient id="paint15_linear_563_243" x1="53.796" y1="137.543" x2="81.4086" y2="175.057" gradientUnits="userSpaceOnUse">
<stop stop-color="#2B3582"/>
<stop offset="1" stop-color="#150E42"/>
</linearGradient>
<linearGradient id="paint16_linear_563_243" x1="47.8492" y1="132.226" x2="75.4618" y2="169.74" gradientUnits="userSpaceOnUse">
<stop stop-color="#2B3582"/>
<stop offset="1" stop-color="#150E42"/>
</linearGradient>
<linearGradient id="paint17_linear_563_243" x1="133.879" y1="174.163" x2="138.567" y2="292.49" gradientUnits="userSpaceOnUse">
<stop stop-color="#53D8FF"/>
<stop offset="1" stop-color="#3840F7"/>
</linearGradient>
<linearGradient id="paint18_linear_563_243" x1="153.977" y1="109.452" x2="151.298" y2="243.026" gradientUnits="userSpaceOnUse">
<stop stop-color="#FDF53F"/>
<stop offset="1" stop-color="#D93C65"/>
</linearGradient>
<linearGradient id="paint19_linear_563_243" x1="46.1139" y1="123.092" x2="107.614" y2="229.496" gradientUnits="userSpaceOnUse">
<stop stop-color="#FDF53F"/>
<stop offset="1" stop-color="#D93C65"/>
</linearGradient>
<linearGradient id="paint20_linear_563_243" x1="162.496" y1="309.411" x2="202.618" y2="113.044" gradientUnits="userSpaceOnUse">
<stop stop-color="#FDF53F"/>
<stop offset="1" stop-color="#D93C65"/>
</linearGradient>
<linearGradient id="paint21_linear_563_243" x1="117.686" y1="288.189" x2="116.956" y2="60.2641" gradientUnits="userSpaceOnUse">
<stop stop-color="#FDF53F"/>
<stop offset="1" stop-color="#D93C65"/>
</linearGradient>
<linearGradient id="paint22_linear_563_243" x1="98.3772" y1="193.743" x2="217.717" y2="89.6909" gradientUnits="userSpaceOnUse">
<stop stop-color="#FDF53F"/>
<stop offset="1" stop-color="#D93C65"/>
</linearGradient>
<linearGradient id="paint23_linear_563_243" x1="80.8335" y1="229.213" x2="108.446" y2="266.727" gradientUnits="userSpaceOnUse">
<stop stop-color="#2B3582"/>
<stop offset="1" stop-color="#150E42"/>
</linearGradient>
<linearGradient id="paint24_linear_563_243" x1="79.9258" y1="229.881" x2="107.539" y2="267.395" gradientUnits="userSpaceOnUse">
<stop stop-color="#2B3582"/>
<stop offset="1" stop-color="#150E42"/>
</linearGradient>
<linearGradient id="paint25_linear_563_243" x1="78.83" y1="230.688" x2="106.443" y2="268.201" gradientUnits="userSpaceOnUse">
<stop stop-color="#2B3582"/>
<stop offset="1" stop-color="#150E42"/>
</linearGradient>
<linearGradient id="paint26_linear_563_243" x1="76.9352" y1="232.083" x2="104.548" y2="269.596" gradientUnits="userSpaceOnUse">
<stop stop-color="#2B3582"/>
<stop offset="1" stop-color="#150E42"/>
</linearGradient>
<linearGradient id="paint27_linear_563_243" x1="75.6849" y1="233.002" x2="103.298" y2="270.516" gradientUnits="userSpaceOnUse">
<stop stop-color="#2B3582"/>
<stop offset="1" stop-color="#150E42"/>
</linearGradient>
<linearGradient id="paint28_linear_563_243" x1="74.9095" y1="233.573" x2="102.522" y2="271.087" gradientUnits="userSpaceOnUse">
<stop stop-color="#2B3582"/>
<stop offset="1" stop-color="#150E42"/>
</linearGradient>
<linearGradient id="paint29_linear_563_243" x1="90.105" y1="232.083" x2="117.718" y2="269.596" gradientUnits="userSpaceOnUse">
<stop stop-color="#2B3582"/>
<stop offset="1" stop-color="#150E42"/>
</linearGradient>
<linearGradient id="paint30_linear_563_243" x1="88.8554" y1="233.003" x2="116.468" y2="270.516" gradientUnits="userSpaceOnUse">
<stop stop-color="#2B3582"/>
<stop offset="1" stop-color="#150E42"/>
</linearGradient>
<linearGradient id="paint31_linear_563_243" x1="88.0792" y1="233.574" x2="115.692" y2="271.087" gradientUnits="userSpaceOnUse">
<stop stop-color="#2B3582"/>
<stop offset="1" stop-color="#150E42"/>
</linearGradient>
<linearGradient id="paint32_linear_563_243" x1="82.1329" y1="228.256" x2="109.745" y2="265.77" gradientUnits="userSpaceOnUse">
<stop stop-color="#2B3582"/>
<stop offset="1" stop-color="#150E42"/>
</linearGradient>
<linearGradient id="paint33_linear_563_243" x1="230.612" y1="252.024" x2="215.8" y2="252.024" gradientUnits="userSpaceOnUse">
<stop stop-color="#2B3582"/>
<stop offset="1" stop-color="#150E42"/>
</linearGradient>
<linearGradient id="paint34_linear_563_243" x1="229.204" y1="247.563" x2="224.911" y2="247.563" gradientUnits="userSpaceOnUse">
<stop stop-color="#F9B776"/>
<stop offset="1" stop-color="#F47960"/>
</linearGradient>
<linearGradient id="paint35_linear_563_243" x1="260.953" y1="250.057" x2="252.38" y2="250.057" gradientUnits="userSpaceOnUse">
<stop stop-color="#2B3582"/>
<stop offset="1" stop-color="#150E42"/>
</linearGradient>
<linearGradient id="paint36_linear_563_243" x1="256.496" y1="243.735" x2="251.366" y2="243.735" gradientUnits="userSpaceOnUse">
<stop stop-color="#F9B776"/>
<stop offset="1" stop-color="#F47960"/>
</linearGradient>
<linearGradient id="paint37_linear_563_243" x1="244.237" y1="100.76" x2="235.266" y2="212.934" gradientUnits="userSpaceOnUse">
<stop stop-color="#6699FF"/>
<stop offset="1" stop-color="#000066"/>
</linearGradient>
<linearGradient id="paint38_linear_563_243" x1="191.974" y1="129.177" x2="316.338" y2="230.304" gradientUnits="userSpaceOnUse">
<stop stop-color="#6699FF"/>
<stop offset="0.28125" stop-color="#000066"/>
</linearGradient>
<linearGradient id="paint39_linear_563_243" x1="239.207" y1="223.412" x2="236.473" y2="218.3" gradientUnits="userSpaceOnUse">
<stop stop-color="#2B3582"/>
<stop offset="1" stop-color="#150E42"/>
</linearGradient>
<linearGradient id="paint40_linear_563_243" x1="232.991" y1="163.743" x2="252.325" y2="179.75" gradientUnits="userSpaceOnUse">
<stop stop-color="#F9B776"/>
<stop offset="1" stop-color="#F47960"/>
</linearGradient>
<linearGradient id="paint41_linear_563_243" x1="198.752" y1="165.38" x2="184.368" y2="165.38" gradientUnits="userSpaceOnUse">
<stop stop-color="#F9B776"/>
<stop offset="1" stop-color="#F47960"/>
</linearGradient>
<linearGradient id="paint42_linear_563_243" x1="212.733" y1="124.265" x2="212.913" y2="152.996" gradientUnits="userSpaceOnUse">
<stop stop-color="#F9B776"/>
<stop offset="1" stop-color="#F47960"/>
</linearGradient>
<linearGradient id="paint43_linear_563_243" x1="252.714" y1="176.65" x2="177.391" y2="176.65" gradientUnits="userSpaceOnUse">
<stop stop-color="#2B3582"/>
<stop offset="1" stop-color="#150E42"/>
</linearGradient>
<linearGradient id="paint44_linear_563_243" x1="185.433" y1="140.926" x2="108.5" y2="140.926" gradientUnits="userSpaceOnUse">
<stop stop-color="#2B3582"/>
<stop offset="1" stop-color="#150E42"/>
</linearGradient>
<linearGradient id="paint45_linear_563_243" x1="204.017" y1="119.541" x2="215.737" y2="139.41" gradientUnits="userSpaceOnUse">
<stop stop-color="#F9B776"/>
<stop offset="1" stop-color="#F47960"/>
</linearGradient>
<linearGradient id="paint46_linear_563_243" x1="216.072" y1="122.62" x2="170.106" y2="128.054" gradientUnits="userSpaceOnUse">
<stop stop-color="#2B3582"/>
<stop offset="1" stop-color="#150E42"/>
</linearGradient>
<linearGradient id="paint47_linear_563_243" x1="221.205" y1="137.163" x2="211.461" y2="124.649" gradientUnits="userSpaceOnUse">
<stop stop-color="#F9B776"/>
<stop offset="1" stop-color="#F47960"/>
</linearGradient>
<linearGradient id="paint48_linear_563_243" x1="225.778" y1="172.455" x2="245.113" y2="188.462" gradientUnits="userSpaceOnUse">
<stop stop-color="#F9B776"/>
<stop offset="1" stop-color="#F47960"/>
</linearGradient>
<linearGradient id="paint49_linear_563_243" x1="185.896" y1="163.573" x2="180.745" y2="163.573" gradientUnits="userSpaceOnUse">
<stop stop-color="#F9B776"/>
<stop offset="1" stop-color="#F47960"/>
</linearGradient>
</defs>
</svg>
