<svg width="289" height="286" viewBox="0 0 289 286" fill="none" xmlns="http://www.w3.org/2000/svg">
<path d="M282.027 236.313H7.31786C3.52996 236.313 0.430774 233.214 0.430774 229.426V20.5752C0.344686 9.21148 9.55617 0 20.9199 0H268.425C279.788 0 289 9.21148 289 20.5752V229.426C289 233.214 285.901 236.313 282.027 236.313Z" fill="url(#paint0_linear_563_144)"/>
<path d="M267.563 63.8777C267.477 63.4473 267.132 63.0169 266.702 62.8447C265.927 62.5003 265.152 62.7586 264.55 63.2751C264.55 62.2421 264.119 61.209 263.086 60.7785C262.311 60.4342 261.537 60.6064 260.934 61.1229C260.418 57.0767 258.782 51.9975 253.961 52.0836C249.226 52.1697 246.557 56.388 244.663 60.1759C244.233 59.6594 243.544 59.4011 242.683 59.4872C241.392 59.6594 240.703 60.8646 240.273 61.9838C239.842 61.7255 239.326 61.8116 238.895 62.156C238.379 62.5864 238.121 63.3612 237.862 64.0499H267.563V63.8777Z" fill="url(#paint1_linear_563_144)"/>
<path d="M71.3675 69.6457C71.1953 69.0431 70.8509 68.5265 70.1622 68.1822C69.1292 67.6656 68.01 68.0961 67.1491 68.6987C67.063 67.2352 66.5465 65.7717 65.083 65.2552C63.9639 64.8247 62.8447 64.9969 62.0699 65.6856C61.2951 60.1759 59.1429 53.0306 52.5141 53.2028C45.9713 53.2888 42.3556 59.1429 39.6008 64.3082C38.9982 63.5334 37.9651 63.189 36.932 63.3612C35.2103 63.6195 34.2633 65.2552 33.5746 66.8048C32.972 66.4604 32.2833 66.5465 31.6806 66.9769C30.9058 67.5796 30.5615 68.6987 30.3032 69.6457H71.3675Z" fill="url(#paint2_linear_563_144)"/>
<path d="M106.16 105.808V99.8627H72.3145V105.808V285.814H220.387V105.808H106.16Z" fill="#000066"/>
<path d="M216.943 285.814L216.943 110.193L74.8972 110.193L74.8972 285.814H216.943Z" fill="white"/>
<path d="M98.4042 117.83H87.7803V119.392H98.4042V117.83Z" fill="#6699FF"/>
<path d="M98.4042 183.292H87.7803V184.855H98.4042V183.292Z" fill="#6699FF"/>
<path d="M105.904 127.204H95.2798V128.766H105.904V127.204Z" fill="#6699FF"/>
<path d="M117.622 127.204H106.998V128.766H117.622V127.204Z" fill="white"/>
<path d="M144.962 127.204H118.715V128.766H144.962V127.204Z" fill="white"/>
<path d="M98.4042 121.579H87.7803V123.142H98.4042V121.579Z" fill="#CDD7F1"/>
<path d="M123.558 130.797H106.998V132.36H123.558V130.797Z" fill="#CDD7F1"/>
<path d="M163.711 130.797H124.496V132.36H163.711V130.797Z" fill="#CDD7F1"/>
<path d="M177.147 130.797H164.648V132.36H177.147V130.797Z" fill="#CDD7F1"/>
<path d="M192.926 130.797H178.084V132.36H192.926V130.797Z" fill="#CDD7F1"/>
<path d="M148.712 134.391H116.059V135.953H148.712V134.391Z" fill="#CDD7F1"/>
<path d="M192.771 134.391H149.806V135.953H192.771V134.391Z" fill="#CDD7F1"/>
<path d="M114.809 134.391H106.998V135.953H114.809V134.391Z" fill="#CDD7F1"/>
<path d="M204.488 134.391H193.864V135.953H204.488V134.391Z" fill="#6699FF"/>
<path d="M105.904 139.234H95.2798V140.796H105.904V139.234Z" fill="#6699FF"/>
<path d="M105.904 152.358H95.2798V153.92H105.904V152.358Z" fill="#6699FF"/>
<path d="M117.622 142.827H106.998V144.39H117.622V142.827Z" fill="#6699FF"/>
<path d="M144.962 142.827H118.715V144.39H144.962V142.827Z" fill="white"/>
<path d="M125.589 159.857H118.715V161.419H125.589V159.857Z" fill="white"/>
<path d="M123.558 146.264H106.998V147.827H123.558V146.264Z" fill="#CDD7F1"/>
<path d="M163.711 146.264H124.496V147.827H163.711V146.264Z" fill="#CDD7F1"/>
<path d="M177.147 146.264H164.648V147.827H177.147V146.264Z" fill="#CDD7F1"/>
<path d="M192.926 146.264H178.084V147.827H192.926V146.264Z" fill="#CDD7F1"/>
<path d="M148.712 149.858H116.059V151.42H148.712V149.858Z" fill="#CDD7F1"/>
<path d="M114.809 149.858H106.998V151.42H114.809V149.858Z" fill="#CDD7F1"/>
<path d="M160.43 149.858H149.806V151.42H160.43V149.858Z" fill="#6699FF"/>
<path d="M105.904 156.42H95.2798V157.982H105.904V156.42Z" fill="#6699FF"/>
<path d="M105.904 178.761H95.2798V180.324H105.904V178.761Z" fill="#6699FF"/>
<path d="M117.622 159.857H106.998V161.419H117.622V159.857Z" fill="#6699FF"/>
<path d="M117.622 175.793H106.998V177.355H117.622V175.793Z" fill="#6699FF"/>
<path d="M122.621 162.982H118.246V164.544H122.621V162.982Z" fill="#6699FF"/>
<path d="M129.964 162.982H123.402V164.544H129.964V162.982Z" fill="#CDD7F1"/>
<path d="M137.776 162.982H130.589V164.544H137.776V162.982Z" fill="#CDD7F1"/>
<path d="M143.868 162.982H138.4V164.544H143.868V162.982Z" fill="#CDD7F1"/>
<path d="M129.964 172.668H123.402V174.23H129.964V172.668Z" fill="#CDD7F1"/>
<path d="M137.776 172.668H130.589V174.23H137.776V172.668Z" fill="#CDD7F1"/>
<path d="M143.868 172.668H138.4V174.23H143.868V172.668Z" fill="#CDD7F1"/>
<path d="M129.964 166.106H123.402V167.669H129.964V166.106Z" fill="#CDD7F1"/>
<path d="M143.869 166.106H134.651V167.669H143.869V166.106Z" fill="#CDD7F1"/>
<path d="M134.182 166.106H130.589V167.669H134.182V166.106Z" fill="#CDD7F1"/>
<path d="M126.058 169.387H123.402V170.95H126.058V169.387Z" fill="#CDD7F1"/>
<path d="M129.964 169.387H126.683V170.95H129.964V169.387Z" fill="#CDD7F1"/>
<path d="M143.869 169.387H130.589V170.95H143.869V169.387Z" fill="#CDD7F1"/>
<path d="M122.621 166.106H118.246V167.669H122.621V166.106Z" fill="#6699FF"/>
<path d="M122.621 169.387H118.246V170.95H122.621V169.387Z" fill="#6699FF"/>
<path d="M122.621 172.668H118.246V174.23H122.621V172.668Z" fill="#6699FF"/>
<path d="M149.024 162.982H144.65V164.544H149.024V162.982Z" fill="#6699FF"/>
<path d="M149.024 166.106H144.65V167.669H149.024V166.106Z" fill="#6699FF"/>
<path d="M149.024 169.387H144.65V170.95H149.024V169.387Z" fill="#6699FF"/>
<path d="M149.024 172.668H144.65V174.23H149.024V172.668Z" fill="#6699FF"/>
<path d="M98.4042 188.292H87.7803V189.854H98.4042V188.292Z" fill="#6699FF"/>
<path d="M105.904 197.666H95.2798V199.228H105.904V197.666Z" fill="#6699FF"/>
<path d="M117.622 197.666H106.998V199.228H117.622V197.666Z" fill="white"/>
<path d="M144.962 197.666H118.715V199.228H144.962V197.666Z" fill="white"/>
<path d="M98.4042 192.041H87.7803V193.604H98.4042V192.041Z" fill="#CDD7F1"/>
<path d="M123.558 201.259H106.998V202.822H123.558V201.259Z" fill="#CDD7F1"/>
<path d="M163.711 201.259H124.496V202.822H163.711V201.259Z" fill="#CDD7F1"/>
<path d="M177.147 201.259H164.648V202.822H177.147V201.259Z" fill="#CDD7F1"/>
<path d="M192.926 201.259H178.084V202.822H192.926V201.259Z" fill="#CDD7F1"/>
<path d="M148.712 204.696H116.059V206.259H148.712V204.696Z" fill="#CDD7F1"/>
<path d="M192.771 204.696H149.806V206.259H192.771V204.696Z" fill="#CDD7F1"/>
<path d="M114.809 204.696H106.998V206.259H114.809V204.696Z" fill="#CDD7F1"/>
<path d="M204.488 204.696H193.864V206.259H204.488V204.696Z" fill="#6699FF"/>
<path d="M105.904 209.696H95.2798V211.258H105.904V209.696Z" fill="#6699FF"/>
<path d="M105.904 222.663H95.2798V224.226H105.904V222.663Z" fill="#6699FF"/>
<path d="M117.622 213.133H106.998V214.695H117.622V213.133Z" fill="#6699FF"/>
<path d="M144.962 213.133H118.715V214.695H144.962V213.133Z" fill="white"/>
<path d="M123.558 216.726H106.998V218.289H123.558V216.726Z" fill="#CDD7F1"/>
<path d="M163.711 216.726H124.496V218.289H163.711V216.726Z" fill="#CDD7F1"/>
<path d="M177.147 216.726H164.648V218.289H177.147V216.726Z" fill="#CDD7F1"/>
<path d="M192.926 216.726H178.084V218.289H192.926V216.726Z" fill="#CDD7F1"/>
<path d="M148.712 220.32H116.059V221.882H148.712V220.32Z" fill="#CDD7F1"/>
<path d="M114.809 220.32H106.998V221.882H114.809V220.32Z" fill="#CDD7F1"/>
<path d="M160.43 220.32H149.806V221.882H160.43V220.32Z" fill="#6699FF"/>
<path d="M105.904 226.725H95.2798V228.288H105.904V226.725Z" fill="#6699FF"/>
<path d="M98.4042 231.256H87.7803V232.818H98.4042V231.256Z" fill="#6699FF"/>
<path d="M105.904 240.63H95.2798V242.193H105.904V240.63Z" fill="#6699FF"/>
<path d="M117.622 240.63H106.998V242.193H117.622V240.63Z" fill="white"/>
<path d="M144.962 240.63H118.715V242.193H144.962V240.63Z" fill="white"/>
<path d="M98.4042 235.006H87.7803V236.568H98.4042V235.006Z" fill="#CDD7F1"/>
<path d="M123.558 244.224H106.998V245.786H123.558V244.224Z" fill="#CDD7F1"/>
<path d="M163.711 244.224H124.496V245.786H163.711V244.224Z" fill="#CDD7F1"/>
<path d="M177.147 244.224H164.648V245.786H177.147V244.224Z" fill="#CDD7F1"/>
<path d="M192.926 244.224H178.084V245.786H192.926V244.224Z" fill="#CDD7F1"/>
<path d="M148.712 247.817H116.059V249.379H148.712V247.817Z" fill="#CDD7F1"/>
<path d="M192.771 247.817H149.806V249.379H192.771V247.817Z" fill="#CDD7F1"/>
<path d="M114.809 247.817H106.998V249.379H114.809V247.817Z" fill="#CDD7F1"/>
<path d="M204.488 247.817H193.864V249.379H204.488V247.817Z" fill="#6699FF"/>
<path d="M105.904 252.66H95.2798V254.223H105.904V252.66Z" fill="#6699FF"/>
<path d="M105.904 265.784H95.2798V267.346H105.904V265.784Z" fill="#6699FF"/>
<path d="M117.622 256.254H106.998V257.816H117.622V256.254Z" fill="#6699FF"/>
<path d="M144.962 256.254H118.715V257.816H144.962V256.254Z" fill="white"/>
<path d="M125.589 273.283H118.715V274.846H125.589V273.283Z" fill="white"/>
<path d="M123.558 259.691H106.998V261.253H123.558V259.691Z" fill="#CDD7F1"/>
<path d="M163.711 259.691H124.496V261.253H163.711V259.691Z" fill="#CDD7F1"/>
<path d="M177.147 259.691H164.648V261.253H177.147V259.691Z" fill="#CDD7F1"/>
<path d="M192.926 259.691H178.084V261.253H192.926V259.691Z" fill="#CDD7F1"/>
<path d="M148.712 263.284H116.059V264.847H148.712V263.284Z" fill="#CDD7F1"/>
<path d="M114.809 263.284H106.998V264.847H114.809V263.284Z" fill="#CDD7F1"/>
<path d="M160.43 263.284H149.806V264.847H160.43V263.284Z" fill="#6699FF"/>
<path d="M105.904 269.846H95.2798V271.409H105.904V269.846Z" fill="#6699FF"/>
<path d="M117.622 273.283H106.998V274.846H117.622V273.283Z" fill="#6699FF"/>
<path d="M76.5337 105.175C76.5337 104.55 77.0024 104.081 77.6273 104.081C78.2523 104.081 78.721 104.55 78.721 105.175C78.721 105.8 78.2523 106.268 77.6273 106.268C77.0024 106.268 76.5337 105.8 76.5337 105.175Z" fill="white"/>
<path d="M80.9082 105.175C80.9082 104.55 81.3769 104.081 82.0018 104.081C82.6268 104.081 83.0955 104.55 83.0955 105.175C83.0955 105.8 82.6268 106.268 82.0018 106.268C81.5331 106.268 80.9082 105.8 80.9082 105.175Z" fill="#F6DF2C"/>
<path d="M85.439 105.175C85.439 104.55 85.9077 104.081 86.5326 104.081C87.1575 104.081 87.6263 104.55 87.6263 105.175C87.6263 105.8 87.1575 106.268 86.5326 106.268C85.9077 106.268 85.439 105.8 85.439 105.175Z" fill="#A0BB31"/>
<path d="M183.369 195.249C183.197 195.249 182.939 195.335 182.767 195.335C182.422 195.335 182.078 195.421 181.82 195.421C181.303 195.507 180.873 195.507 180.356 195.593C179.84 195.679 179.409 195.679 178.893 195.766C172.78 196.54 166.668 197.315 160.47 198.09C159.523 198.176 158.576 198.348 157.543 198.434C157.457 198.434 157.37 198.434 157.198 198.434C157.026 198.434 156.94 198.434 156.768 198.52C156.768 198.52 156.768 198.52 156.682 198.52C155.304 198.693 153.927 198.865 152.549 198.951C148.934 199.295 145.318 199.467 141.788 199.984H141.702C141.53 199.984 141.272 200.07 141.1 200.07C140.583 200.156 140.067 200.242 139.55 200.328C138.861 200.5 138.259 200.587 137.57 200.845C132.749 202.308 129.736 205.063 125.69 208.421C124.571 209.368 123.452 210.315 122.246 211.261C121.902 211.52 121.558 211.864 121.213 212.122C120.783 212.467 120.352 212.811 119.922 213.155C119.578 213.414 119.233 213.758 118.889 214.016C118.028 214.705 117.167 215.394 116.306 216.082C115.617 216.599 114.929 217.202 114.24 217.804C113.896 218.062 113.551 218.407 113.207 218.665C110.108 221.248 106.923 223.83 103.823 226.413C103.651 226.585 103.479 226.757 103.307 226.93C101.757 228.565 101.327 230.89 102.102 232.87C102.274 233.3 102.532 233.731 102.79 234.075C104.684 236.658 108.3 237.088 110.71 235.022L112.002 233.903C110.624 235.711 110.452 238.207 111.657 240.187C111.743 240.273 111.743 240.359 111.83 240.446C111.916 240.618 112.088 240.876 112.26 241.048C114.24 243.286 117.684 243.459 120.094 241.565L121.644 240.273C120.525 242.253 120.783 244.836 122.505 246.644C124.485 248.796 127.928 248.882 130.166 247.074L131.716 245.783C131.027 247.074 130.855 248.538 131.286 250.001C131.372 250.346 131.458 250.604 131.63 250.862C131.802 251.207 132.06 251.551 132.319 251.895C132.577 252.24 132.921 252.498 133.266 252.756C134.04 253.359 134.901 253.703 135.762 253.789C136.365 253.875 136.967 253.875 137.57 253.789C138.431 253.617 139.292 253.273 139.981 252.756C140.067 252.756 140.067 252.67 140.153 252.67C140.153 252.67 140.411 252.412 140.841 251.895C141.444 251.207 142.391 250.26 143.682 249.054C145.404 247.505 147.556 245.611 150.139 243.803C150.311 243.631 150.569 243.545 150.742 243.373C153.238 241.651 156.079 240.101 159.006 239.154C159.264 239.068 159.523 238.982 159.867 238.896C161.244 238.465 162.536 238.207 163.913 238.121C165.205 238.035 166.41 237.863 167.701 237.691C168.218 237.605 168.734 237.519 169.251 237.432C169.423 237.432 169.681 237.346 169.939 237.346C173.211 236.744 176.138 236.055 178.634 235.28C178.807 235.194 178.979 235.194 179.151 235.108C179.667 234.936 180.098 234.85 180.614 234.678C182.422 234.075 183.972 233.558 185.349 232.956C189.481 231.234 191.806 229.684 193.011 228.737C193.442 228.393 193.7 228.135 193.786 228.049C193.872 227.963 193.958 227.877 193.958 227.877L183.369 195.249ZM139.722 211.175C139.808 211.003 139.894 210.917 140.067 210.745L140.153 210.831L139.722 211.175Z" fill="#F6BC97"/>
<path d="M288.57 155.993V199.123L212.467 225.38L194.647 231.578L193.528 228.049L182.767 195.335L181.906 192.752L198.865 186.984L288.57 155.993Z" fill="#000094"/>
<path d="M288.569 196.11V199.123L212.38 225.38L194.646 231.492L193.441 227.963L182.68 195.249L181.819 192.666C188.62 194.474 195.421 196.024 202.394 197.229C225.466 201.189 248.968 201.619 272.212 198.348L288.569 196.11Z" fill="#000066"/>
<path d="M198.09 184.918L180.27 190.945L194.388 233.989L213.241 227.618L198.09 184.918Z" fill="white"/>
<path d="M101.929 197.315C111.141 197.487 120.352 195.938 129.047 192.839C129.047 192.839 136.623 189.567 139.292 189.137C143.252 188.62 153.238 189.653 158.145 190.17C160.125 190.428 161.416 192.322 160.9 194.302C160.211 196.799 157.887 199.726 151.172 200.414C139.033 201.62 128.186 206.785 120.61 213.328L109.935 222.625C104.598 227.274 97.883 229.943 90.8237 230.201L101.929 197.315Z" fill="#F29F85"/>
<path d="M103.134 194.302L102.187 197.315L100.465 202.481L99.088 206.871L91.4261 230.115L90.4791 232.956V233.042L90.2209 232.956L72.6588 227.016L0 202.394V159.264L86.2608 188.534L99.088 192.925L100.465 193.355L103.134 194.302Z" fill="#001191"/>
<path d="M103.134 194.302L102.101 197.315L100.379 202.48L98.9158 206.785L91.2539 230.029L90.3069 232.87V232.956L90.0487 232.87L72.4866 226.93L0 202.394V198.09L17.2177 200.759C38.912 204.116 60.9507 203.686 82.3007 199.553C87.8965 198.52 93.4922 197.143 99.0019 195.593C99.5184 195.421 99.9489 195.335 100.465 195.163C101.412 194.819 102.273 194.56 103.134 194.302Z" fill="#001371"/>
<path d="M86.9493 186.468L104.77 192.494L90.6511 235.452L71.8838 229.082L86.9493 186.468Z" fill="white"/>
<path d="M150.052 251.206C148.158 252.498 145.576 252.067 144.284 250.259L139.808 243.975C138.516 242.081 138.947 239.498 140.755 238.207C142.649 236.916 145.231 237.346 146.523 239.154L150.999 245.439C152.377 247.246 151.946 249.829 150.052 251.206Z" fill="#F29F85"/>
<path d="M157.8 246.816C155.561 248.107 152.72 247.333 151.429 245.094L147.125 237.605C145.833 235.366 146.608 232.525 148.846 231.234C151.085 229.943 153.926 230.717 155.217 232.956L159.521 240.445C160.813 242.684 160.038 245.525 157.8 246.816Z" fill="#F29F85"/>
<path d="M166.409 242.684C164.085 243.717 161.33 242.684 160.297 240.273L156.853 232.353C155.82 230.029 156.853 227.274 159.264 226.241C161.588 225.208 164.343 226.241 165.376 228.651L168.82 236.571C169.767 238.896 168.734 241.651 166.409 242.684Z" fill="#F29F85"/>
<path d="M174.932 239.498C172.436 240.187 169.939 238.638 169.25 236.227L167.012 227.876C166.323 225.38 167.873 222.883 170.283 222.195C172.78 221.506 175.276 223.055 175.965 225.466L178.204 233.817C178.892 236.313 177.429 238.896 174.932 239.498Z" fill="#F29F85"/>
<defs>
<linearGradient id="paint0_linear_563_144" x1="144.675" y1="0" x2="144.675" y2="236.307" gradientUnits="userSpaceOnUse">
<stop stop-color="#000066"/>
<stop offset="1" stop-color="#6699FF"/>
</linearGradient>
<linearGradient id="paint1_linear_563_144" x1="237.793" y1="57.9709" x2="267.566" y2="57.9709" gradientUnits="userSpaceOnUse">
<stop stop-color="white"/>
<stop offset="1" stop-color="white" stop-opacity="0.1"/>
</linearGradient>
<linearGradient id="paint2_linear_563_144" x1="30.2167" y1="61.4287" x2="71.364" y2="61.4287" gradientUnits="userSpaceOnUse">
<stop stop-color="white"/>
<stop offset="1" stop-color="white" stop-opacity="0.1"/>
</linearGradient>
</defs>
</svg>
