<svg width="885" height="1343" viewBox="0 0 885 1343" fill="none" xmlns="http://www.w3.org/2000/svg">
<g style="mix-blend-mode:multiply">
<path fill-rule="evenodd" clip-rule="evenodd" d="M884.142 613.98C884.142 275.656 635.885 0.438213 329.821 0.438213L330.217 0L312.399 0.438213C251.028 2.62943 191.241 10.5178 133.037 22.7887C55.0362 39.442 0 113.505 0 201.154V205.975C0 262.07 20.5891 310.715 59.7875 346.213C98.9859 381.711 145.707 394.858 195.596 384.34C236.774 375.575 279.14 369.878 322.694 368.564L330.217 368.125C452.563 368.125 551.945 478.125 551.945 613.542C551.945 745.892 457.315 853.7 338.928 858.959C149.667 867.286 0 1039.52 0 1249V1343H332.197V1296.77C332.197 1259.08 357.933 1227.52 391.588 1223.58C668.748 1189.83 884.142 929.955 884.142 613.98Z" fill="url(#paint0_linear_85_24)" fill-opacity="0.1"/>
</g>
<defs>
<linearGradient id="paint0_linear_85_24" x1="442.071" y1="0" x2="442.071" y2="1343" gradientUnits="userSpaceOnUse">
<stop stop-color="#6699FF" stop-opacity="0"/>
<stop offset="0.128012" stop-color="#6699FF"/>
</linearGradient>
</defs>
</svg>
