<svg width="885" height="1488" viewBox="0 0 885 1488" fill="none" xmlns="http://www.w3.org/2000/svg">
<path fill-rule="evenodd" clip-rule="evenodd" d="M329.821 0.430687C635.885 0.430687 884.142 270.922 884.142 603.436C884.142 913.984 668.748 1169.4 391.588 1202.57C357.933 1206.44 332.197 1237.45 332.197 1274.5V1319.94H332V1488H0V1319.94V1314.04V1227.55C0 1021.66 149.667 852.392 338.928 844.208C457.315 839.039 551.945 733.083 551.945 603.006C551.945 469.914 452.563 361.803 330.217 361.803L322.694 362.234C279.14 363.526 236.774 369.126 195.596 377.74C145.707 388.077 98.9859 375.156 59.7875 340.268C20.5891 305.379 0 257.57 0 202.438V197.7C0 111.556 55.0362 38.7646 133.037 22.3973C191.241 10.3372 251.028 2.58428 312.399 0.430687L330.217 0L329.821 0.430687Z" fill="#F0F5FF"/>
</svg>
